<mxfile host="app.diagrams.net" modified="2022-01-17T09:51:35.379Z" agent="5.0 (Windows NT 10.0; Win64; x64) AppleWebKit/537.36 (KHTML, like Gecko) Chrome/97.0.4692.71 Safari/537.36" etag="5gemisN9cVwgRf2mfa7b" version="16.2.7" type="github">
  <diagram id="oeQBiEORz0I9eKUS21Ui" name="Page-1">
    <mxGraphModel dx="1292" dy="696" grid="1" gridSize="10" guides="1" tooltips="1" connect="1" arrows="1" fold="1" page="1" pageScale="1" pageWidth="1654" pageHeight="2336" math="0" shadow="0">
      <root>
        <mxCell id="0" />
        <mxCell id="1" parent="0" />
        <mxCell id="fllPb2djwLRIhumXTyLn-4" value="EventCenter，基于现有js api的&lt;span style=&quot;color: rgb(23, 43, 77); font-size: 12px; background-color: rgb(255, 255, 255);&quot;&gt;UnifiedEventService（简称UES）思路，实现能够在Taro的小程序、Taro转的H5、App内的weex统一的通信方式&lt;br style=&quot;font-size: 12px;&quot;&gt;使用场景：A页面跳转到B页面，并且A需要发送数据给B，且从B页面返回到A时，B还需要发送数据给A。&lt;br style=&quot;font-size: 12px;&quot;&gt;方法：A监听B发送的event-b事件，在跳转到B之前，A先发送携带数据的粘性事件event-a，B初始化时监听event-a获取到来自A的数据，自身业务完成后返回到A时，发送event-b事件，即A能收到来自B的数据&lt;br style=&quot;font-size: 12px;&quot;&gt;&lt;/span&gt;" style="text;html=1;strokeColor=none;fillColor=none;align=left;verticalAlign=top;rounded=0;fontSize=12;whiteSpace=wrap;" vertex="1" parent="1">
          <mxGeometry x="83" y="50" width="380" height="130" as="geometry" />
        </mxCell>
        <mxCell id="fllPb2djwLRIhumXTyLn-5" value="" style="shape=image;imageAspect=0;aspect=fixed;verticalLabelPosition=bottom;verticalAlign=top;fontSize=13;image=data:image/png,iVBORw0KGgoAAAANSUhEUgAAAmYAAAHDCAYAAACOFdZKAAAKpGlDQ1BJQ0MgUHJvZmlsZQAASImVlwdQFFkax1/35EQaGAEJQ845DSA5DjknURlmYBjCOAwMyYwsKrAGVERAEXQFRME1ALIGRBQDi2AA84IsKsq6GDChsg0cw+1d3V3dv+qr/tXXr//v69fvVX0NAPkqSyBIhaUASONnCkO8XOlR0TF03FMAARgQgCUwZLEzBC5BQX4A0fz17/owgIxGdNtoxuvf7/9XSXMSMtgAQEEIx3My2GkIn0LiOFsgzAQAxUHyGtmZghnejLCsECkQ4aoZ5s7x8RmOn+Ou2TFhIW4I3wMAT2axhFwASL8jeXoWm4v4kNEIm/I5PD7Clgg7spNYyDxk5B4wTEtbOcMHENaN/ycf7t8848WeLBZXzHPvMiu8Oy9DkMrK/T+X438rLVU0P4c6EuQkoXfIzHzImtWnrPQVMz8+IHCeeZy5mmY4SeQdPs/sDLeYeeaw3H3nWZQS7jLPLOHCs7xMZtg8C1eGiP35qQF+Yv8EppgTMjxC5zmR58mc57yksMh5zuJFBMxzRkqo78IYN3FeKAoR15wo9BS/Y1rGQm1s1sJcmUlh3gs1RInr4SS4e4jz/HDxeEGmq9hTkBq0UH+qlzifkRUqfjYT2WDznMzyCVrwCRKvD+ABf8AC7MyEnJl9BdxWCnKFPG5SJt0FOSUJdCafbWxINzc1YwAwc+bmPuk72uxZgmjXF3LpHQDYFiFJ7kKOpQHAmWcAUD8s5DTeItthOwDn+tgiYdZcbmarAwwgAkkgCxSACtAAusAImANrYA+cgQfwAYEgDESD5YANkkAaEIJssBpsAIWgGGwHu0EFqAYHQT04Bk6AVnAWXARXwA3QB+6Ch2AIjIJXYAJ8AFMQBOEgCkSFFCBVSAsygMwhBuQIeUB+UAgUDcVBXIgPiaDV0EaoGCqFKqAaqAH6GToDXYSuQf3QfWgYGoPeQl9gFEyGZWFlWBs2gRmwC+wLh8HLYC6cDufBBfBWuByuhY/CLfBF+AZ8Fx6CX8GTKIAioWgoNZQRioFyQwWiYlCJKCFqLaoIVYaqRTWh2lHdqNuoIdQ46jMai6ai6WgjtD3aGx2OZqPT0WvRJegKdD26Bd2Fvo0eRk+gv2MoGCWMAcYOw8REYbiYbEwhpgxzGHMacxlzFzOK+YDFYmlYHawN1hsbjU3GrsKWYPdhm7Ed2H7sCHYSh8Mp4AxwDrhAHAuXiSvE7cUdxV3A3cKN4j7hSXhVvDneEx+D5+Pz8WX4I/jz+Fv45/gpghRBi2BHCCRwCLmEbYRDhHbCTcIoYYooTdQhOhDDiMnEDcRyYhPxMvER8R2JRFIn2ZKCSTzSelI56TjpKmmY9JksQ9Ynu5FjySLyVnIduYN8n/yOQqFoU5wpMZRMylZKA+US5QnlkwRVwliCKcGRWCdRKdEicUvitSRBUkvSRXK5ZJ5kmeRJyZuS41IEKW0pNymW1FqpSqkzUoNSk9JUaTPpQOk06RLpI9LXpF/I4GS0ZTxkODIFMgdlLsmMUFFUDaoblU3dSD1EvUwdlcXK6sgyZZNli2WPyfbKTsjJyFnKRcjlyFXKnZMboqFo2jQmLZW2jXaCNkD7skh5kcuihEVbFjUturXoo/xieWf5BPki+Wb5u/JfFOgKHgopCjsUWhUeK6IV9RWDFbMV9yteVhxfLLvYfjF7cdHiE4sfKMFK+kohSquUDir1KE0qqyh7KQuU9ypfUh5Xoak4qySr7FI5rzKmSlV1VOWp7lK9oPqSLkd3oafSy+ld9Ak1JTVvNZFajVqv2pS6jnq4er56s/pjDaIGQyNRY5dGp8aEpqqmv+ZqzUbNB1oELYZWktYerW6tj9o62pHam7RbtV/oyOswdfJ0GnUe6VJ0nXTTdWt17+hh9Rh6KXr79Pr0YX0r/ST9Sv2bBrCBtQHPYJ9BvyHG0NaQb1hrOGhENnIxyjJqNBo2phn7Gecbtxq/NtE0iTHZYdJt8t3UyjTV9JDpQzMZMx+zfLN2s7fm+uZs80rzOxYUC0+LdRZtFm8sDSwTLPdb3rOiWvlbbbLqtPpmbWMttG6yHrPRtImzqbIZZMgyghgljKu2GFtX23W2Z20/21nbZdqdsPvT3sg+xf6I/YslOksSlhxaMuKg7sByqHEYcqQ7xjkecBxyUnNiOdU6PXXWcOY4H3Z+7qLnkuxy1OW1q6mr0PW060c3O7c1bh3uKHcv9yL3Xg8Zj3CPCo8nnuqeXM9GzwkvK69VXh3eGG9f7x3eg0xlJpvZwJzwsfFZ49PlS/YN9a3wfeqn7yf0a/eH/X38d/o/CtAK4Ae0BoJAZuDOwMdBOkHpQb8EY4ODgiuDn4WYhawO6Q6lhq4IPRL6Icw1bFvYw3DdcFF4Z4RkRGxEQ8THSPfI0sihKJOoNVE3ohWjedFtMbiYiJjDMZNLPZbuXjoaaxVbGDuwTGdZzrJryxWXpy4/t0JyBWvFyThMXGTckbivrEBWLWsynhlfFT/BdmPvYb/iOHN2ccYSHBJKE54nOiSWJr7gOnB3cseSnJLKksZ5brwK3ptk7+Tq5I8pgSl1KdOpkanNafi0uLQzfBl+Cr9rpcrKnJX9AgNBoWAo3S59d/qE0Fd4OAPKWJbRlimLNDc9Il3RD6LhLMesyqxP2RHZJ3Okc/g5Pbn6uVtyn+d55v20Cr2KvapztdrqDauH17isqVkLrY1f27lOY13ButH1XuvrNxA3pGz4Nd80vzT//cbIje0FygXrC0Z+8PqhsVCiUFg4uMl+U/Vm9Gbe5t4tFlv2bvlexCm6XmxaXFb8tYRdcv1Hsx/Lf5zemri1d5v1tv3bsdv52wd2OO2oL5UuzSsd2em/s2UXfVfRrve7V+y+VmZZVr2HuEe0Z6jcr7xtr+be7Xu/ViRV3K10rWyuUqraUvVxH2ffrf3O+5uqlauLq78c4B24V+NV01KrXVt2EHsw6+CzQxGHun9i/NRwWPFw8eFvdfy6ofqQ+q4Gm4aGI0pHtjXCjaLGsaOxR/uOuR9razJqqmmmNRcfB8dFx1/+HPfzwAnfE50nGSebTmmdqjpNPV3UArXktky0JrUOtUW39Z/xOdPZbt9++hfjX+rOqp2tPCd3btt54vmC89MX8i5Mdgg6xi9yL450ruh8eCnq0p2u4K7ey76Xr17xvHKp26X7wlWHq2ev2V07c51xvfWG9Y2WHque079a/Xq617q35abNzbY+2772/iX952853bp42/32lTvMOzfuBtztHwgfuDcYOzh0j3Pvxf3U+28eZD2Yerj+EeZR0WOpx2VPlJ7U/qb3W/OQ9dC5YffhnqehTx+OsEde/Z7x+9fRgmeUZ2XPVZ83vDB/cXbMc6zv5dKXo68Er6bGC/+Q/qPqte7rU386/9kzETUx+kb4ZvptyTuFd3XvLd93TgZNPvmQ9mHqY9EnhU/1nxmfu79Efnk+lf0V97X8m9639u++3x9Np01PC1hC1mwrgEICTkwE4G0dAJRopHfoA4AoMdcTzwqa6+NnCfwnnuubZ2UNQJ0zAOHrAfBDepT9SGghTEauMy1RmDOALSzE8Q9lJFqYz3mRkc4S82l6+p0yALh2AL4Jp6en9k1PfzuEFHsfgI70uV58RljkD+WAzAz1qKwF/6q/AFGBAWe0WCAVAAABnWlUWHRYTUw6Y29tLmFkb2JlLnhtcAAAAAAAPHg6eG1wbWV0YSB4bWxuczp4PSJhZG9iZTpuczptZXRhLyIgeDp4bXB0az0iWE1QIENvcmUgNS40LjAiPgogICA8cmRmOlJERiB4bWxuczpyZGY9Imh0dHA6Ly93d3cudzMub3JnLzE5OTkvMDIvMjItcmRmLXN5bnRheC1ucyMiPgogICAgICA8cmRmOkRlc2NyaXB0aW9uIHJkZjphYm91dD0iIgogICAgICAgICAgICB4bWxuczpleGlmPSJodHRwOi8vbnMuYWRvYmUuY29tL2V4aWYvMS4wLyI+CiAgICAgICAgIDxleGlmOlBpeGVsWERpbWVuc2lvbj42MTQ8L2V4aWY6UGl4ZWxYRGltZW5zaW9uPgogICAgICAgICA8ZXhpZjpQaXhlbFlEaW1lbnNpb24+NDUxPC9leGlmOlBpeGVsWURpbWVuc2lvbj4KICAgICAgPC9yZGY6RGVzY3JpcHRpb24+CiAgIDwvcmRmOlJERj4KPC94OnhtcG1ldGE+CnOuyzcAAEAASURBVHgB7L0NXFzVnf//IaIZlDSDxsp0YzekcRtYrQwmrcEmMaTaMlTbDE27QtXWIekq0RrB/FahPqQQ+49Euxp0m4CxKvj/1YKuFuIT5KkBt0lncJMyedVsSGvaoZvYGQ06E4Pe3/fcB+beYWYYCA8D8z15kXvPveeeh/c5557vnPM935skkUME5w98ihTTtAh3g5dPnJAwa1ZS8EKEM44vPBjmF54Lt5fwXLi9hOfC7SU8F24v4blwewnPhdtLeC7j2V6GlrrC55GvMgEmwASYABNgAkyACYwyARbMRhkoR8cEmAATYAJMgAkwgZESYMFspOT4OSbABJgAE2ACTIAJjDIBFsxGGShHxwSYABNgAkyACTCBkRJI+sj/SUTl/5FGys8xASbABJgAE2ACTIAJDJ9AEu/KDEIbz10XwVQB3gWjpxE85/oIstCfcXvR0wiec3sJstCfcXvR0wiec3sJstCfcXvR0wiej2d74aXMIHc+YwJMgAkwASbABJjAhBJgwWxC8XPiTIAJMAEmwASYABMIEmDBLMiCz5gAE2ACTIAJMAEmMKEEWDCbUPycOBNgAkyACTABJsAEggRYMAuy4DMmwASYABNgAkyACUwoARbMJhQ/J84EmAATYAJMgAkwgSABFsyCLPiMCTABJsAEmAATYAITSoAFswnFz4kzASbABJgAE2ACTCBIIOn48U8jWv4/L1XCh31JwdBneMbxnRlA5sf8hkOA28twaA0Oy/wGMxnOFeY3HFqDwzK/wUyGc2Uy82PL/7qaHk/Lvrpk2fK/HobunOtDB0N3euKEhFmzhv7BxPx00HSnzE8HQ3fK7UUHQ3fK7UUHQ3fK7UUHQ3c6Gu2FlzJ1QPmUCTABJsAEmAATYAITSYAFs4mkz2kzASbABJgAE2ACTEBHgAUzHQw+ZQJMgAkwASbABJjARBJgwWwi6XPaTIAJMAEmwASYABPQEWDBTAeDT5kAE2ACTIAJMAEmMJEEWDCbSPqcNhNgAkyACTABJsAEdARYMNPB4FMmwASYABNgAkyACUwkgeTxTHzPnl3YvasNR44cgc/nk/8+/vjj8czCpElr+vTpMJvN8t/cuXOxfPlyfOXKJZMm/5zRsSPQ0bETv/sd96OxIxx/MfP7IP7qZLLliMff2Gtsovtb0kf+TyJa/o+9GJFDnjz5AbY9VYdXXnkJgUAgckC+MySBc889F9dfvwI3/8CB1NTUIcNzgKlDgPvR1KnL0SoJvw9Gi+TUjYffG6NXt+PZ38bU8v/zzz+PLVu24OTJkzKdBQsWIDc3F5dffjkuuOACXHjhhRCSacyuP4BAvwkmU/QnhPxnCNOvhh9ifjDQF4ApdYjIoyUt5M5ojw/KWOTITp06hePHj+O9995DV1cX9u7dC6fTKT/wmc98BrfeeitWrlwZNoLRsDysj5jj09MIno+X5etR70fBIvDZJCHA7wNgvPpbaJOYrO+/UX9vjMX4G2bMjGkcFmO6GM/pGKA/w3gfWoGafzKNv1IUJ2bTYnHie5t619fXJ/3oRz+SrrjiCukrX/mK9NBDD0kkYOiDDH3u7ZbaXm6T2l5X/zrbpCpAwqrNUlu77jqF6fbqojveQjOADunIaUk64uqW/HSre6NNqtknzkKdX2q5p0Jq89D1092SjeJ30nPel8sojirJQ+cD7rRHqsq3S23vBuNpyIdU1akmTs9bYZWcwdsDjyonXjn/Vfv0mQ0JMoSXBDWpqqpK+vKXvyyzXbNmjSRYh7rQ+gi9r/lHWr/a86FHji+UiOIfaX2MSj8KnyW+OgUI8PsgfCWOtL+Fj02SJlt8o/LeGI/x1+80jplivPV3Sw4ahxvc6kBqGIOVGvK7aiTrRqfs8bZXSFjZEqnqdNcn1/g7xBySJmrGfjx27BhIYIA4fuELX8DDDz+Mz3/+87FHoIUM+ODqcsFkDk5BefPp5tZ2uC6jo7wsSvfE0ZqHTLPyoGtbJbC+HhlwIclaC49UJ8dhCidSB9yofMiNhvX0bJ8HrahBAxExX1eDto05sJztx5HTVcgQlJLTYb81B1kXp6DhgB9Fl5pgf6wBKZcUo0hqQcorlXCtqoJVyy7l332oh55TL9DBut6KgoW1sB2wD0ysBehXiGWeFekxrEzOmjULFRUV+P73v49169ahs7MTxcXFqK2txT/8wz8oAPj/KUFg1PrRlKDBhQhHgN8H4agk9rVRe2+Mx/hLY6OF/slD86F6JGWWDFRefWYKimWfHd3+JmTSeJ6TUomG0y3IlJ9TgrrfqAbmtaDnGI21JAqI2TPLvAyY+yf5+KsTKQedDncG5IMPPpC++c1vyrM55eXlkt8fcfpoUFrhL3ikCjFLRjNVjlV2kq7pnGal7Ksckn0l+bMr5JmxgWdJAhezXi3HSfAmqZqqTqra0iBV5NMz99RIdVs2SzWPNQzMhHn3iTA1Uvdxr9T9Mkne+Zulbo9H8rzrkbwep5x23T4xnRZ0ntc3S5vFLNk7DXL8Ig3D38oGeZbO/06TZMu2yfm0ZSthrCsdUpnIe75yXZRBhBn4dRBMZsgzwXbt2rUy6+uuu04S7DU32X7hafkOPQ63/YU+H+qfLPGNfj8KJcH+qUaA3wfBGk3U99/ovzfGbvz1u/XjZ5nULWbGDmymMVgZPyWPWPmySt2aCCGvaNnkFS0Rzraxmx5Q85dtJVnAOjAO08SJNNnHXwSb8+Cz4Qxkp0+fln7wgx/IgsKPf/xj6dNPjcubg2OP4Yo81UnTmvu6pSPvdEst6wn+2gap+50jUrerSa44/dJhx3oSgLIb5IhbVkGyrW+QmpobpKqVkKxrN0sNjQ1S3TMtA4JZd2MFVahNFfjEs0oFi0oWfzYSoMSy6EDjCM2yPM3qlepI8NrsImFN+PVTr1p4tVGJpjSaTjC+6667ZOa33HKLJOpAuER9MQ3Fdjjteai4xP2xiG9M+lEsheEwk54Avw+UKkzE99+YvDfGcvw97ZeO7BPCmVVqOkATIcc9pHqkCGsNpILUJsb6/Dp5rPcK4SxEMLNvITUldx09XyNPhIiaF6pFm0koG+Qm4fg7akuZTz/9NA4cOIB58+bhZz/7GZKSkpS5xjP535SBqsdq4NrejB6Kp6fTRf+3o/l54SMtsI3lsKgl8L21Cbn30cWVJvh6W1Gw1UHLkEXyMqT7RBPMi0pp+VF+bOC/zBuq4LyBvP1uFJydhbLtTuSlC/9AEEXBkLyBg/VIuUyZam1we2GjHLn7SOkw2YueLiDtXTdctDFBTKVmLrDCHELWRAulrrco/2L1VYveZIF1vkhwZE4wrq6uxs0334y3334bzz33HEg4Hllk/FRcEBiTfhQXJeNMjDUBfh+MNeH4jX9M3htjOv6akJFtpXHUgkwaA72kCjR3vQv2fCuKrVmwrXTAkdqK4ktqUe7uQNE8PXsaRHtcqH1RjMdl8NCYm5Hsg2e7DdZGVXVIH5zOJ9v4GyI+hJQmRu8HH/ggGsZZZ50l65SF1eeKMS59sN436lG7vQOW2Wl02Yv67XTI9qDnXTr6vPC840TmCjvs80zwHABaDrSheX0vTLNy0eHKVXTDRIRCEiJdLlkqEv4Q1/tKPYlNQKslRJjMroPf5ZD1wUzzHZD8BahNsVDIANxvNKCG5MO0Q5tQT82roqsdTTu86D3mg33DZtgoTwPOR3kmT9MjVWjSLvY1o3n7Zvil0gF9M+3WcI6CNW2uwPe+9z1s27YNdrudHp8xnCg4bJwQeP/9selHcVI8zsY4EOD3wThAjrMkJu34S7ZMhcCUdXYBnN4WSCuA3lfK0ZxaiaZfkR62mCBpDA87cLgbphuaUDe7EOX0TNM13SgnTTRPOF3tSTj+jopgtm3bE7KNsu985zu4+OKLw5Mc7lWqNGTYULMhT1Ggp5zmoRnFs4pRdhNpm5FyX/1luXD39MCXnonMVWXI7Hehvq8XAV8Paqy5FFrvUrBG9dqf6UbTjZmKr78Xm+2b5HPbY0603E5xk2u9Kwm1mblBoUmQSjYjLZtExH4zim6vkYUs91Y36lOtSIMZtvUVyAzTMAJHO2ljQBucW6gsmqNZusKF7ZrvjI7CAO23vvUtvPTSS3jyySfhcKw7o/j44Ykh8ItfjEE/mpiicKoTSIDfBxMIfwKSnozjbxUqkXWTGKGtaHm3CaZXCpEk+wXATUjRzZFYaVx23qpMdJhoHA7QxgQsLkapGMOXNaHkYgcqV3lge6we6WEkmsk4/oYpxvBaljAa+9pr/wlhfO22224b3sNRQvfsqMWa572w0syTSEP8EnTvowe6GmiGiqTlQC9VH7lrs2Bq96BsGS0JykuQftpWaUXtux7UivtUn91POtCeXYPyhWnyUiNSg8uHPS+Uojq7Ad49VjhmZKF6fjfsJNIVPOpA92lVeBPxhHGdWwuRu9pEu0aqgO3lyJqRRDs2vbRkataFDqBhVSUqHvHqrolTMYM3eq60tBSvvvqqLJzddNNaivic0YucYxpzAqKNt/zm5VHvR2OacbEjmnZIyfaExjSh8Ylcfs9MkfLw+2B82sxEpzJZx19zfy28nnLkWcjqQboJmTc2oaM3CbmeNkiP0ARGH1lVmFFJYyvtwhQymc8FYTchS1WRsm2hbX7CzbajY30VqTG50HZcmVRRbmj/T87xN1kYz4vkzqPZn2j3xXN793aAlE7lTwYJw6ej5TJWVKDB0oiaNzywpFGsonK66C8/k/ziQgr9AXVuCY758qnyn4eEOHq5mmcHhS8vmdywXExbaKkBGFxvO+YWNcsSu5nK2uDajBRa366kQGWve2hbriG0PEvXTXmw0Gxd+70WLH+ojKZga5SGs6IG3n0ZSLssDenHJeTNUp7teXENSrqq4FmmF9boXoB000KiPxNvGjFZtmwZtm/fjt//vhNXxvD5pljqV8vTUO1AhOP4NFqDj0PxG6t+ZMiJrEtZjip62Q2YdaEA7ucLkfVsIfytRcEZYsOD5KFnc84uRr3fSc8G0HpvLgoeEjqfP8Xl9ENmm3w99KHIfvfWApQHamiGOgONq2lr/NbBYW1butGyKvqPo8FPDXGFZsibn++G7cY8tawBtG+txPLVyqy5eNp2D/34W18U9tf3ELGrtwNwvdgMcz7puIa8cmJ7/sxD8fsg8rim0Z0K76uxem+M/fibTkuVXtIwo6FQTKgkB+A3VcD66HKUpNXB+m4JyFaZMraqFVa4tgY1N9mR4W3Emv3qxMaJTtSTUCZc+ZPtcP5EtypF1ybr+Js8a5ZuzlAuXvA/f0BCtPsi5Ntv/1Z+QFjzH21nmmNF4XVWErQoZvrLWN+A5s5M2K7LlWfHbOLFNy801fBvwkHzU72dKLQsh6OZXtLpJGg9W4PlN1XTS7kOxRY3iq+1wE3nVbcVwjpbCFW0dHq9BdWklGi1WmjatAHdHjs1HPoaAW0CEM6UTRsOXHlIU2UwX1c95trrSfCTMCAmyo2QBsMXa+G6RNFfU54+8/9FHQjB7He/24tvfnPpkBHGUr8iEiFUDNUORDiOT1AY7GLhN5b9aHCOQq4I/UtPyLVB3gzUt5N9QNEX+3tQS0LZ5n0elNLssKuzIKjPOei58BeE7SL6DaW4Y0DFy06ssZqpDanXKE8ppKIw6u5wEwpvMkG6UcQcQDMJhYW0UajF5UHefDMCx1youiQXFvoBFlVQjZYx4pNjr6EZ96Joocb8Hr8PoiOeCu+rsXxvjOn4K6pGzLgPOBPybq1ErbkXuTeVKFezm9C+IgN582hApVWwikeUGbHAwXS6H0DvwUZYLiuGg1STJPoITnlKFpLoR6d/g03+0TWpx99BW0t1F2IxB0AGTmVzDbQrUPfkKJ/qbIZVtUexnC9v7w1un9Vy4RSW/13GbbSe16sk+2PCerBHInV52ppLXwBw6+I+3i01rLeLn12KnTF5a+5mZWuup0OqWiVMaSj2yUKPFa+T7bPjbfL9zQZL/36pgUx3KOGtUhvZWxtN9/vf/16ui+Lim2OKNpb6FREl4vbzWACOJr9x6UfalnNjV5C6n6G2TGZmxOUjzRWSfX2dVEPmZkQ7tdGXNmRzMaePkNmZKjo/otgWlNu+VWo46Fauq2ZivGTGRu5PdN8qnj2pkfRLbRsdStvPd0gOMjFDM2J00y+bm6l7RwtnPHY3lpHZm7bgRW8HxU92j0RmjzspbdV+UbaD+q9aMLIhaKe81unSaxH3qPxlWp9dReVVbSk1vRuMXj57p0Uquydo79DZXKX2WUiOx9qUdwDxqKBy1D2j2EukeTap5mWlPE0qO5p3HyKfLWTT0CFVyO8Sm/IFkpCsnImX3wfR6Y1m/xUpTUR84/LeGIPxV+t79JOMRmBJalurjosrKyT6kSRXXPfrwhwGpDqtX8tX6Y1xIGgDbXOnzs4ofTVA2D21PUP9cJKPv2dsxyw/P18WBsjisIptDA700vefJKNx6ns3Wgpe2ehJSAiymRLNibgjOv2z6uATMWzojXDRirKIggw3rtC4w/iPHj0q14XNdl2Yu4MvTcSLROSCBb3BdTE+/Uh8doyMNIa0S71g1v2M8mOk7Bn61NmBNlnIkgUonVDnUe0PNXR2S176dMtAnLJRSEhlz3RIHk+3VCd+hGRvlsTPHSVem9TkIhuEryvCjLBFJAQzYX+IvqIhf36t5eUWSflrk7yirxwQL2ebIuBQ6CONIn8UJ30iTTY+LewaklHoti1C6KNPopEgOPDSl20eOqXNIh+y4Uq/5CTbhWIw6HjHK3k7RT6UgWFwjShXPK+L8PTjjMrqcbfJn4shZWRZyFME0DISCMnu0mMiX3Y5n16yxyQ+zyae8ftjySfZWCRD2IZPwEXK0DCu8/sgOqyp8P4bn/cG9amxGH/1Y+BJr+TX+7Wq04+/2jVxFGEjhdeuh7zn5Mfp3mQYf8XCxBm5v//97/LzF1100RnFE/VhymWsHxc36z7hNBCnUOiN4qLGrX92uLTCJSvKoo8zSr6Ge0t8GF64998P3Wgw3Jg4/HgTGJd+pBZKVg2IVkAyE1Ol6mBVkZJtsX7FgZ5Lz1bsD1kXZNJeZPdATG4yb0OCDkpXkB0/OitcTzumMgtJqdcBzyPNsDUegT07g+6UkcJuOUq1eEm/s/mO4pBd1LT5xk+fWru0gGIsIRUGHyqW0eZ60gl1NNfCdLgd9DEWtNxGOif0fMYNZShbnYWGzl5UyRvDbXBuKJJ1VDLX12FNJm0KogUOq1WkDyyi5RH3DtoVnV8s51W+OOg/0j97lFJZ2wL7AnquPwNlzWXIsjehd1WxHHrzgSpaAqWOPq8KtjvK5S095kut8qdmBB8cbowhn6UGnb9B2RjhBX4fjBDcJHpsXN4bYzX+6sfTVLOq8xkCP9JYqX9W/4g+/CQefyMVT1/UqOfJycno7+8HWR6GOGc3cQSmTZsmJ06/DCYuE5zyiAiMXz9qhfsoGUGep8+meIMJwYWc0Puw005nxRf1f0VpVx9EbMqpxtwZQmQKOs8JRQKzXSZUfRVnTqddVapg5n+H5sDo+7Ol9P3ZwS4dxVusyHreibLLQCZvrHBekw4cU0IWXKJsAtKesx+lHyUXi7LkDSjeq8nIQbRzccxYRHNeq5vQ008CnOHVRXYKu3pguZSEMRL68GgBUh6VH1f/s8tGLQOUl5zZ4fKsBJP5qE9EzicJcYa09emc2Tm/D86M32R4evzeG5OBxsTmcTT7mzKSn0F5zj//fPnp99577wxiGb1HxfZhg+X+0Ys67mPS6uD889UtoXGfY86gRmBc+pFsToZ2Kvk08URJ3eMie0LLMgaEMatZzHeNwAVoBwGZnqEVBNAyA/154ex0omCOIry0v+MLRirC6l0U4STzuipg6yZseoR2Tq6shFUIS/1C+LLRrJqaFqV5xNWBqnxlRgzZEX6BizSzU+SymsxCUGxG635dvuhKYH8tsmh3dscJ8pDQKHaHih878p/3CDo6q1RBTv0AMwUL5+SZySHzSbvFo5Q9XLyxXuP3QaykJm+4cXlvTF4845rz0exvoyaYaVOq40pCl5jr+UqIT5KkpKQg6ewkJK2uRY9x/NGFHv5p4FA9kqz12o/84UcwDk+cOCFGEvoaQZqypDkOSXISo0RAe8GOaT+iT6wUi91LC9eglWaEfCd60Un9ZjnNBlVcl3XGJclYSDNQXWRSY0cPxRVA5zYHchbl0IZPE3KKrGi2b4aLZs8Cx9pRfocLFnWySXxMo8flgvsgfdasy0V/ytF9WBWY0vNQl92KyodaUbNO2Q5vmpNDYhld29ou98net2gHNBmVbu1VO31XhOII4ZS+0tEp4p5tQ9s9xGNRHuXZDV+fDz1vNSJ3YTmwqol2a5N9pdsoldWVaD9M8ZLtxPqiuchdRGlGE6bkr4y0omM/cZg9wnxGyP5wLvP7YDi0JmfYcXlvGNAEyLwNja801hr+rCVoPTSKA66WpjDTk5QD1xhErSUxWsfR7G/RXi8x5feLX/wiDh48iO7ubnzpS1+K6ZnRDiS+Y5lT1IqGfUdgm09veR9Z478uh0xVpI18y3tIJk3JtGTSpS73hNyLF+8f/vAHOSvz5n0xXrLE+YiRwPj0IxOKnuom+3lZKKAfGZor29KGSmGg+QydMBfjbCRTEXlz1a9sWFHX6VFmuNa2ou4dC3IuDC5z2rVVQJoB21SUqxiM1uchn2bfZNtqJhTQVzVwfQA2mgmTHX1to8HVgDzrcqTcoVxybOlA2QIyeXGI/NnKtYH/Vb8pPYsMSJcg9xKyJk621/LWe9GUUo7CvCy6qjhhx6x1PQmZ5Kw/bEBDTzGWDyyZkn6cp9SgW6c8pfufBGA7CcAli+Yi4PIPL5+6aM70lN8HZ0ow/p8fn/dGCAcy9F7xOn0CyaoabCd7ZO3bylGQWUwmYppC1AJCnh22V2emZ9jPju8Do9rf5J0KEf6LZdfKjh075J2Aq1evjhDL2F/2vFxGSlUV0hFtN4ZI0tMm1TzWIu/sEt7hbXkXT9BOspc30+4qsY3XJpWtom358s4u5V6k+Kry7bTVXjELUCXMZoyjczgccl20tu6JKdVY6ldExLsow+McTX7j3o9ot5O8G1nfZ8IXc/hXtbjDPUk7ksPuvgoXNsZr8o6x4ZYjNDz5o8Yj8h3LtnB9nkPSiBq//rlROuf3QXSQo9l/RUoTEd+4vzc08zbuELaySY3gju9oZnM6nqlQx1Xawa2Zn6HoIo6pwkwPvVOa1lqlqvbgmOrdR+OzMHtDz0ZK78jLVWTyp0Jy0M5vZNeM+s5nPYXR7G/J/sCnUcXKoe5fnv1lCKU3Fy1FHDlyBOI7bePt0um7WTbQDNnZ1XDcUwPbsjxabshD2e1KTnrfqCSDj9W0Y6sbeWYPKjOXIxfK97fc2+tRvb0MtOUdoHDLr6+Ezd+EDNpNlXX9GtSQ4cvWDDKkeVkB7eAaOj7ndvFx8jI0PFOH9Mwzn4WIlSVtjUdXV5e8AeOri79Mhjqj16sWbyzhhIVsYYwxFsfxDaYUC79x70e0e8lE9TomLlrcZFlWmygbrbSj7qqOlEjoWgH5o8YzknyHpBE1/kj5HOF1fh8kxvtq3N8b1B6F6oHT7UIP9XN5g0ufhz47KHYpVygbWXpbkWYtBJnNgecaM1ruyELWYvrGtKsUgVfo80lkyL2OxuICkxsWmvH2zfagKnVzxDG644UO2J6h71BnWlB4VzvKXMoXSto3roFroRMmSi8lUno+Gr+3NqPssTrUmbPO4Gse0TviqPc3vcQXeh7rL4B/+7cH5JmadevWhUYxfv6TR6SmLSQdk+FKQij/lTUG7STRlnf6pa786u1uVmbYPGSQjhYsJNoRpuRTZ6upewsZ3aQZMs15O8nIZHYdSeeK3aWo8YUYs9XiGMtjWVmZXAcbNmzgGa4IoGNtzxM1Q/iTn9w/8f0oAju+PLkI8Ptg6PqK9/dBrPkb3/FXbyQ9ONZiVZ3UrRpMV2wW0gqWsH1Gf153kzwet3joWRqfrbL9QqV+PJ1NUtuBXtmWYaQxNWgnUTHa3iYMI8rG5CEJ49CR01PvyeP20O3hTEKMdn87Y+V/IUfefPO/yjM17e3t8qxZdNly9O8GSIm5l2wM2VdV0KdVaPfUSQ9aNtpJb6UYLvG5JDEzILa8n50ibw7IstPuLrK/5CFF4Ghb3q1kj0lzZjPNfnWpvqjxkSmC0G9yapGM0fGPf/wjdu7ciXPOOQc/+tGPxigVjnasCZSsmth+NNbl4/jHhwC/D8aHc7ykMu7jL+1UrnF55V3Kfk8HHDKINGQMGAPQzObQeDsjBWlky1C4AbM588R9xaVfaUfepTOjjtFaWKTn0iYgoHFPL3ydTaCPwiFvtrgbJT1hpUG343wgrlE8GYv+NiqC2axZn8X3vvc9uaIqKyvJFBLBGDdH37u7yQLLejIWqbnUdNjWksFHqrqeXro4wi3vrjfcWow0ZasrU9T4bLCYBx4b8xPBuqKiQk7nX/7lX6Dt0hnzhDmBUSdw4YUT2Y9GvTgc4QQQ4PfBBECf4CTHe/wVW+A0I+mm9EXY7G4gczaFWPO8Ol4OYTbHdYxsDaqud0c9Nj3/9hBjtBZabAIqo4+W08fMHya1pUabYhx6iPSsGbT2OkZurPrbqAhmosy33nor5s2bByE93nvvvWOEIVy04uOnJJjQV+nLt7aSIOZDL32IuP62LNpMTx8cJxtKI9nybrHmAS8UorHLR9NqPahft4Z0zIQxy6Hj04lw4TI8atdo6lVm3dPTg/nz5/Ns2aiRnbiIJq4fTVyZOeXRIcDvg9HhOBljmcj3hml+EdrWW8mUTDHoAx2IZjbHKszP3FQPlzBr43OhJq8E7f2fiXmMTl9G+uRdm0gv3AqHarMwcnpjW5Nj2t+iravGusat6eSQHQ9J+3bX2rVrh7+LKVpmhrjnpJ0eVA3BP/FR43c03TGv1HCP/qPjZVKH2Nyh0ymTow/xO+Xv7+ni1HZlno4xviHyfCa3xQ6xH//4x7JOUkFBAX2zMPgBdq0+hop/uPXL8RkJjBW/iexHxhKyb7IQ4PdBsKYS9f03Pu8NRU9sQC9bw0762mVi/CVdbuGUb9JqY6dVIrM5SkgxdtLuyoGxmnTT5G/EDmNMlT94vqpJiU/9P1J6Qlfc+pjQNR9dN9b9LUlkN5JcKXbYpZiGnlQjeQyzZiXJ0fz5z3/GHXfcAfqouTyDtnHjRnz+85+PlMSoX1eWUWnnV7itX7TsJ2azTGFvRsgKLWEG+kcxvgjJDOfyn/70J9x9992yPt/s2bPx+OOP4+KL5Q8EytHo6yNavCOpX44vSGAs+U10PwqWks/inQC/D4w1lMjvv7h6b4ixkwbcsLuR5bE4zLg6kjFaq/5o6WlhRuE4Hv1taKlrmAURQtizzz4rG5s9fPgwvvvd7+JnP/sZtM8VDDO6YQcXQldEuUu+F05ii5KM2Pof6ZGRxBclqaFuCcvC1dXVMlNhmiQnJ0dmrRfKhoqD708OAhPdjyYHpcTOJb8PErv+w5U+rt4bstmcCIOnPHaGKcGZjKnR0guT1HAvjWd/G/UZM31hf/3rX+PJJ5/E+++/L19esGABrrrqKllou+CCCyBme9iFJ/DRRx9BfJ5HCLRvv/02Ojo6sH//fjmwmb5lWFpaihUrVoR9OJF/MYYFol4cyxmuaOmeaX1wP4pGNzHu8ftA2FIc/gpOtNYx1ePj90a02o9+b6L725gKZqLoJ0+exC9+8Qu89NJL47xbMzr4yXj33HPPlYWxVatWITVV2OwI785UEAiNleMLJaL4x/PFzv0ofB0k8lV+H4SvfX5fBbnweyPI4kzPxrO/JQlFyUgZPi9Vwod9iu5YpDDDue5y7cL27a+R/tmf8MEHPppJ8+H06Y+HE8WYhRUNuK+vTxZ4ZsyYMWbpxBrxOedMx8yZZnzmM2bSH5uDpUuvwdeuWTKq9THa9cvxxVq74cPFyq+zcxd27IjPfhS+ZKN7Nd766uiWLnxs/D4AYu0f4QkOvppo8fH4O7gNRLoy4f0t2l6Fsdp1Fi1NcW8idtXcf//98k4RcRzKTUT+RJ4SqT64vJFbYaK3v0h9lftH+DaT6O0lPBV+n0biMhHtJVKfDpfHicifyMd4vl9CvuYWSX6c+tevvvpq9PdLEEd2TIAJxC8BrY9qx/jNKeeMCTCBWAiIvszjb5AUC2YqC9EwvnLlkpjMgwTx8RkTYALjTUD0VfHHjgkwgalBgMdfYz1OM3oT1ye+NVldvV7+5mTiUuCSM4H4JyD66oMPPsh9Nf6rinPIBGIiwOOvERMLZioPuWFU8cve2DzYxwTij4Doqw888AALZvFXNZwjJjAiAjz+GrHxUqbKQ0yl8hq3sXGwjwnEIwFtGVM7xmMeOU9MgAnEToDHXyMrFsxUHqJhsI6ZsXGwjwnEIwHRV8UfOybABKYGAR5/jfU4zehNXJ88lco6ZonbALjkk4aA6KusYzZpqoszygSGJMDjrxERC2YqD17jNjYM9jGBeCUg+irrmMVr7XC+mMDwCfD4a2SWJIymGS8lpm/37l3Ys3snFi+5GkuWLE1MCFxqJjAJCHBfnQSVNIZZDAQA+tb1mLj3+4CZkb92p6RJ6UOffr+alSiKQYG+AEypykP68zEpxCSMlPu0sdLG/FuZ+uTG89uC+nRPnJAwa9bQn5bi/OmpBc+ZX5CF/ozbi55G8JzbS5CF/ozbi55G8DxSe2m/twCtl9Wg5oZMObDMz/cqkiz1OHK6CRlhBKHOZzfhBacX56YAlkXFKL0uDY0/3YxuP5CSkoKMrzpQtCxdjs/1Whu809RxITkFvb8tRfF9OWhqL4JZE7YQwKnURchflKZmuBflSRbkvOuHLdCDwOxMmA/XIvfFXOy9+3KjHcxeF5qPZsC+wIOcs7NQ75dgTXbjS2cX4/+ediIzNP+UpiLzKf/7+z9FUv/H9I1pHzzHeuDa146a1ZVw7POidIF5AGAkfgMB1BNuf6FEFH888uOlTLWueI07fKPlq0wg3giIvso6ZsFaCRysRVJSrTyoB6+GnPX3ovnZ9uhhQh4R3sChRoo7yfB34YXTyF8It5AfRtUF4HqxET1qvLm3lcFdlIWcn1K+hdAipspm5WIzmrHmBTegXdMJUd3PN+Ciq2zIs7iw5noXPedF031u5NoLYO6sRM1Br5Jj4vG2sxOuQ264xd9BJ3q8FrpXD+d+8ne54epyyX9//luwoIGuBmxCDeyzKeQlWeigGTYTTd9ZzPopNCWJQG87qvZ4ABLALLDBJASxwy4cgAvlt5Wj8q5ylKwuR+thEX8AjdcnIeVsYn12CnK2UfngRuGMFKRdaEH5hnrikoHaA0fguDQolCkpTf7/efw11mGozG68m0A+bY07+Szwjq8Eqncu6uQjoAlm9H097qtUfaY5NnTsM66uDarVw00ovMkE6cZBd4a4QFNNqIDz3TUwB8Q54PVKSEk7F5mDZRH5/oj/6+9Bjr0G3aeL5ChMs/PQ4u9G44sedGwrxPLVzcGoSWBLUoLB+pgTztut6r0MfPmri7CsrxjIVi/l22BbsAg9N9hQ71OvJafje2vvxY71C1DwkAWOVRZ49rXKN137XCQSeRF4JwDHKy1YYtK0fQJo+GE5yl73whRwo5xC25+sh8ffCk9XD54+aw4+/fAUcm4sxaJ0uplMApuanHbofIbydedzqCqeS0KjH/6TJLTNEiBJOCMZbvMBPxz9tSh8gy6RwGnKr4O/1WFYOdXimkpHHn+NtckzZioPsV23ouI+ftEb2wf7mEDcERB9daoIZT2vVKOAlqdKbDRTYt2EXhqMD7RUD8xQlTwenOUKHGpFiVWZvSp5uBH/XroKrceoenxu1De7ldkwOq/+bo76fAHqd/TSAE9CROYaCliCpNWNcjhfVzMK1ZmwnNW1cNPMj3Ch+fnbJ3QxOwvW2enImJch/30+IwOZ80jyEPHSzFk7JaE51+OFKHlWzPYAb7+8YXA5SPiqtJWgnpYclZm4AjzxmggfQPNtWXR0IevscspPD0oof5u6LCi6IQ95P2zCRyc/AX1LGs6NNtTQcp50WpL/nLdqQplIVXOKECnPUmmXxMSUwQXgecgFR2MlKu6rQNX6KrorjhWo2VAJaxcJXCeCD/neqkVJlw2OZWb0vtEA5Feh+NI0mGjZ1OUJIGUWzW6ZyW9IQ/OYSHhrRu5Dduy90wbnfVXwkuCZd00eMtUJMDnHJMyZTLoZMU8vek744OvtRa/2p8uTFvtkP/L4a6xBnjFTeYiGwXbMjI2DfUwgHgmIvir+poIL+Jxo3dqMssfqUGcmwWRHJfJ+UI2Gzm7kmT2ozFyOXNCM0CqgOLMAgfVNOPJKJlrvyqLlPKBurVjC9KD+IZpt2QC0r89CJRrg8dpIyCpHbp4Fc499hOLGCmyiGaaOdbSk1tuKFGshyp7pgOcaM1ruyELWYpqw6bwVofm56KxuoKsdzW+k04xZQBbqPvjAj89evhx5l5KAlt2MTa+4kbeK9MBIUKu6g4SPffUkuFRi0ffClONWE9zb61G9vQxtboqbwi3//k+wsrAJebc1wLq1BuWdDmSYMlBzoAFpl6XB2+5BldALU0crsXQo/jS/3A76feg57EYPCUj9h3pg9pCw15UG134SNreTfhbpaLndNCNmcsB9zILM2UL4MSG3uQ69B9vReBjwv9shR9X0QiNSSEpKWV+DnHQhZtGMma8TxYvEHJmDZMge1Fy/CQ3vSvKSJjK9aDXn4nvXf9GoY9YvaibofB4vNr9ci386z4y5a62wXFxOunI1YXXl5KdEebsqkXVhZTAScbayAf5fFUUQAI1BJ4uPx19jTbFgpvIQU6lvtu3E15ZPnZe+sarZxwSmBgHRV3ft2oWlS5dODQEtuw5Vt4vlKtIzsuUC//obUhjPIEEnA2XNZciyN+FPeRmkWeWA5yd2kIiC0meceOWFHKVCB97iAfQeEpd60H0sgNwbNpPgVYNkmoWZZaX4yC2aZ4b72Xo6q0DpCiuEeFJIwl5JZiHe+tut+KIINJAfkkFIyBF6V4XXimeCzv4MCY6XZqJgYwVKrm2Gb1UFTDTDRCImarNNaL++Grh9cDl6V9FSHrnNB6qQN5+EnnlV+Nod5bLAZ76UhBX6Z12QKetjmS4tgt+diZ50KnFA6IT9BTM/Mw0uUkLrMXfQcmMa6Z2ZkJFN4Y+2Y01mFVppxg23A7ZksSxpReV9Yg7OhcrVLnhISnJ1FaI40ISOR+zAX3agcn0z0hYqC46ercoz7nd7KGavrHDvv9SOOxfPQeBoD2yvO1G8VQjCFhS3d9MsolwUqicSWAPque5gIn24ymUiblr6pP8zr3OAUoVQNk+/pgpt66vhEzOVugky8hmdtpTZ70Lh9U40TNFlTR5/jdU+0KWNlxPPx2vciVfnXOLJSUD0VaH8PyWWM8WIviwjOPshTDX8xzeR8h/6urHjnaMULjsvOIaLJS99EPnchKKnOuDMz8Xyy5RZFjsJXRtXrYBmAUKRH8QOw2rMnUHCk86JZbsvhuYHYoGN9JykoJ6Tfhdb+uJCUmvPQUdvGUzNNKO00Yl0MaqIBB+ncjyuS4DEEk8/yVgkMOXMHpx7LaRQ9Ndmw0wk/LQ+3wlLvhc/u20zzvqnFNL9oiXGQyaaEaS43qE5rBcaYJ9nR4tkJ8G2EJanfk06Zk8haWUKWloX0TJxO+pIoOnZWoBCUtx3yrN7PhzFHFRtq0JAZemjWcPWm9JRfkcxzFQG1yNZtFmgB0VfSses7CKUUs7rH6W8BTzyjGVOl5Zj5XjuOtWvzWjNXoRMmj2sphm7zHty0PrwJjRTBSSfPR3JZ52CyUzLw0d9sGYHJbOBpVeB533asLFdqTGhbwaaDZyqjsdfY82yYKbyEFOp/K1MY+NgHxOIRwLaMqZ2jMc8DidP1gydijgJGl975A94Y63QtyLn60HnoQAyZ9AyW5cTPhTJM2biVrhhutdnpqVACTU0w+Ta04Sc6wvx5cUf4cfp9EB2iiLMkWCBbFoOc9FymBjwKVbXfpol+kcT/E6aZ9LnR9zOjrKxwGRF6VqgcuMmWEhoaXhH6HtRzqgcX689iFdv+2cRQ7Ac8ohjiWqHbEA4ocfcz1eivKcMZbNteP6tb8hLhe6tpNe2qAmll8oxB/+jnZZOEmQKxBW5XJQT4uckgUawknnJ/5GHZtjuXNOCeTnEnoRRsTQaOEyFp9m1+qeAdBPtEN0qfMvxfz55E688sJzuCUe7OlNpJnO7h5T0yUtCnXdfLTG3orY0GyZpmnxNETsD6FhfAtP6NpjuW47yhXVoy+/Fcns56l5vg2/dcsprDqRsRUcu5RKg5olq9B6rBK7pRuAYzf6tytEJ4JGFWTlrk/g/Hn+NlceCmcpDNAzWMTM2DvYxgXgkIPqq+Jt6zoTM22x4c/VP0H5dA/Jm+1BfNBcl2zfDezqPFjJLUPq4DbU3ZKD93iy8RgBWCgiqECJEj6ZM0j27pwXe9TZkLsykuSlytNNcDkO6Yp2HbbAupAW1rmLaGLAIpYst6NzmQC7teOw8/glmivChjnYcdh50y7a9hIjjOynBTGYcMmgpU8ws5d1UB5e1BK7szWiYJx5WyvGaKMe1jYPKERr9gJ+WBGnOCh0kJGbQUi7NiWHT6lbS5WoZCCKfDEhYIYIK6X6ReIhbtFGNZC6fsP9lCaOQTzNsz9dfhEdqd8JE90WevX0kCNH8X4YIT1ELcdm6pRvbVsyXk9X/Z6Ll1XT1QnoGzXgdsuCiC9KNOmbivsUO23V5SPPZ0BAoQN4KErzRISv9p5C+X8OJYBn8pDPoWk+6dfltsGWY8J9r7kZZGQnRU8wtWLAgYolefTWkrink/v37I4afqjeSxbR0JHceTUdHu69/LpZw8Rzf3r07sW//LixcsBRXXXW1vmhhzyd7eUWh4rk+OH9hm93AxURuf6KvdnTsRm7uEkNfnYzt2Us6Rv2npIH37MXXPYf/uPP7WH4JbfWTXRla/3AbSLcdP3v7TdxJSveWO4Bv3mijux6cf850vPcevcNp9ui9E9Px7Y5f46XcAqQ9pDz9tX/7Db5Pdi36/p6Jb5Jgl3uJE+3Hfo/2X/QgL28u1sjBrPj59r/icnrfu0Lyc8orBIdq5F5mXPYUj/18N20qEDYz0m1YS/7/vTMf/TSenKBzUY5tdxcPLscJNz6m+z7KM2WXCq+MP4p/Dq69nvaOLpqLEzs+wnV/qUX9pc/hQZMfHW+6Me1cCf5PkvDHbhIUz9oL64k0nBJC6XQLLstMx/+2kB7cv96Az9Kl/+mlJdiP/Xi1YTuKv1cn8+19zwMXmfzQ+s550zOw7FrifJYiHJ367E9p2ZF2hV6Zj4sojkW783HX5+fTmTYOSuijzA/kXb4DnCLzIR9/qJRDi1vonf3vu278gZYx+/ccwWe7Sfutuw1OskH2N6q3/6Jr0/9b5Kcbzu50fP6zZkrvDzh8SSZmkmB5imzT/fC1u/CH5y5S8ktt5GNi9R7xFdhC3UC6oTd0/njvH7qsGk7DlS3cNcND5In38kbNH20/jujE55piccePfxpLMCme4yN9FdGzJHEcyk2F8ooyxnN9cP4it8JEb3+R+uqUas9+v+SnvwHnaZPKVtVJntPqFfLTfI7k1AUZCEsn4lm/GtbQXrTnReDTFOZkMIIx4RdaDn0m1XND/uR8if/8UkM+pJp9lL/TR6SKfKv0dfsKyZ5vl+yrHJJjpV2y0Z+drtvWNlFoSQ7f8I5f2vuITX6Xl21pkCqy7ZLz+BGpSt5aCanO5RWRy26gvKe7SYNObL2EZF3fod0eOAbz55c2E/OOIDI5jN9VI1k3Oo3v03eaJFu2TXJQXu0rbYY8F/9r8FrZKttA/gcSpJOmVTQW7XoveMnvlKyokcsZvKicBfMXesfoHyiv8fIg31jHd8UVV0jibygXKdxY5y9SvsaTnzbpGypsJpxfLI2wjlnCVTsXeBIS0JYxteMkLMLQWaa1NGUeRw06i3ZVbqXZMjKtUXGPBdUP0ezQ3b+JaORVNicRLhX9G18ovdMs2Zi60HLEkpicR9rI0CpkJeEyUNXqxFCfFCp6mcLTsydu+A2k25Pkc/yQbITQNSvZPKsQUenLL/zCJWdi80k/fVGAFjTV71nK1wf9Z4LD2z5IP850aRnNhJG5DfqE0oATmxFcYg/mYCdme4b6RKB9i4T8gC4+0uVr99Lu08HR8ZUpSCBcM52CxRy6SOIlzzpmQ3PiEExgogmIvjqlhbJwgJNJ9+i0F8V7OtBDy5odZG4ie95neaDWs9JGM3HUn4swml8fXnceXSALBjSZSZ8s1GlxD+j6hQYYHb85zGefRidmjiXeCGhNKt7yNe75Edt12Y7ZuGPnBJlAVALRFIXDPTilFYWTzbAuI+V9teBiBokdE2ACU4/AtKlXpJGVSLOjIo7smAATYAJMgAkwASYwEQR4xkylLpZGWMdsIpogp8kEhiYw1EzYcGfWhk6RQzABJsAEJoYAC2YqdyGYsY7ZxDRCTpUJjBcBMSP+8MP/joaGbTCH0xcar4xwOkyACTCBCAR4KVMFIy9lVq8HL2VGaCl8mQlMYgKiXy9btkz+a219CT//+c8ncWk460xg8hJISqIds+yiEuAZMxWPLJhVPUjfMEPi7fiK2kT4JhOYvAREvxbf1RRH4WbOnInVq+/EnXfeKfv5PybABJhAvBFIEkbT4i1TE5Gf3bt3Yc/unVi85GosWbJ0IrLAaTIBJhBCYPFXvyxfiVXHbM9vfyeHF/15A82A76Y+LdxnSCC7fc2Pseb2H5NwFsbkgRyK/2MCTGCsCSxZ/BWQEdchP7Wk6Y1qfXqs8xVP8ScJK7eRMjSUQT/tuVgM5omwHJ9GzHhkfkYemo/bi0bCeEyk9qK9nGMVzGpqagwzZEZy7GMCTCAeCFitVjid4qPxkV2kvp8I7z/WMVPbhbyUyTpmkXsJ32ECk4RAlN+ak6QEnE0mwAQSmQALZmrty4IZ6ZhpuiiJ3Ci47ExgshIQu6tFH96xYweWLg2qJIgdmA888AC8Xi/oW3vyUooQ4KL9kZpH1PvasxxfeI7MLzyXRG8vYiZs2jQWPaK9Y5mOSke80Csq7mPF/2ithe8xgUlCIFRA8/l8smCWkZFB5jLWQ/jZMQEmwATikQALZmqtyIJZ5f0smMVjK+U8MYEREggnoG3c+ACbyxghT36MCTCBsSfAgpnKWCx/VLOO2di3OE6BCUwAAb2Alp//LTaXMQF1wEkyAUGAdUCHbgdsx0xlJAtmbMds6BbDIZjAJCYgBLRLL11KVv/ZyOUkrkbOOhOY0gRYMFOrV7yw+VuZU7qtc+GYABNgAkyACcQ9ARbM1CoSghl/KzPu2ytnkAkwASbABJjAlCaQRFt3IxqYPS9Vwod9ozflH8/x7d27E/v278LCBUtx1VVXj0qlx3N5RQE5f2dWzcxv7Pl94xsL5URiNTD76qv7zixTuqe5fnUwRnDK/EYATffIVOU3Xn16MvNLnjUrsuDlD0iIdl9rQydOxBYunuNzuXahmnTM7r//fnzrW8u0ooU9ToXyioLFc31w/sI2PfliorW/yCQG30mU95UoOfffwfUvriRa/5gq5Q1fmxgkg0yV8kbrv7yUqbYG1jGL1C34OhNgAkyACTABJjBeBFgwU0mzjtl4NTlOhwkwASbABJgAE4hEgAUzlYwwl/Fm2058bfnVEEIaOybABCYXgZMnT8ofMB8q11brUixZkk0mM8xDBeX7TIAJMIFxJ8CCmYqc7ZiNe9vjBJnAqBIQgpn4Hmas7tvf/rasU5qdnR3rIxyOCTABJjDmBFgwUxGzjtmYtzVOgAmMKYEZM2Zg9erVUdPo6uqC09mFd9/9E1566SX5b9u2bfjBD34Q9Tm+yQSYABMYLwIsmKmkWcdsvJocp8MExoaAEMximTETu7qSk9+XVRbefvtt/PCHP5SXNcUMGjsmwASYwEQTmDbRGYiX9PlbmfFSE5wPJjD2BIR+mZg9u/nmm+XE1q5dO/aJcgpMgAkwgRgIsGCmQtJ0zMSRHRNgAolB4Omnn8Y//uM/4ujRo/KyZmKUmkvJBJhAPBNI+sj/SUTL//Gc8dHO2+7du7Bn904sXnI17dhaOtrRc3xMgAmMgMDir35ZfipWy/97fvu7Yafy7LO/xI9W30L9/mq8+lrbsJ/nB5gAE4idwHj06dhzE58hk1NMkSfN/IFPEe2+VqTYLfHGb3xfv3aZLJAlSnlF3SVS/XJ5td46+Bjv/XdwjiNfGUn//e7KFbJgtpt+mOmf5/4RnnO8txfOX/h6i/f2HD7XMPRJESYR6jeyVBaJ0hS9zjpmU7RiuVhMYAgCQt/s8ssvl0MJvTN2TIAJMIGJJMCCmUqfdcwmshly2kxgYgloxmZ9Pt/EZoRTZwJMIOEJsLkMtQmwHbOE7wsMIIEJzJkzB7t27ZI3ASQwBi46E2ACcUCABTO1EtiOWRy0Rs4CE5ggAkIwE07szmTHBJgAE5hIAryUqdJnHbOJbIacNhNgAkyACTABJiAIsGCmtgPWMeMOwQSYABNgAkyACUw0AV7KVGuAdcwmuily+kyACTABJsAEmAALZmobYB0z7gxMgAkwASbABMaHwIIFC8YnoUmYSrIw1hbJnZeqGHOLdF9/PVo8Wrh4jm/v3p3Yt38XFi5YiquuulrLcsTjZC+vKFg81wfnL2LTk28kWvuLTiN4NxYuInRouI8+UuIQR+1eLP3j1Clg+vTgM+ineCL83JXj6/XjfXpm5nkmOcFTHwYwXT1XcqD8r+VBfy30PFr+Tn1I+Tov+MSZxheMic5OBfCXXhOmRyinFjZa/uQwxAHETrgzzl9/AKcQzNOQ8VEZzpo5HR9GGf+UnCn/DxkfBRuyvLoIOT4dDDo9efIk+vr6kJqaihkzZhhuhmMV7prhIfJM5vpInjUrKbQ8A35/QEK0+1pAASmWcPEcn8u1C9VVD+L+++/Ht761TCta2ONUKK8oWDzXB+cvbNOTLyZa+4tMYvCdWN5D4fide64SlzhqcQzZPwIu5FzowOZjv0fuPySh941yWK51o+PdBmQmBxAgQSE93SxH3PtWK/7r4m/g6pNP4cJM6ntSKUyH6pFE55LkMBREzl8qSS3JJLwJQU/IcHQMBHwI9AXQc7QbzjcaUXLfX+E82Qor/YA2uH4Xkihf3aedlA9F6BFl8h3zwTxbyY8I335XEtqv86Ay0wt3bwDv/+3v+Ojjv6Gny4nW5k1o7bKizeNEXrohdrx407moyz+ClhsyjDc0X28nNm3twLkXzMQ5Z5+ifIsb9N+sPJTeYFVCUR5zznag3u/ExUc68MumTpiIlYnCaeED5lwKv0guPojnk98owpUvNcMq81D4KuIt4Hr0XOR42yBtyMOJXhqPzCq/CMKj+/FzkdW3H9I9V2i5jngM117CBR6yvagPJXp84T6v9sADD+DBB5XxV5xHc4nAj5X/1RYgljIrKu6DOLJjAkyACUQi4HurEY1vkSFaEpws9E+e9TnUTELZJthWAqXXFSPPQncsaXDJQgng2VOLt/5CMQphi0QN8b97Xyv9X4KSeytRflc5SlZvQo8QxE65UZiSgqSzk5CUkoT6Q3TtaD1SZqQhzWJD1VOtCMyxw3mwDpmqZBI41IikJAov/s7OoQdcyBLPkz/vJ41wvVGNtIsdcIv4hSOhsvxRKwoXp8N0ogM51hz8sqMdBdcXo2deIWq2NsCWX4ysWRS2n/KjxU1H+7NAa9HcYHq6e/UHqcBUxox5FvxpyyqUvOhDGsmCAUEq3QTfwXoUPOwOshN5mZmBTAof2EcsKLzl6NuJAABAAElEQVRlNoWdZUEGCZGuJ3OQ8ySFN7gAGotSkCLKp/7lrKMADy2X83ShZRpxI37XNwpxMOhE2bXym2y4XJ2tk6/p7wWf4LNxIsDjrxF0hN8TxkCJ4BMN4ytXLhn0Xa5EKDuXkQkwgdgJmGebUExCjtVbReKGB29uvhtXPbiJIrChdEMLbPNIcKHZqIJjTQOCk8lEwthZWhopdOJD803NqGhsQ2FGCrx+PwkNJHjRnX4KF6C4nKdbgEcL0KEKE7bHutFyO02xqU58+9CkvsFN84vg9dpkgcfU50KhpRRlng7kmnz45YM25FybAaeX8qOG73mhCq6N9bAGetAzuxBta5vx55t+iofm/w2bM6zISO5A63wr0uXwmaj3eFBPZehYn4aC/3kO3v9bSJk0iD2UcfKbSVJMtsJ+gwW7i4CWnRWwHd2EpA00MyjyfrBdy37wOD0dthuKkNHXgI5ldthXUDhRZkrbfZgE35BkhGBb9CsJthNCOCYf/XU8mofl/hp478vFe3/x44ILUmBOVaVWiqB5dQoKtwaTVM5akVSmu5bfAH9rkTJDp7vMp2NPgMdfI2O52xkvJaZPmMt4s20nvrb8aohGwo4JMAEmEJbAbDsJKFXIWk+zSshBQcFt8JTXwHy4FimXqKohqxrgabSHH+Tz/XC9UoPK7AZ489PgWNaEmn1VJAwpqZ1QE5XFChKGNOfx9MDno5klVSAKnPoU5gs+B7OvHZVPdCItTQ3rbUcrzZhZX2iA60Atyre6KIocdGytREf2GpQu9KCQhMKWd2rReIsFxbOr4Hi0FfWPfgcV+S+iens9PS9cBXo35snCmTk9HSCBr/JRYNtuKzqerUcPlc4k8mJKox+0fpgyC2GX9bkDJJha8O/25/BvgV64vDRl9kIxyt/IQ83FwfLISQz850PrE61o7iJhiQQ6IeR2k2AaKbSYxSu/MAv1A8+Lk+VIe0i7IJZyaUZR9XqP2WlZtgF5lBUhzLmeLMQP++7FW3dfpQiBfe3EpEd7mI/jTIDHXyNwFsxUHpods2T6tcqCmbGRsI8JMAEjgUVrW2kpsYMEmgZc9Nk0dGwoROFDzUC2Aw1PliKDJsDMurerEKYCn2hxBODpTUPLK0Wg76ejND8Hc2/LhbSFZrwiueQUuB4q0AkeSkD7lm40ka5X3iISkGiGKIWW8PweM4k1rai+owRljzWhfcccmsjywXs8gBSLCb07SGCjxwsuodmo7Dp4nymE5xYbZn/fgX+6rxvdG7VMmHRloOXDW2iJdKMT38y04L+PpcEiZgFTzfB11aJ4XTPsjbkkmJH/rU0oIAEO+D5sfhvyaBasqbEGhddWorCTdMbCSFu+N2pQbqEZKxfNWIml07PLtUwMPtLMnBBQa457USPuUnxOmjErJ1/72hy891cJF5xPAjLNqAVmkd6aWg9pYjZPTVvOw2n1nrifnAaTJ3TJdHDSfGVsCPD4a+Sqe3UYbySaTwhj/f0SC2WJVvFcXiYwEgKp6bBemSk0zHDqlBfeQCYaXm6DNTMLllQSGCykq7WPZmjmZCB9FumiLXDg6n+kwGeJJ3ywrZKnheSU8zYcQc29nXSVhDn5Spj/+v2wkVDUcjcpzx+sRcH2XPz69ssHVC/yriNFfF8v2rc3YFNRuTLjtWoz8uaToHTCC2nOXMhhRNSX1kA66UDJjCwU7XEAb1Qi63oxR0bi2qJi0i0TeSS9uO2tsDUfQdWKDLgeL0TxC0DDejEHNR15tPQou8OtKLi2GVUvd6PiOmV+ynxlBW1oqKDNRZ+i94X70LnMAfts2vCQT8LjsfpBK6D433bkXVtN0dnQfsiOPHSgObsYTTQ6hROVAoebkZZZLCdvy7eidbsQM4WjGbP7lDNrPgm5lP/yA34UXapcG9AvU71v087MAScvF4eRGAcC8MlYEuDx10iXBTOVh2gYrGNmbBzsYwJMIBIBHxrvyiIByIFrm5/C7mMkQjzrRsM7PaR1JkQcEhYWZsHxTDfqbsxE+rI8vPXII6j+5BSqFpmw6WGhk0YzTiQLiNk0U4YFPbSGaRXK9qoTMz0psqxAM0TvuileodQ/WOWqd0ctLHlr1Kdoxo4ExFKhmCVmlmjW6GOvE/bqQzQbRTtBRah+H+q/K5YBK5D3fCWqUAjvgQykXdaBjgPlyvIkpW16pB6WOenofbEEOXdQ3uhRP8X5/l+P4PiJJJotAzo3FqB1ZQM2L0yD+6AbaXOorKZeNNJM4v+eNx0nflON6j2kQ3eJCZkrSpEnb35Qs6oe3v+zG7bGbrReRsdMmhmk62UvC4rhndCnkyRFMOx5YxPmbicds+Pt8NyUhp4Nftw8ezqO73kEHfc1kFAmSkwzhanNyJmhLjMPREvLpvcOeADSMWM3MQR4/DVyZ8FM5cFr3MaGwT4mwATCEwiQOYg1llzUZwtRxYuFJVtx84ENKN6fh5ZfLZIfqrcVIuflJli1Nywp2f9HWQdWt38H9XnFsGyhTQK9tLS3Lgct7TZU5pEy/SI7CWay6EQCFM32/HQTzQA1YxHJfJ6uduTMD7+8l35ZHpwHvLDOI92xFBKsUlPUFTsy14EUvP8pze7REqbmAoeaUELCjH0VCVrChMU1VgTeEELJU8i9rBdlazPR/ugmuFY2QfqVnQQWUqo/TTm6npZJ+0j4rCzFS+fI+1FpVk3EWoM1pLjv8bQib103alamwZxuwceShA9TaSPAxelIS0+RTX0ETLSMq2VEPc5cUIoq2WxTJlpfdsByfTrK89OVuwGPLKiFPILAMRdq78pBOc3itbwrYZEQaB9rQNIlxfj7nQFs+LmJdMpKdY850PbuZuSaSWAl4dD1eC5u7X8cb629AgGaLTP1daD4jl5deD4dTwI8/hppa68N49UE9PEadwJWOheZCYyAgG9fC7yPOSHdaiZdqDW0lElLkIsdyM2zoGTeEdStUJYCtZ2FchJiBurrpBy/rAgBWqbz01KbPZkWL2npzUY6WL5sIeKp7hOyVUanxfMyYaXZr4xUUnRf50KpRxVWtHDacRaFE4IJCTHCeY71iPmyAXfyBCngg5Y6VWe61KHYTiO7aO0vNMF9qB3N9nbcv+EuvOyiWT4SePAobSjYoOq8mcy0xBog3TVKggSt2/7/3+M+1f5lz9YCmm+rQcsqTc1eScR2Y5GylHmqGenEpmi+mvixTDjm097T/oHSatlCQJgcub4eDW6/uhsUsCx0oMojhMqgYNn7SokcbvMzNbSpoAMZGhYyIdJBwlnuHR50nHRiEc3oKU7s4qwbOBcnZjPV0UnSMRN6cuJCah6afiVO2E0EAR5/jdSThR5ANDfUffGssLArjOvF4uI1vkW5S2U7ZuI4VB6nQnm1uhqqrCIcl1ejNfjI/AYzGe32MjiFyFdGWh9Cv1Q4cdTHoT/XUp15zXo8Rx5/wI0PISHlPHqm/7O46/CbeLrrI7r+EY5vl8hA/qfwi4dIADr6x24cfa0bb/3PH/DHLqCr/ffIueCIHKVLvRbo/gOOkvXZi2bOR/3eg5iTkykLDW8/sQDNt7yJ58wUH0lcgVMSPulX3tuG/FG6n2A+/jnrcsykjQYkL5JOG2mEffgR8EulXKKUf9v1BL79jdvxNp1/6/Z7EbipBNi0H4+vNuNPM+Yhi2ahcPnDcMwQ6Wnjw6c4ix4+TTtBz0sVcSm8fCdpRuuUKLMWjp6lpdn33/fA8zcf3nqrGbettuFxbKf0tuLv/ltwyzXEzvcXyqvCSLQX12u1yKE8/Z9f/wUr5pwzEN/07FtxFwmtft8f8NprATLv8SlmXrMFH53cQjNfbrxxUzn+s7kBv3zq+/j/XtuKj/yvoPXEAuTOsOH5/6rDt76kSW2UL50LnFbyb8i37r7+dLTbM8enp6uc8/hrZJKcYppmvKLziUYb7b4WNHZLvPEb39evXYYlS5YmTHlF3SVS/XJ5td46+Bjv/XdwjiNfGen7KjlZ0T8SRy2OIftH4GO8RgLH//mQnjHT819Yjpn3JOHc74j8kbmG1GlIoZmynu2PoHirG9ZbzHj49vuQtsqBs35zH+l2WWjZEKgS19aSQa2nV2HzJw34t2vmw5r7z0oh+3tQR7c6vMtVfTMg6axTeK1feW9reVUCT8NpPILfNJ1PAp0sEsqXP/KS1laSTS6XmB1Kv/wqPLKvG7nZJPj1ku5Vbx1tVnge587YhIotbThCyv+d2zYhK/082ml5RN71CUzDhyTJfXIWHfuSkNr7FFIuI4GOXFXnFwaYCb+v60lYFpXj8q+vwDeX16HpdTIgm/EUGYwlY7YkTBWcLXTzhKvC08TowyNtslBW1+mB48oQQUreoZkF2u9KwuLj+A+VqfDi8Nv4Tzr859MuNJQ54X3JKjNaePvvceSrT2DuV/5Bnn0rmh+cbZOfo/9Mn5CgeOqnhnxr90KP8d4/pkL+ePw1tjp6bbATBHiNm9sBE2ACwyJgssLv9aNP3tGnPFn0jB/2p+hcLJGpb9eMFVVwrhjeD6GBfCRnoE5yDnjFienSUnjnCWFDN0sl37CigfJjFmYhdE4M3BuSxZckFWdKtwY/s0Q22ZzqEt5H120kJXlF4Mv4SR2K7tGW/8RzJji8tPxIJjn6fBJM8x3wn1R2RpoGDLkq8ZuvLKOl0rIIP/wy0aLOVmnfFD1xfh6FV2awlBh0/ydnokmb3aJZQiHoDrh5tAngNG0C0F9Tb2ZcU0r3SMcszD0RJHOVFz3vnzMQFZ9MLAEef438IzRbY6BE8PEadyLUMpeRCYwuARMJQX36D2FrOkujm4wxNlJeN8vqI8bLwhcqlGkhRD6HdKGjQYjfJIyukesT/9G9UIFMXI7JhcQ75DNaeJ0APPCMdm/ggu4k2j3Sm7soVLDVPcqn40uAx18j72hN1xhyivvYjsoUr2AuHhNgAkyACcQlAR5/jdXCgpnKg+2oGBsG+5gAE2ACTIAJjAcBHn+NlCNr/hvDTXmfPJVavR7iyI4JMAEmwASYABMYHwI8/ho5s2Cm8pAbRtWDLJgZ2wf7mAATYAJMgAmMKQEef414eSlT5cFr3MaGwT4mkEgExMAgnHgPsGMCTGB8CfD4a+TNgpnKQzQM/lamsXGwjwkwASbABJjAWBPg8ddIOOn48U8jGJARFt/pW2dkTHC0XDzHt3fvTuzbvwsLFyzFVVddPSpFjufyigJy/s6smpnf2PP7xjcWyons378/amILFiyQ77/66r6o4SLd/MIX0vDBB+/j8OG/Y+ZMxSwE128kWrFdZ36xcYoUKpH48fgb0grIsF9E95H/k4j39DeEcBeLi+f47r//fiGgSuI4lJsK5RVljOf64PxFboWJ1P6uuOIKSfwN5WINJ+IJ5bdjxw6574v+r3fcP/Q0gueh/IJ3jGfMz8hD8zE/jUTwyONvkIU446VMVVDlNe4QiZ29TCBBCDz99NNySW+++eYEKTEXkwnEFwEef431wYKZyoPXuI0Ng31MIBEIdHV14Ze//KVc1AceeCARisxlZAJxR4DHX2OVsLkMlYe8XZftmBlbB/uYwBQm8NJLL2HZsmVyCcVs2Zw5c6ZwabloTCB+CfD4a6wbnjFTeWh2VJLP4i3zxibCPiYwdQiIGbLf/rYL//M/b+PnP/+5XLDLL7984HzqlJRLwgQmDwEef411xYKZyoPXuI0Ng31MYLIR+Otf/4qkpOHtIielY/AS5mSrac7vVCPA46+xRlkwU3nwGrexYbCPCUxFAmJ2LDMzG1/84hx8+9vfRnZ29lQsJpeJCUwqAjz+GquLBTOVh5hKfbNtJ762/GqIRsKOCTCByUXgc5/7HMSs2VDuxAkJs2YNb2ZtqDj5PhNgAiMnwOOvkR0r/6s8tDVucWTHBJgAE2ACTIAJjA8BHn+NnJOEEUDjpcT07d69C3t278TiJVdjyZKliQmBS80E4ozA4q9+Wc5RrJb/9/z2d3FWAs4OE2ACQxHg8ddIKElYmTVeCvr8gU+RYhp6Ui3WpQGOL8hWf8b89DSC59xegiz0Z4nUXrRPLcUqmA0VTnBMJH5cXn3PMZ7z+8XIQ/Nx/9BIGI/j2V6GlrqMeZuyPnkqle2YTdn65YIxASbABJhAfBLg8ddYLyyYqTx4jdvYMNjHBJgAE2ACTGA8CPD4a6TMuzJVHmInZn+/xDsyje2DfUwgLghoS5pxkRnOBBNgAqNKgMdfI04WzFQeomF85colMenUGRGyjwkwgfEkcPLkSfT19SE1NRUzZswYz6Q5LSbABMaAAI+/RqgsmKk8xFQq2zEzNg72MYGJJiCU+UOVkYWl/gcffBChVvuFci47JsAEJh8BHn+NdcaCmcpDW+Pmb2UaGwj7mEC8ERC/roXTjrKH/2MCTGDSEuDx11h1LJipPMRLnnXMjI2DfUwgHgmIvspCWTzWDOeJCYyMAI+/Rm4smKk8RMNgHTNj42AfE4hHAuLX9a5du7B06VIW0OKxgjhPTGCYBHj8NQJLOn7804gGZs9LlfBh3+h9Uy6e49u7dyf27d+FhQuW4qqrrjZSGqEvnssrisT5G2HFqo8xv4nht3Hjg3j44Qdx9933Y926+wcywfUxgGJEJ8xvRNgGHmJ+AyiGfcLjbwgyYfk/khOfa4rFCeEuFhfP8ZEisRBQJXEcyk2F8ooyxnN9cP4it8JEb387duyQ+6k46h23Zz2N4Hmit5cgCeMZtxcjD803Ee2Fx1+NvnLkpUxVUOU17hCJnb1MIE4JiL4q/tgxASYwNQjw+GusRxbMVB6iYbCOmbFxsI8JxCMB1jGLx1rhPDGBkRPg8dfIbprRm7g+ebsufyszcRsAl3zSEBB9VdgyE0d2TIAJTH4CPP4a65BnzFQecsOoehBsx8zYQNjHBOKNgLaMqR3jLX+cHybABIZHgMdfIy8WzFQe4iXPdsyMjYN9TCAeCYi+ykJZPNYM54kJjIwAj79GbiyYqTxEw2AdM2PjYB8TiEcC4tc12zGLx5rhPDGBkRHg8dfIjXXMVB68xm1sGOxjAvFKQPRV1jGL19rhfDGB4RPg8dfIjGfMVB5yw2AdM2PrYB8TiEMC2jKmdozDLHKWmAATGAYBHn+NsJKEkT3jpcT07d69C3t278TiJVdjyZKliQmBS80EmAATYAJMYJwJ8PhrBJ4k7MwaLwV9/sCnSDENvdp54oSEWbOG/nQTxxdkqz9jfnoawXNuL0EW+rNEby/i13U4HTNuL/pWEjxP9PYSJGE84/Zi5KH5uL1oJIzH8WwvQ0tdxrxNWR+vcU/ZquWCTTECoq+yjtkUq1QuTkIT4PHXWP2sY6bykBsG65gZWwf7mEAcEtB0y7RjHGaRs8QEmMAwCPD4a4TFgpnKQ7zk2Y6ZsXGwjwnEIwHRV1koi8ea4TwxgZER4PHXyI0FM5WHaBhsx8zYONjHBOKRgPh1HU7HLB7zynliAkxgaAI8/hoZsY6ZyoPXuI0Ng31MIF4JiL7KOmbxWjucLyYwfAI8/hqZ8YyZykNuGKxjZmwd7GMCcUhAW8bUjnGYRc4SE2ACwyDA468RFgtmKg/xkmcdM2PjYB8TiEcCoq+yUBaPNcN5YgIjI8Djr5EbC2YqD9EwWMfM2DjYxwTikYD4dc06ZvFYM5wnJjAyAjz+GrklHT/+aUQDs+elSviwb2jDscYoI/viOb69e3di3/5dWLhgKa666urIhRjGnXgurygG528YlRkmKPMLA2UYl0bKb+PGB/Hwww/i7rvvx7p19w+kONL4BiIIOeH4QoAM08v8hgksJHgi8ePxN6TyheX/SE58rikWJ4S7WFw8x3f//fcLAVUSx6HcVCivKGM81wfnL3IrTPT2t2PHDrmfiqPecXvW0wieJ3p7CZIwnnF7MfLQfBPRXnj81egrR17KVAVVXuMOkdjZywTilIDoq+KPHRNgAlODAI+/xnpkwUzlIRoG65gZGwf7mEA8EmAds3isFc4TExg5AR5/jeymGb2J65O361avhziyYwJMIH4JiD7Kdszit344Z0xguAR4/DUS4xkzlYfcMNiOmbF1sI8JxCEBbRlTO8ZhFjlLTIAJDIMAj79GWCyYqTzES57tmBkbB/uYQDwSEH2VhbJ4rBnOExMYGQEef43cWDBTeYiGwTpmxsbBPiYQjwTEr2u2YxaPNcN5YgIjI8Djr5Eb65ipPHiN29gw2McE4pWA6KusYxavtcP5YgLDJ8Djr5EZz5ipPOSGwTpmxtbBPiYQhwS0ZUztGIdZ5CwxASYwDAI8/hphJQkje8ZLienbvXsX9uzeicVLrsaSJUsTEwKXmgkwASbABJjAOBPg8dcIPEnYmTVeCvr8gU+RYhp6tfPECQmzZg396SaOL8hWf8b89DSC59xegiz0Z4neXsSv63A6Ztxe9K0keJ7o7SVIwnjG7cXIQ/Nxe9FIGI/j2V6GlrqMeZuyPl7jnrJVywWbYgREX2UdsylWqVychCbA46+x+lnHTOUhNwzWMTO2jknqC/QFYEo1xZ77fgqq6wmnTg3xaJ8PgVRz9EAUZ4BCmHTxIiSd6BHw3UgENN0y7RgpHF9nAkxgchDg8ddYT/phw3gnwXziJc92zCZppfe7Ub16BxxPlCL9aD1SLvHBL5WhY3USll/cBuknecGCHWtF4Wo3al4uQ4Zo/fRs4dnFKPU6kUeyVuBgLWZfNp2eL4Es2p1wo73TQxKWGkVyL8rzipHxWBNK/mkmpk9TlvADSEHuskUwqz2qd0c5LI/mwv9yHv7o9mPW4jTULixEbmcLrFpcwVzx2TAIiL7KQtkwgHFQJhDnBHj8NVYQC2YqD9Ew2I6ZsXFE9fX3ovn5bthuzIOJhJuSs7NQH+aBugN+OC4dXUmkd38zus025M1T4j11qBWV+z6HCmrNvnd7gPUFshyV94QHNQstSPK3wL/BpuRudh4ciyox92w3uk/WITM1E1WNGcha1gjJVYTW9WtQ/NxfB+Sw3sMudB7ywGyitOQpMB8sFFPzHicWn07HJ5/Q9Jq4FbAghwQzxfnQdO0mVO2rAg5uwlUPZkN6swBpFgrIPU5lNPKD+HUdTsds5DHyk0yACUwkAR5/jfR5mFB5iJf9m2078bXl/Gvc2EQi+A43ofAmE6QblfseWPH8f72Aq8+fBr/6SICW7iyq8BQhlhFdbqGZp8ABCdo82B9fawTsNej19cL5Ritsljz09vZS3CYUP9uE8sua4botD9mzzpGv2X7iRJupEh7Kn+nZEmTd1EzXm5FkLQa66PSFz8H0aTfqbsxE+pVFqJjdipyLC2BZ6SChzINWCoJ3XHh7xnR8cPIUArNL0fKIKvjRrcDBBqxBBbwLTHA/3AS0OVH/7FG0bu9B5qP1cJoCCMzKQekNmiAnImQ3HAJR9iwNJxoOywSYQBwQ4PHXWAksmKk8pvwad38Pqq8vB5ZloHLdJiq1Hdv2Po4f5H5OJtD7ViNKFxWTeAJYV21Gw8ZSZAo1Kp8bjzqKseFlF3lsqGuvh2OxF+WZa+TnklanwP+Elc4t+OKXMpA+aBdvAM135cJ9XSsqlqXLz7zfVYtrf3U+OrYUIdDVDIe1MJjuI5RuKtDzYiXWds3BYs8qlG+llClPNY+VAi+Wo0TEclkS0miJsGg+8CefBda3N8FynywywZpfDttTclL0nwW2fA9y72rG35/5F1pwVFze3VXKyQ11kOgPARcKZlSiytuCiwPGXcYBXw9cKEP9+lJaqvQh451WeNdVwfHlzyDw308ix+5B4BFttdOH2svWwLalG2b0omGdC/fWliEtWUy3uRAwpSBlFv2JGbj/x97XAEZVnGs/gVg2EsrGYt2teEso3rIRazZCNaGACVrNxj82UktSrBrwfiVoxUTu1UQQmsi9mICfEG8LSfWiCb3aBKsmWC1BRJL2Qndj0Sy3UEI/0E0LdZcS3aVEzvfO+dns2ewm4Ueyyb4D2XNmzpyZd56ZPefZd955h0O/CEydOjVinjfeeKPXtT179vRK4wRGgBGIbgSG/fv3DOFnYqYCNvznuP1wbG1Aw9YSOA6TzdT2UqRNvxXfJNsqa2cdzETKija1wJ1pQO0DaUhJ8sNDdlqOlSl4Ci/B7clBx+vFyMiiKTufD/l1JajMA1qW2kgv5aa/Jux4bTs8SaRBEhxEhMRk2DItsFjMyH2kGUU0VSjoyM51D8L5HQcMnU1IIFIm13uTEY0PpSBlBuBxFsLf5cKvVpZj0qZtaH8IKL16NoqnZaFxTj7poirhr2uBbYJCbm79yRu4V7hr2VeHOEs7ml4rg0IBZSkC04diubNrYy5SHhD0s4CmMtfTPUSWhFQ0HSta4aapS69XgmFcEtJTk+UCDDT9uX5lA5o2kWYuwYcWoVXbXo//3mfARfFJqNiUIrdLZHY+nQ+iv7ATuex8uxSV2fU4+r05sjsZz4tNyPhRHiz8rRNQcWAEGAFGQEZg+L9/z6yjY/IV0dev8DffbOyF4HD5FS74UrWrDNbxdDJ/Pdbek4D6nZ0wdtYC2bWomK9MrRU1OFCbkIb6DwqQsI/y/qMD7Uf8yJi3Hu6bKkgrRkTGqpCW9EmkVusmokdhyd03ysfAx9xa+AQxu60IeGA2Wrx5yDI4seY1oL7KCtfbZZS1BIVzrKRdAnJXkkG9JRctnYWQS79mI8qEDRtdK9tgQ75owDgrUlKJvFnpHoWXUaISmjbQVCQF80XlSoL6aX3WAceDQqsHWO6rh29OKzIurZDlbt5QgQ4ikK61lXCmFsC5tR4ff9yJzs8tqHhOWSDQvLESTXs9MBuTqARlKtN6xIU/f26kqcxOdLSSRo+mJS2kFXN57HDstqOM0oyZhXBsEvUKV4FCeO1TPuWPM0Cgv+9gX9/pM6iGszICjMAgIMA2ZnrQ44UzuUhhNP3q7+t68H0DyRft5QW3J/g8XNvCpQXfI86jqr3dEv5BU5ETx0jUp0I6CcabgZ9/+DHso2hmcGZqT193j8LllKPLMwp3VOzCorunY/bVT4ibcOu//RLP/NgOg0cZNx/R+BlFZf+dynaceJ2mAUlzFRS66HpXfDqemUJ1Nbrx9dH12It1uMYg4S8nBNEpJ5n0RGr/fh+Mx4jI3GGBfD/l8nQRjzopZPfhKNmG+Y/S+biesXvsD43IWatU/O9vf4KCVEEYO7Dc/A38c+pkuW1yf5A2DN1j8RUiSp2fTsDdT/2SbvKj9g+VGDFtMj67yILHf2IDQULTuFTH8U4Ypi1C8fUGjPqc0ka6MWpjE0bdXYT5U8bCd7QN07Mr8f7u+/HlZBO++8j9gKsK/yBMDr7XiLS5aaKknnBRDz4/ffcz5Fp62GVUjZceiQNngylfQIh+TgbyvRRFDCTfYLaX5evd0dwfvTHRUob6eNm16x3s3rMD06bOwvTpN2jNingc6u0VDetrPMf35bHfF2JrEwklAVJf5Wj3RVt5A/0VHtq2Idne7jh8iaYbPVIc9ZXokTj4OoFvf/NrSCKittd1iNJTlK6ivKfpLDEpDt0jklD45mlUjf4LnDvrkXb7XbjlblppSdeQmoDLxRSiXLZyayhWSmoCEaAiPLysEhPMlcj/2Z/wDbrvHxe5qQzSqokpTiJbxITg3NMB85QEeEhTd41kDIyro4k0IxkvZI9DIul5Ey9VzsVdgqy99W+3wrapHfXTnEiwzMY0sgPD5rvw3Nx6SDMUy7LA+FPlNV1GZZAdWE2eGQ9fQnIQIWtamoTxlxbRNGcF2br50bRmMWr8yRD8ye83wECG+61Up/O/f44vfXgZur1tIoZ5GYuxzV2PLMLWT9icjj+JlLuK4T68AJ98IuFrXyXbM7J9s2yuQQZxRuHTzGBKCLjXoBQE5BORPsKQHH9h2jPQ9oa5NWJS+PGnzx5r+HF79f2vxQY6/hg/DTH98Xzi53TuQDn5EV2+fDnuuCNTX1FILBb6IyanMkP6OWaiQjdT9lwDslba4dlehUXv04LBdBPMR2h94wM5qHvAjbxUA5rXFhOFK8D6yTTlSG4wFj/8BjxP58AyzUJrLymIUSOIVFszWg/YkD6BzumO9x0uGGhVpr9bTNuJ2vwwjrcimciKKTMftrY0lLdZ0bQuWdyA5Gl2KiMfNdvTUTjDjNbnC5BB9l+OE2TjJeeI/NG624ncCeQ3jDL+9Z1y5G8tgrvJQvdZ4Hi2FmlXmuWbtx2lOkLDMTEd6UYZGfWXXzoRpQtr4aGFCKJO+xoJzV/NQQpp8dxSCWxP1SP59So0tPmRRAo+AzxEw2jqcnIyjEmjcNEYUY8N7afq9bZjAgLKbRpvQjxpB41ks2YidxnJE0w0FSyucWAEGAFGgBEQCLCNmX4cMDHT4zHsY8kHypB0Ua7czuW/PIAsE52ayMh/kxtp5PNLsdKyoX7venLAakCBqx6vWm5F0jMKNLaVjbJfMsOxFFrXuQAZV5L91olaWvsI3DeL5itDglid2LjQQiouK4qWEH3rKsW0sUomA9l0Oeo6kJY1kdxLiGBFNTlztZJ2zKVkCfNpQNr9VPM9GXB4HWia1oKr5pajlqY/TbSCtG51MfJX0QrQDSSTqwKzSbNWsmEbFs/NwFgDucvw0upL82zYl9iRdmkx1tdtg/u2DBhotwCZS1GN/0yrNNtvjQssIEi6Mgs24pIKn/KjbGk5WizpuPnbl8EwMofsy5L0pCyM1JzECDACjAAjEB4BtjHT48LETI/HsI75SbNTUdeI+k1EQYh0+brFhKUSrPMryG1EGWm7iIAEuXIwTLZj89HTSEw8Kd8T2GJoXDrqJWGvRffTKKqm83X9bHqfRdooYRUmVNFasFKd0txSeSVn8DZKloWNaKXytCDiDjVifZCmJ39EEaq3+fEy/Pv2z5CX2IS4pFzYHqtF+9FGWOTp2jzkP9CMqmWzYX6AjPJPvALDK+S/TF0M0Pm9OpSuLMbiPKEDCw1Wmpqk3QCIuJomkz8zutyxuRgT84SrEbo2JwuTE0+T24sRoTcSJn64NZYXdNUfLjHoOp8yAowAIxCLCLAfM32vMzHT4zF8Y0QWmuhfmSBSGvES58GByFqAeAWn03kwWdNdOh8jSNRLWrIzCmq9WTTV+C1B9MbZ4RNToCHlGCdnoeRlCSVElHxkOZcQRPCE89jqJvoLqTiSDUPy3DL4biuT8RM4+cKQL1GUYUohmieFzlcaUEjbMalqt5AaYzf66quv4v3338ePf/xjGI3C+I4DI8AIxBoC7MdM3+Pn47WqL5Fj0YmAwYJ2Z7uyP2R0SnjOUoWSMl2BgidFIFK6fH1FBkogKZ8xhCDKxYZytb7qipFrDz/8MP785z/jmWeegThnghYjHc/NZASCEGAbsyAw6DTMPIw+A8eGCwJkFp9KxvFMxYdLhw6Ldohfyj/84Q/Jqa8XTz75JJKTk7FixQo5PiwayI1gBBiBfhEQxKykdDnEkQMTMx4DjAAjMIgITJgwAS+88AI6OjrCErTPPxfO4zgwAozAcEZAnsosXwlx5CCbTzMMA0VA/KIXv+Y5MAKMwBeLgKZBGzlyJC677DJZg8Y2aF8s5lw6IzBYCMjEjPyYxY9UXGcMlhzRUm+82D+wr9DfdXGv8GArnM0NJER7eeHaoMncTd7cOTACjMCFRUASq38HGLTval/Zh9Pzitvbu6e5f3tjoqVE63hJz5iFkpJlEMf+ZIyF/o2jh17Ep54AKKw7AK2X1WOkVWwh2WTAo6E8bV+9gXr+D8031Nob2g9afLj2r9a+0CO3NxQRJR4N4/nQoUOyNlpMa4owduxYeTHAr371KwitWeh3UM4U9DHQ77S4JRraGyR6r1OWrxckcgJ/f8PjwuMlPC5Debyw8X/4PuVURoARuAAICEJ23333yUb/gpQJQia2ZRHpwnRAkDIOjAAjMLwRYBszff/yGj09HhxjBBiBC4iAWIUl3GVoGjLhMoNtyS5gB3BVjEAUIMA2ZvpOYGKmx4NjjAAjcAEREP7L2tra5GnLcyVkJ06c6HdxTmpqKpHAf6Jl+fKurxewpVwVI8AIREJA/EATNtziyIFXZfIYYAQYgUFE4M4774T4Ox9BEDMx/TnQIOpdu3YthMsODowAIzB4CAhCdt31Mwdk0z54Ul64mlljduGw5poYAUbgC0RgzJgxeOCBB/qsQWjnDhw4hA8/fB9iOygxhfL888+fN3LYZ+V8kRFgBMIiIL6Hv9n2Dm6cfQNrzQghJmZhhwknMgKMwFBDQBCzgWjMxCq2+PjjMhnbsWMH5syZgy1btjA5G2odzvIOGwTYxkzflSP0UY4xAowAIzD8ERD2bOJlIFaAirBkyZLh32huISMQpQiIqUzhx0wcOfCWTDwGGAFGIIYREBq2r3/967J7Ds2HWgzDwU1nBAYFAZmY8V6ZAezjjh49HdHB7OhECZ92xQUyn+tJtJR3yy3T5KYM1Gnlm2/uPqumR0t7IwnP8kVCZmDpjN/AcIqUayD4XYjv6i9+8QIefPB+XHHFBDgcBwPiDkS+QOYBnHB5AwCpjyyMXx/gDOBSNOO3a9c72L1nB6ZNnYXp028YQGv6zxLN7RXS9yVf/LhxkYmX2Gapr+saNMfIZmMg+aK9PK09ocfQtg2X9kZ7f7B8oSNRicfa+AuPQvjU0O9quFyh+C1efJ9MzA4fPqR7jvH4C4femeycMLD3Qmh/hK9V2fbvbPqXy1MQiObx7HTuQDntlSlMC+64IzNSl8npsTBe2Pi/zyHAFxkBRiAWEJg1axbEQgCxalP4OuPACDACFw4BMZXJfsx68GZi1oMFnzECjECMI+D1emMcAW4+I3DhERDEjP2Y9eA+oueUzxgBRoARiE0ENCezYo9ODowAI3BhEZDdZZSvlFdKX9iao7M2JmbR2S8sFSPACFxABJiYXUCwuSpGIAQBmZiRjZk4cmAHszwGGAFGgBFgBBgBRmAQEWAbMz34bGOmx4NjjAAjwAgwAowAI3ABEWAbMz3YPJWpx4NjjAAjwAgwAowAI3ABEZCnMtnGLIA4E7MAFHzCCDACjAAjwAgwAhcaAbYx0yMe7/Of1qeExPq7LrKPTlSc/4XcGjYa7eWFEzpU5uHU3tC2hWs/tzccKkoa49cbm/M9XnrXEDnlbPtD+FASQRyDywg+j1RrcHv9XX4YEg2RsurKjpQpuDx0+3HcD4xVywwt/0zli1Snvwskt3iO9/0+EPfr5ItUoJoeKI/aQcjAEMZ45qzK66NeLi8yOIH+iJzl7Pr3HMtLz5gl75Upjv3JGAv9G59giKw0EwD1dV3ri4F74o3u8rT2hB5DMRgu7Y21/uX2ho5sJR7t4zm81OFTQ7+r4XKFa298vLIDijhqZUQcL14nFmTWonB7BaxG1RO+ke7vduGuS1NQeNgHm0klZyoR8bY149U/uPGliyLvtAIiR5bb8nBFvITuA1vRMcmG9GPP42ILESapEIZ9NfK5JBXIzdLJ5yf2Fk91dtMlUTUd/X4vBJFztn2Ig7s3Y8EyNxwnGmElAqYL3U5cfGkBXdtD13reB94jXhjHUwM7W1G5sQUGk5GK9uPY3yQkjj4JvzEDhfPS5eoQ70eNLR9pDfWwyvX74fF/CUnq+8W5bjTSPNsgPZWlyEhETZaX8AnXHzr51IiuveEyqGlcXnhwohm/m7+biZkzZwW+e+FboKTGQv/2fAv7QoKvMQKMACPACCgIGK0ofMSLtKQctJI/2r82Poo4IlxxCSloohw5VyQo8Yty4ST+IYJ7dyXu+6EDni4PPMeUP/eBDrjVc5Hm9noC6+TdO6vQcoRuFGRLaJro07VblL4ACx4vRfEjxVhUuAYdgoj5XchNUOtMiEPNPko7VIOEMUlIMtuwpm4r/BPsaN9fA4soiIJ/Xx3i4khm8XdRGqU4kTZmpBxPe6QOzrfLkXRFAVyifGMyLJPM8O+murd4cZnZDPM4M5KJtDn/Mw1p/+kSRQYFP+ryEnCJKE/gQn9pS+nyqtlqfQIrkvf2OqJ5HBgByG4yytnGLDAUwiiWA9f4hBFgBBgBRiAMAtb51WhHOZydfkz4xIuyZjeK0km7JDRV9GcweFGZUKi785qq+1G48KpAWt33imGtK4El5Cl87Ji4P3jaL4Hu8aLhngaU1G1DbnICPD4fTn42FkmiNLrfDxscpxqBtTloEWSKgu3ZdjQ+aAmrkTJMzoPHY5OJn6HLiVxzIRYfeg+ZY/+OhtU2pH03GQ5PvSJbvAm2eXlI7qpFS6Ydt940GeOEhpDqdR0wi8pDggF5L0vI+ugTGEaPkKcvW9ZmYbavAp5lGZRf3GCAUZ2eJUUhhxhHQLMxix8JiBWasR5CHgmxDge3nxFgBBiBgSFgmU+kirK2NAOlWTa0ZBNJCQrubCvswU9YHYHxw9fVoXCU0KnFoDLk02wfnK9XoDS1Fp7sJBRk1qNidxlM3WQaIspXiZisDCNCpwW3uwNerxl//auPbOeUKVRDoglGbzNKn2tFUpKa19NMmj4nrq6vQ/u+51C80UlFpKFlYylaUhej8CYTxb1oeq4JDW30J1dgQzsRwZ7atFrVI03rPjY+BS/okmcjaZWWUED3V8v4aSl8jF0E2I+Zvu+DHxv6KxxjBBgBRoAR6IWA/wOaJrx6gZxeu19CKhzA3EIUzafpvkBuYexOU36BODDB0Im6B6Ygf2NQ4pggm7Ml9ZDW2OWLftIqCc2bEvxwdyah8fU8GEkpV5idhomLMvDZs7doGXof4xPgXJUTRISULPYN7aifl4ysdJKUNFYJNKXocxtJ39aE/yhaiKJn6+FwJpNWi6Zbj/qRYFaol/ftChSba+Fz5qGrsx3/Yn60d51aCtmPCUK46sjfsHYUWctQEQ7SmBWjAs1LaNpUA+kY2cCNowZxiHkE2I+ZfgiwjZkeD44xAowAI9AnAobJBZB8bqynXD5iGd6TpGF6ZQFcXS7k3E62YS/mkJ2XB023lyk2YGppfpiQ9xyt+vRJkI62wCqmH4/6IJ2S4NlNpW33BDiLeWoBsibQjUZB7ZJgW1gE23iloKynDqJinBfHlWj4z25agLDaAUmScPTddYHz+oWk40skYnabDVnWFPg6WlBpXyDbxuH+dciabCRCRqQsXsmTPoWIU2czsr5bDmytRfM+P07SPQ2p+fI0p8axgoXwH2hA0qVJMI//CvLvyUIS2brNXuaEcxlpzITdG13LuicfWeYkNFB5HBgB9mOmHwOsMdPjwTFGgBFgBPpGQDw1441ISqWjvwN7ybQLRLPElKJNTGcabUSlSMsVPNHnN+CW60gTRffKLiOOdNDkoR2WcYpGSsxA2vLS5DuEzZUpMwuOdZVoIs1ZWboBlU9XUirZnVE+oU0zJJtx6G+U73JRtxJEuQlycUQWD7uofmHUD5xULgc+O7dXwZy1WI0XoPa1bSgkef9Bdmte0mIZuh3IXWom7RitBKVc3kMu2Ora0XQ1HS2kiaO0otfcgfJCT4T9miTlyW4POneuxcStNN17tBnue5LQ8ZQPRakGuLZUomVZLfKmGGQbuNAyOB5bCLCNmb6/WWOmx4NjjAAjwAgMDAHiYB17m/HG6CKUzE0mwkRaMuIrnbR60mhMgkUQNzW4djYEtGEiqXVzPrBaIWJKFplRqbnpQISv6qEWWKYmE4EphstoQbK/BosfcsppNQ/k47e08EALBtJ5Ff+kEqUPNMjEz03uOdImC21b72C6mkjfXg9p/dqJGhJ9TEyQfa+NGmuEyWQm2c2wqlOY4m7j9YUom2eBaYodTa8JVx0lKM42KQX73TJRUyI9n/4jTvzf/JGY+N1iNB52IJ2mLO3P1qLYmo/yx3OQYm9B8oSQNvfczmcxhoCYyiwpWQZx5CD/fotdGKZOnRq7jeeWMwKMwDkg4IWbSFhp3mL8+5YPcUXdGljn5sP1dgvybgPqBGdq04hTJ1peAWavVYiId08VMpYB2zykZVOD/yi5zlA1XHKS0Kxl58KemQc/TRv6sm20kMAL0H02WhnpJdL3V+1msunqoPP8SRZYSfuVnOhC8VInCt0qedLyacdxlG8cRYhUieAm7Z2Q9B80pSr7WZPJFmn3QoJ/XwPMt9fgpy2fwSS0hhTM0wpQ5hbt6iFZna8vkPOtrXkaaGhFsiYGuexoIXKW8ZAbLSeIrPW36EGugT9iAQG2MdP3crxw1hYpCA+7fV0Pvm8g+aK5vBMnTqCrqwuJiYkYM2ZMcNPCYjDU2ysaGM39wfLphmCvSKyNv14AREgYCC7i1tB8n32mFCiO2rXI3w8v6r9vRvFX7Lia1igKp6sjbsiG569G5D+YicsM6cj5sxP/72eP4MteCR91bEMlnqb8QPub63FV9oNYseVjfIt2GTj2EdU70ovah8qRvrxQqfukF4732rF/qwvb/9COD9uAPzQ5YLnkoCxki5r2+Z9caDem4KujJ2P92x/i66kWjKIce6uvRcP83+Bn5Kj22DH5FvzjU3Ee8qw/6cM/aF3kxAmpGPs5MOJisn87GYdRnxIIhyX8jfKL8kT443tVmD7nQSx56WPkXhk0/ThpEf5lEmH2UTte3erHRHI+e0X6Rhx1b8RoYzu2FTyKV2pr4X3xB1i7jdKPvoGGj69FxpgcPL+9GrdOUVhbL9mUanWfkftDl02OcHm9MYlm/Hbtege79+zAtKmzMH36Db2FD0kZ9v1LxqERw2e+zyNeC75w9Ojp4GjE82gub/ny5eKpJYljf2E4tFe0MZr7g+WLPApjafxde+21kvjrLww0nygnHH7hvv8Rvx+uanpWVEgeUdjhbdKS2VbJmmqVnx/iGRL8V/KWWzq4yS7ZNh2UPvndOvla7W75Tkk61S58+Cv5s9dL7lOiQEn6/QslkjXbLhUsLJDs2nGuTbLPLZCKlqhpS4qke2+2SkV17cpN2uepg1SmVWpRqxDJR7Y/LWGlQ8vRc/Q5JPJkJhU9ViaVPFYi/eujj8vHkiU2Wmq6XvJpOY9uk2WsbnXLKTr8qA20jlRpA92jtUFk/OyDl9S2FUm1bzkkT6BASTr41nr5Wq3LF7Y/tKqDjxH7IzgTnevkC7kWHOXygtHoOR8M/MJ9/3ok0p8NhnxCggs5XlSFdAgdjcGoUKWKffJ4jjsGO5+bzAicCQJiVeYp9YbxWXj8F7/HmnFxfZRQj0ZaGODrXkT3kdG99tSNt6CaVk1WC7cYWhqd/lPOT+D4YV/lKVWF3WKHVlNWS+S+IyiMmlwIz1ThpDYkGKyo9fjIpkyZhgwur9QrdrZUw7gseXWnFtUdqQ31NAUqh6A2yPFvzKP2ki1daDpdTL6pkK6RA166NhDth1IBfw5XBPj9q+/ZMF8ZfYZYiYmBcd31Mwe0V1esYMLtZAQYgQgInOmTU+QPIWCBks+0rMCNAzyhbZ2MEey5NFIWWpJBJWuh6WHjfcl/ttfCVsSJwxUBfv/qe3aEPhq7MfajErt9zy1nBBgBRoARGDwE+P2rx56JmYqH5kdFHDkwAowAI8AIMAKMwIVBgN+/epz7UjTrcw7zGM9xD/MO5uYxAowAI8AIRCUC/P7VdwsTMxUPnuPWDwyOMQKMACPACDACFwIBfv/qUeapTBUPnuPWDwyOMQKxhIBmwiBeEBwYAUbgwiLA71893kzMVDx4jls/MDjGCDACjAAjwAhcCAT4/atHOU44TdMnxWbs3Xd3YOe772DGzBswc+as2ASBW80IRBkCM77zbVmiPXv29CmZtr3azvf+p898kS6aTJfg78ePw935N4ylPSM5MAKMwIVDgN+/eqzjhEdbfVJPLNjhYE9q7zPhIHBcnw4WlXu4vN7YiRTGLzwuPF7C4xJL40UjXAMlZv3lC/d9E7/WMzMzZbCDH4c8/nj8hRsv4VEhB8L+0wPygxlL31/GL9Jo6Xu88FSmihvPcUceQHyFERjOCLzwwgty8374wx8O52Zy2xiBqEWA37/6rmFipuLBc9z6gcExRiAWEGhra8N//dd/yU198sknY6HJ3EZGIOoQ4PevvkvYXYaKB/tR0Q8MjjECwx2BV199Fffdd5/cTKEtmzBhwnBvMrePEYhKBPj9q+8WJmYqHuxHRT8wOMYIDEcEhIbsvffa8Kc/vY9nnnlGbuI111wTOB+ObeY2MQLRjgC/f/U9xMRMxUOoUn+z7R3cOPsGiEHCgRFgBIYWAh9//DHi4uLOSOjly5eDpzDPCDLOzAgwAl8wAkzMVIC1Oe74kWBi9gUPOi6eERgsBIR2zGJJxTe/OQF33nknUlNTB0sUrpcRYAQYgbAIMDFTYRFasu5uiUlZ2GHCiYxA9CPwta99DUJr1l8YqLuC/srh64wAI8AIfBEIMDFTURXE7LrrZw7ID80X0RFcJiPACDACjAAjMNwR0HwTDrSdA/FNONCyhkq+uKNHT0d0MDs6UcKnXWdms9FXw6O5vF273sHuPTswbeosTJ9+Q1/NGPC1aG6vaATLN+CuDJuR8QsLy4ATB4LfLbdMk8vr7+GsPezffHP3gOvvL+NA5OuvjODrXF4wGmd+zvidOWbBd0QLftp3Oli2vs7P9jsdLe2N1La+5Ivvy2O/zz8wj/7HBuz5P3rLczp3oLxsBYQx8B13ZEbCUk4fDu0VDYml/uX2ykM37Ee0j+ewQkdI7Ot5pt0S7e1l+bSe0h/5eaXHQ4sN1fEy0B9bod/podperb+0Y1/jmacyVZTYxkwbLnxkBBgBRoARYAQYgcFCgImZijzbmA3WEOR6GQFGgBFgBBgBRkBDgLdkUpGQ3WWUr4Q4cmAEGAFGgBFgBBgBRmAwEGBipqIuEzOyMWNiNhjDkOtkBBgBRoARGMoIiC3OVqxYAa/XO5SbERWy81Sm2g1sYxYV45GFYAQYAUaAERiCCDz88MP485//LG9vJs5//OMfw2g0DsGWDL7IrDFT+0AQs5LS5RBHDowAI8AIMAKMACMwcAReeOEFzJo1S9aYiW3OkpOTZQ3a8eOsQRs4ikpOJmYqYvJUJtuYnen44fyMACPACDACjICs1BDv0e3bt+sI2rXXTuQpzjMcHzyVqQImEzOyMeO9Ms9wBHF2RiCKEBC/1IWdCwdGgBGIDgSExkx8L5955hmIKc7PP/8cI0fSptQcIiIQ7/OfjnhRXOjvusgzOlFxVirO+wvRWl56xiyUlCyDOPYn43Bor9ZP/bVV5OP2amj1PjJ+vTE53+Oldw2RU8R+txwYAUYg+hA4LUk4dapvvhFO6tBn7Pl+vkRjeXEShXBgiDQBSIKh/9nOgXvi5fLCYc34hUOFx194VIBYGi/aVksD9RLeXz6BaSzhx+2N9C3i50skZM71+yFmn4TWWhxF+PKXx2LJkodlbZlYDHCu3+lzlU8WKugjGsvjqUy1g8Qg+s22d3Dj7Bt4AUDQoOVTRoARYAQYAUagPwRCCdnYsWNlMjZ//o/xjW8k9Xc7Xw9CgImZCoYYVGKvTLYxCxodfMoIMAKMACPACAwAgXvvvVd2l6ERMmFPJjRkQiPF4cwQYGKm4iXcZAj7FHHkwAgwAowAI8AIMAIDR0AY97e1tQWmLAd+J+cMRYCJmYqIIGTXXT9zQDZ1oSBynBFgBBgBRoARiGUE7rzzTog/DueOQP+W/edex5AoQZ7KZD9mQ6KvWEhGgBFgBBgBRmC4IsDETO1ZzcZMHDkwAowAI8AIMAKMACMwGAjwVKaKOtuYDcbw4zoZAUaAEWAEGAFGIBgBJmYqGmxjFjws+JwRYASiDQG/HzAYok2qc5CH2oMzbU+3Wl+kNxddP3kyRCZxT6T8wVm7vPAnGvsWicqSxQ4ur4/yw/bZST/83QkwBJcRLAefxzwCcUePno64lnV0ooRPu+LOG0jRXN6uXe9g954dmDZ1FqZPv+G8tDma2ysayPKdWzczfl88frfcMk2upD/HsZrTyjff08XIXgAAQABJREFU3H1uQgXdfa79u7P8Luydvh6LbjDhr7+uxOMNbkz8pwR6s/txkl7/o4iUnPQbkV9ahH8e5UV9wQ/gva8aBd8xBUmhnnY7Mc/cgheOFmKUmnSu8oVWckHLO96MSyc9iqZDv8e00aGShI+PTvRhE2X2bvgE3/71bKz52kt43m7RZT7pqsL4mcARFaedT4yA/b11+LA+H+j2Y9QoI8aOJeA/cWH3Xjf82tsvvhPL5/wAX1/1S9w/2Uh5lWJPIgHTvpOOsSqJ+us7j+Kqn6bjyEtZ+PN+P/7ZYkRN5l349ptv4PqvhLwv/9qAS6/y4OjRAp2MvykYgT8Wn8Yivei6PCJyQfujV+39J5ytfBfqO3228kVq+YUsL37cuMjEy0ejtq/rWgOOkZ+SgeSL5vKczh2yH7Ply5fjjjsytaaFPQ6H9oqGRXN/sHxhh56cGGvjLzISva8M5Dl0ofDLLizAT678Gv5fQzvW5/wAq6b8CaWp30HSpm0oSGxGhr0c9g0tyLhcPIOTcHd5AZKu/hr+8tKHeCp3IvE3oZuhEG+AgbQ5X0o9iZGGk0gUceIWZ/r99e+rQcI8us9ZgI6NOSj2V6DxR0DuRcUo9TViMgb2HO8LP9eLuSj2lqHxQYtOPv+xDriOeElLpKjIDIZLUAYnbD/bgl23TUbSGOU95CdCZJliCatN8vkNuPI2K1wJCcj8txoUJVyF/7ldgo14rPPFKvizC5F+KRHfKQZcTu8115Zi2H9qhT375/jB3VvhbGsiMNfDJxXCe6ANv/vjx7g0kfLLKjAvrqCrbzicuGW0WcGeRPX7zfgWETNlXHnx33MrUbbbh690VmL8KiukJhuuuMIA42UkP7lb0saf8/U6ONrqRe/hV1svRoLJAku8wMCDza8BH131HCYdSYKvy4Cc++wwhdGenWn/ypX18RHt5UUSXcNUu97X+NPyiGO0t7cv+cIMh+Cmxc4525jFTl9zS4ceAppGTEh+4sQJdHV1ITExEWPGjInaxhgm2eBwb0Ppi24YbktGQrwRhZuKMPue2aghqW3PbkPFbRaa1qIZPXoSG6fY4XPV4ydbXai55yosfqV308xjimF91gHHg9beF/tLEVqgtp5MbvVU5iXiTaBqiXpynMUZkUmt3OC73TtrULDSieQrDeh4pYEoGWBfWISCY7VY/gRt23OJyO1Hx34ralvLgM25SLmnIbiInvNVCVisxnLMOXAQqTQnOmGm/J5niWh94EDl45UoXkW1pJah4rUSJKMDpRdNhKsuS56qNF2fh3+9tBHTJ90K89wCmElqQduw3wmn0QWPl6YbxxeicY0t4CDV/0Et1VsCz1QDXE8T6drqQM2LHWja2gHL2hpcPtKH0+ZrUTgvHehyY8GyBthXVpPOzQffMQ88iX74vC68ATvWW8gTfrePOt7U99RpT6v5LIYQ4FWZamcLYlZSuhziyIERYASiC4G4uDhof4KYffzxxzJB09LEMSqDKQtlj2ZBaKuSpzwKp9cMMbFlW1IGm78JE81JqNmnasYo3TDZjiXz7Sh8WYLP44PYylj+8zlgT10PD8UDpOyjVpR+L03BxVqMZrUc774mFFs1vNKwttGlQBPhZ7iBKEnDf5bi4oSRVFYu6vZ0BqB0balEmoa9dQEaPvCq1/xofbE0cK14XbOseArcSCf+D7cgJy4NNXu8SJ5TBoezEfUv18Oxv5oIUy3qN1SgekM9Nv/il3J6/cuNlKcMFtJUWebWwneCCE3Q3ycnPkXLaiusq7fB51OueTz1sFJ+05wKVGwlbd3mZuD2ybAtaoLvFGF1fz0mXkRYECnr3OBA/TxLQES/t4MIYhHKVpag5KkylKUCRUvLULKsAqWUr2ktTXUGcntRdfVi2Dbkw4hO1C51omxTLpJkDaATfkMCEsYlIUk1ArTOy6eSC1CYbYbHmIOCeVlIsWQhY7KZSkxCRmYWstLFX3KgBj5hBDQEInxVtcuxcxRuMnivzNjpb27p0EBA2JaFTl2I76r4Ez+ign9I+fyno6dRfhdyE1IgdD4FdQdRPU3sFUikYooVhoWk7TInwzLVQq/uSkVjEpT/1qoP8fqiS7A4yQzrbg8Kp5LNkxxoClM9Q3cnVkz6Dv5jSS3a3elwPTsRsy1euE8UwmzJgZ20ce55KejYWoGMex7FXXc3ooeSaIX0HEt/Dmz/4COcblmG2dNsSPY4YD1UhRR7MdY3tyOXbm5enYLc+WRf9fb96Hy9jMotR3VrO3IMLpits+Ed7yYyQk0zkpSdzbhk6l00VetAQUB+tT4yfEebA60fEBZk9+X1SrR1Txwpj2i6z6S2UBAeuiYb7Qc0eTRlaBTExkxTuUo+NTelkTZyfzuce2tRsyOBZPCg7HYbyrfSdOnCChQtyqLyNBwVOQzjM7F+5ato2lQHJPjQ0kbp2+tRd4DkI/JUsSlFxruLYs6n81FMR3siNe3tUlRm10MiAi2C58UmZPwoDxO6TwcclHt/W4PKuXaUGtyo3OcmgubB+rn5KG8jLd5sG8oeKJBJn3urG8WuFuRN7mmJXCh/xDQCTMzU7hcPet4rM6a/C9z4IYJAKCGLSrENFtSf8sG5NgMF4s0uws3iha8Ej3aiHdX8zTRN9/DfRaIJ6121SCAtSxqRpHQiBMHBv68R/4FstK/OI9sl0jCtdKP+6nYiOma0NDtgmWElquKHwZpBt6kas+ACgs6FVqh6cxmum0DE4qr1qHgggbRvXljHZ2Fb60FkXU9aHZqitGaWEHERN/rRvKwc1g3tKLieGBtRPndrPdoTiVyQzVTT5irk3FMJLHsP9YKEhgSvu4NSmlGxUhyBf5xMwkev1cC52gHpUSW//0AdtZ0M9oOD/SW4y/PhfITIzUJRrz4YJlmQTpOW+AtJ6KUJ1cn5aFxWA8t4MxK6WoiwtpC2rhDJ45MhuOM7P1+Dpr1eInGCNCtTmdYjLpr0TKKpTDc6WkmzSdOSl1J7XR47HLvtKKM0Y2YhHJu0dik6tR7NmiKTe28L8EopktTp6LjttZCcDiSTJrN71Rv4l2lRquHVQ8qxQUKAiZkKvHjY816ZgzQKuVpG4AwQED+iduzYgVmzZuk0ZmdQxIXJKoz0ZQ0PVScUIr92oHm6H527nejwksbI45VtzcgiSQmU32yyAX9ToobJeXCQxqnlgBfpqaKAoNe//OTOoKk07V4T7PNMcsTgrUHSRWnqBXGw92jaglJ7Tm3ImEQxVTNlzgYqdnegZGoyvM8XIC49yNYruzZwm22SIDRKMF1PBux06nJS2tZKxV6L2hcudLxXj4LXmlB9myKvrBE9lo6c13tyi7ZLUh78H1Qh4WoDGewXQCKNaMKRX1D5boiS9fovSvA6UXzlAprKfBr1z22XDe1da5rJbk1YvRGZo5B2ZTNqhYbK5IVp9iKU3XYxkVm6EO+GcWMTaTOLkX8lldzlREp6BToOFODLxsuQ9xRNQJMsAkjv3iakfTcYX7qfpku1ULvXh7z7GiEtpB5rq0Lu2xloFISTyqxqI0m+PQL/R8sspmxfzuunf7TMfIwVBLSvday0N2I7BTHjvTIjwsMXGIGoQUAQsxUrVkCsoBbf2yERiFNd82A+Fv9oOhmrN8E4rQBFmUTcVtXIxv+R2mClaThZN+PvEPqvnmwyiWqBh47yij6a2qxZVospt5lxvb0U1TT9mJ8uVje68C1addm3H68mdBwDJqhMx0c8Jnm8Ea7N+chdZsY2l5uIG5GofUSS5pPBuhqctMJQaPZE6Nxeg9rONLKbo5sf2wbPIj+SrshB+RwPSjKDKJTfidJlZNnlUe6Tb6YPv5i2DBfElGYq+fyia3LNk7JoutQMx7EiZI2j++g2MavZSVOH5vQFsKZSxk/NKHyqGJbHc+C8nWzZrqf6u2lqeVoLamlFqoGQbHq8EBu6JmBKYhyVIVa5khaQbnVupGUZqSb4jwki50SOpRANH/4Sc0hcIaFYKWu6qQjuw4oLDEO8B1XZVNfmGqQlnIZh5AiakiWBxBTtMS9cLlocsHQxcpYSPXZ6qO99ONY1ilZvHkedjaZLb6I+onI5MALBCIwIjsTyuTyVyXtlxvIQ4LYPEQQEGRsqpMzd0UQG/+S4lGiFyTwBpnEmJCclw2z2o2F1sWy3ZBnf82oW+ff+RWh41EC2Wgtsuci1p5EWKkFLhWFSGm7GVtRsJsNzImeuVyqwYFULRl0s6IsVyVcLUuZF07J87KU7OzoDt/Y6EbXnLKvDcSqn4+0qLGgDCmeI6UuR1YIUImWGLhcq59NayLYOymeAdZENTffQ9GMnZSJNVUXWAjRTughWsxnG8Ta0VmajNKsALrkc+RIaHqJ2EHHLCuJq4oqf3IEEtVrJLD4FAW1rRvOeZvxs6aNo7jSi4FkrZj8vpmf9qEqIQxO1zfFyA9aTPZ7jddLobfPJomc9VITi9CSyGRMFiaAJYoDtqXosn0UrZRPM1BdJMCcZZJ2abXIykpIofoWwZbOh/VQ9ZnxVvln5kIswwDTeJP8ZTcnUrwYkTzDhssvUtHg/atITkEQ4FOZVwrpwPcqI3BZMppWa5Orj4RepPRtJM4dqNIeZ6g2qjU9jFAHWmKkdzzZmMfoN4GYPOQQEMRsKmjLnuhzMXmWn1ZRpyN1fhO/fcb2scTHfVgobuc4AGdY7vleGZNV+zEm+xUT+/Ck3Iu0ntai9zwazwYy8HwlD8UKUXplC02FemsYjI/hEK1743UuwXZeGhHuULqxudSP1Kh8qshdg9qXK1JrtsTIiAOQCYr8XWYJrpPbubjEhaT2SD/MYxaar4i2yKxPaqMwioiazYRYaNwpFq8nGjHyB/e/ff4I595F8LrJ/M6tkcWE1LTawwPO8nFX+uOaBdSgpmoT8p1vheCKdtFFEMDeWwH0qqyeTIF7UoqY1tMJzXo8j1o4tpZhIft60ULzaiHtuyUIyGYclz68g2/x8NM0oRi3pz5pIVtOaRjmr/4MejR5oRay7uRYOoY3ze8l2TCGOWplJkzJh+yZpuJQ7Uba0HC2WdNhmEFDdNrIvS5Lt90iZeIbBgILdEgrE25VW4+bQVKZ1sokiJlR72vGzFfmY/QwtSiDXKSH89Azr4ezDFYG4z3yfS8O1cWfSrnff3YGd776DGTNvwMyZs87kVs7LCDACFxAB+bu6cwdmzJgVvd9VmjqbM2Y+nvTswTXkVf6/n67EL361Br9+PwxQj/4Gny0zIZ3y/1TO78Wv1pXj3x9fg57sYkJTsZOC/Zf4rHZOoCB/F01yivm8oJ/ZIk3M8Z3Jtj+R7glXfk/l5O+LqI2ovq9wfMcTMN/iRGvnG7hmrJqTMJo3Zgp+JaLXPA33bx+Bdsn/tw4cOkarKy8nT/1iUUFI2Fe3EGkFP8cdNR9gc54lcNX/4XO0GtSAT3z3K4SL6lhEdbwgctDigU9q54XQM+DQy48i5YdrKIMVTUf24IaviMy9g/8Pa5DZmInWx0RfaMGPn11/F65/h9rVW0yEvwc4/r/bcW/qjfj+B5/j7m9oZcXGccZ3vi03dKC7eex8739iA5jgVpKPnIhBkLaBBLGt00AClxceJcYvPC48XsLjEuvjhaYxxY9JSRyDQ9SNl1PB0klSv/L5lPzDtX/Jr1jvQGlHjpzd+4N8nIUpz9erPJEvXN5Af5xSroeVj2oI9Afl85zoXaWkihEoLziLKDtEzJ7ygjP2Pg9bXu9sPfKFuRacFC3lXXvttZL46y9EyhfAr58CoqW9kcTsS76g31jBdC32zsVUJvsxi71+5xYPPQS0aUztGLUtONOnaxiNS9S27SwEC6u9I4xGjTqLwugWQxhNmti+atQo/SRQ2HzBVYrVs+p0cnByr3PKZwyXr69+E2VHGgeR0ntVzAmxhgAPDbXH2cYs1oY+t3eoIiAIWdSTsiEIrpiyTDBc3Lfksk1YmCwiPdzbRBjLhxAXeWo0HKkKLlYrj47yllUhZQRnDZxrSzQDCXzCCAxNBEYMTbHPv9TiQV9Ssowf+OcfWi6RETivCIgfUcJdhjhyOBcEhNuIUlrpSGUIe69LR8NJRMj7ejFtzVSOTkGOQkLrsjjMa+gISvWj7nu05dG0Ktm3WNAFYlROciGRBqcgZyKI8miHg8VjElC3T00MrkM997fRNlBrFXs6785SWtwg72IpFxH5w4tyWvFYTts/cWAEhjoCTMzUHpSJGe+VOdTHM8sfAwgIQvbkk08yMTvXviaSVLqKtlOiVY1i0+1f42kkk9bLeFsFtq2up9WYpejQEScXylYBj9xMrjTU0Pl6KfL3l6DsysUo2CxcWAQFmsYjZxTKwgBanRhHTljjaJsqsYF7viVB2ePzolz88SQlCBJ3UQ5cVJ9Bvk8px/U2rcycRG48jtBigD91wLWvA14hE62ydLU54frApfwdcMO60opSIoh7XWoaXXNSns4upSz+ZASGCgLhlM9DRfbzKqd42LON2XmFlAtjBL4QBLRpTO34hVQSA4V6P2imdZ60ZRP5WXO1knvVm01wd3bKU4dp82tQsjQNzW1EuKaaZDQ6XyeP/isd2HC8GXVvT4TtCifMtzej5QRtGWXIRc5FRLosHhSk0mZQ++pwsbqlUlNcMfkDq4C014+4pUnwNZGn+84mxJlL0e6rx6VdZBOmkjFNuabMf3aikYggUkuRu5XWpBLJEkF41rcbmlF8Xw0MV5K72P0NaGqjNZVzyWnvwg6sWfEovnSJMvfp3+9H/uZ63otSRo4/hgoCTMzUnhLEjPfKHCrDluWMZQQEIWNSdu4jwL3fQ57ynci/tFhxxHGNFfnZtJu5GszZtAn4tFJk+Kph6XaiwE7e/Z1F+OUTN+Lh/0dbR5FPMzxWDyPtL+kiQ7Ki1eT1zJpE+5e7UTLDjvZdLyFleiXq9xbD7O0k7VsSbaeUj4Y2K0ykaUN2IUCasOMJEyCUdsHBQA6+xH6g5aiAj+oUNOuFW+LwaQVtdzRFxOxodCqbiItp2BzytVbxMslJV0I3vQ8ul88ZgaGAABMztZfEg573yhwKQ5ZljHUExI+oIbFXZpR3lGVeGRzzSEiZ2KRg8a/2IPvrZN0SPH2pviE6366X979sspKT2ykb0f7KVXB7S9FJm4+XLmtCktEDD2jT891FpOwi4kQasAnfSiUHtWZYyLmqh4jYxJVO2LOJ/FEZNtJuFSQ20b6UVfiXll34xmXBYNH9HbSv5JYFlEjbH5E8ybSLQeevs/HtXwhS1jvQ1ulw/pY0anS50yvBaCQHu+ScV3Hs2js/pzAC0YwAEzO1dwQx470yo3mosmyMgIKAIGZDbq/MKO68ztdrFNI1YaReytRq0laJvSXJZ/1NZbSpeDEq45KQ+PMCIltxsnYK16cjT39XT+y42KOgCSlkO+bw0Kbe5BO3kxYWNCSWov5l2lhdEMA6RcPVc5Ny5j/QDsO8elSPz0Ux3VN/Uzseoxrd4dxVeN3k1R+oX1OGejr+g2zWvnSqAQ1b19Pm54Wy/KHlc3zwEZg6dergCxGlEsQJZ22RZBudKOHTLmVrj0h5ziQ9msvbtesd7N6zA9OmzsL06TecSbMi5o3m9gqhWb6IXTegC4zfgGCKmOls8RPf1V27dtD3VP9dPdvyIgkYE+XR5udPmb+GtQTCzZV78NI9aTIcv3liBGr++UNsnt/jVX9v9bXIqs1D89NmvP5bA2766lbYCoUpf0+4cY1yzx9fvgvTCxvoghWb39+Ff3rvB2q8J692dvWq36P5XgPmmR/FiqNv4Ou0KvPePTZsXkB1f9yAS6/5OZbMd6M9dWNAPu1ecTzZVo7xm9JxdE1WTzJpAe+7qRk/3V6ISG7SYqJ/exCJmuf9LbdMC5JKOT1x4gS6urqQmJiIMWPG6K6/+eZuXXygkSHdv5G80or0vjzTBt83HDzxRvImHtxO7Xw4tFe0JZb6l9urjd7eRx7PvTGJlfFysM4uIbWWPNq3S3fQbgplb7VL7W+V0Y/1Aqk92FP/4XrxA17+y394ndRy2CO1b7JJ1tUOBTzK69ldIdnUuO+oW3Ifek+ywhYop2U13b9km5L/hIPKomvkFV8efx4H5VXKF/XYNrQHOqVlpVWut+lIuJ1ofFJ1KqSSZk8gv1zeKYdkT12vOeUPXAs+4edfMBo954PxPOD3bw/+4oynMlX6zTZmA/0dwvkYgcFFgG3MzhP+nc2YmNeAxsNkwE9ThM//bh0uuS4FZJaPorfc8gbegZrG2yGdIn5Eb4xjnT6cIGN+r1hCSZuKy4HSjYk9W3Ibxpkw1vA3sjAjI34xZRnvh89QAuva2ViQVA3r4QUgUgcL3X5MdWeRu6QCFffYkeypw+I96vrMY62oWaasxnxsw3Zkr5it1Kd+dmxZjAVtZXBn9tQtX/J75OlNXWaORC0C/P7Vdw0TMxUPtjHTDwyOMQLRigDbmJ2HnulsRa55Ngoa2mEzedH8YgVm31MO22PVyDe7kP9dM1x0XrYoF9bxRHq8LtRtrEV9XTmtqqQJypWNqJlkhjMvBbm7aXWklwgYua0wLGrvEU544g8EA7J+VIoqYycy7lmgpKbWo3lOMr5lHEuszoqSNcrm4P4PTHTdj84P6mC+Oh8Fm9ohzQUeJh9ocaca4XvKJtuNedtqMJFWijYeliDukIMggRRcW6rgvFKxj1NS+DOaEeD3r753mJipeIiHPfsx0w8OjjEC0YiAeIiLoB3lCH+cEQKde8lv2bMOVM9JQi4Z9Ddkl5AvsL8h+5pL5HLy5hWg7j9LkXbFAtS6yEVFohtupKD4xYN4dtwEXG6Kg2tjFbCkFmX3W4lGEZVyJqFMVqPRecCPWQlqSCvW/EgcZgtDtrkl5ObCDVuqCa63a5ByZRKeafkMPx6XECR/ApqWZsC8FFjf6kbh9QrtWuX5AIlJU5BraUdjthtJ1gVYv9sD23jtVtqFIC8B+a+IuBXbjpJLDw5DAgF+/+q7iYmZiocYGOzHTD84OMYIRCMCgpAxKTu3njHdVEIrHZUyak/45A3Bff7TPYWOsyDvCXLM+hhRLnJ9AWSh6FHl8rFjwuQLsCyklZZKkvI5pRqNatwwOQ+fnfg+EhJHyCmmlR74Vht1G3pbbiqg6dF8HPPqzfMNU/IoXV3rGfyGMlhQdspH5ZE88RaQAZl8qlYpp+fVSZi11ofLLyOiF3xvTyY+i0IE+P2r7xQeuioe4kHPfsz0g4NjjEA0IiAe4uzH7Pz1jKGvDcVlUnaWdQW/Xcj+TNC7XkEuX0fvlCzB9wbfFCxPuALpvlGjBHELvonPox0Bfv/qe4iHr4qHGBjsx0w/ODjGCEQjAoKYsR+zaOwZlokRODsE+P2rx42JmYqHeNizjZl+cHCMEYhGBMRDXATtKEf4gxFgBIYsAvz+1XcdEzMVDzEw2MZMPzg4xghEIwKCkDEpi8aeYZkYgbNDgN+/etzihJM9fVJsxt59dwd2vvsOZsy8ATNnzopNELjVjMAQQED+ru7cgRkzZvF3dQj0F4vICPSHAL9/QxDS+5vVx9gzsh4PLTYYnpFF3dwfWg/oj9wfejy02HAdL5G8hA/X9mr9GXrk9oYiosT5eRAeFx4v4XGJxvHCU5kqUeU57hDGzlFGIEoR0KYxtWOUisliMQKMwAAR4PevHigmZioePMetHxgcYwSiFQFByJiURWvvsFyMwJkjwO9fPWZMzFQ8xIOe/ZjpBwfHGIFoREA8xNmPWTT2DMvECJwdAvz+1ePGxEzFQwwM9mOmHxwcYwSiEQFBzNiPWTT2DMvECJwdAvz+1ePGxEzFQzzs2Y+ZfnBwjBGIRgTEQ1wE7ShH+IMRYASGLAL8/tV3HRMzFQ8xMNiPmX5wcIwRiEYEBCFjUhaNPcMyMQJnhwC/f/W4MTFT8RAPerYx0w8OjjEC0YiAeIizjVk09gzLxAicHQL8/tXjxsRMxUMMDLYx0w8OjjEC0YiAIGZsYxaNPcMyMQJnhwC/f/W4xQnnavqkntjoRAmfdsX1JJzjWTSXt2vXO9i9ZwemTZ2F6dNvOMeWKrdHc3uFhCzfuXUz4zc4+Inv6q5dO+h7qv+ucn8MTn9EqpX7IxIyA0uPJfz4/RsyJsL7wlVSY8lTcCRv4uHwiUZPwcFysnzBaPScx9J4Fq3m9vb0ffAZfz+C0eg55/HSg0XwGY+XYDR6zs/neOH3bw+u4oynMlWiynPcIYydo4xAlCLANmZR2jEsFiNwlgjw+1cPHBMzFQ+e49YPDI4xAtGKANuYRWvPsFyMwNkhwO9fPW5MzFQ8xMOe/ZjpBwfHGIFoREA8xEXQjnKEPxgBRmDIIsDvX33XMTFT8RADg/2Y6QcHxxiBaERAEDImZdHYMywTI3B2CPD7V48bEzMVD/GgZz9m+sHBMUYgGhEQD3H2YxaNPTPIMvn9gMFwYYTo9sPfbei3ul4idZN44i9SoHK91AxjotIOf5cfBvU80i3DIZ3fv/peZGKm4iEGBvsx0w8OjjEC0YiAIGbsxywae2YQZep2ISchBfkuN64bMRbjjHFw7nEC8SrBIcKDeCOsqRYY0Im6tTX4Y5eEMYlxME8tQF6miYTvRJXVjMWZjZDW2Hoac9yF5tZOIn1q0higNX02Sheux7Z5lgDROvl3CRNmz4bFqOY71oSESxtw8FQ18IELZqq7Y20OXrH+EstMCT3l01nnb5vQMcmG9GM1SKIifVIh8L8/R0JqHCSpQJd3OEb4/avv1RH6aOzGZFVq+UqIIwdGgBGIXgTEQ5yW10McOZwZAq51aYh7mghLH6FzTwOaDxCROaPgR90DcYiL6/m7OGGkHM/Z6DqjkgaUubsTDS82Q5Oy45VKNMGO5kfMmPTNB+Hye+F6ux5p09KQtrAKzXSeMS0fLllj5Ubt0hZMzkiHZ2kpHKT5EqGB7l18ZRmKiDzlbgzC6KQXzjYnXPtcyt9uFzzZdMPGZjiJcIlrzjYX3v+DE+4uuSj5w/l8KbCyEMlwYqK1El5KNRgNGDVKY3g9ed07q9ByhOIykSRNHJ3u+30TfS7AgsdLUfxIMRY8UImOvrRtPcUNuTN+/+q7jDVmKh7ywChbgfiRbFSsHyIcYwSiCwFByJiUnV2fJGfXEBFJ7vPmxmm58O+VkNVnrjAXiViUvObAYqsRPmJM/pOnYRj5DySYSAV0vsOBeuTeY4A0n+o50ISJeTWo3n0Qyds7UDMuE0nxJuQ9UYqOZZVI3lqNPBNNCS7LDUhhyM7HHbPS8SfYkGMVpCwOudsr4HEWwei3ITchDbn+FtQ+mA58NR1FT0xEaZwZ5dl2FIwHHFtFUR1o2UsEzutBx34LaneuhCVRrcLvROlSJxqPWuH/oJISa1CzMQu+LR14/5uVGLcvgaYsk5D/ozyY6C1soClYQ+BtLLRpXvyqYAtK6rYhNzkBHp+PNHNJSFKLH24Hfv/qezTe5z+tTwmJ9XddZB9Ng9Hnj7iBgK7EaC0vPWMWSkqWQRz7k3E4tFfrlP7aOlz6l9urIdD7ONTG87vv7sDOnTswY8YszJw5S9egITGe/7QFc9b4sblqnjI79qfNFIcc73ztCTz2YTKuP7IQj/0cuPn+dVhVuQiT4zvwH3c9Cu+3kvB/n/45lr/xEf411Y0nH1qIFQ1EDq65H03/tQ43fFPRxuxrfA733fUg3ocVq2oW4X8bO7H0vx5HwvuN+O/P52HyhC9j32tP4b67n6A8VM+DG/HTp+6HZ1MR6WgoXB2H0W2f4m4q733Kl075RLi38jdYsygTvq6DIfIcxGUfA5dPvAZjxwFj5dzax2k4Nz2Kx/5kw5bHMpXE462YZ2rAcs/TmHzSiSdzw7SDcJq3zIWbp3Zg0eMyGNjyH+tw8zc68JhlsVxOXIEB7oeUIl8pnYhf/9qKO/AD3ELc894PfoBXSN7n36/GffcuxAt4Gm6clp/vn9OGN3+h8l+xZ+OSf03CIioeKMb3b9mGzs5OGZNrHsrAnaM/wJY8C3zej/AG5Xi+dCWuo8b9r7kDczxFKP2X64FP25B2XTmOd68MvDt+tyoNTde8hF8mnsab64px87KX8I2xEvYlOHH48/sxcpQRF48cCz+9f31EyPynJJwiIuuLo/fozZ/ht/VPYwXd784ai/9zcwNWvfcTTBDErZvyhGjNhtr3VyAdGvj9G4KI3t+sPnY+PfuKkrk8Pb5ajD1La0jojzxe9HhosVgfL5G8hA+V8eLbW01v32rJp3ZocLx9k138wpWKNm2T2vduk+x0btvQLkmn2uVzoEiq3VQtbetwS/9K17CkVmp3u6VtGwroPqvkOCFJvr21chllDQ7JTWXcKvLBLjmowvYNVsn6LJXnbpTz1O52S57DLcKKSULlHkk66pBK6LyorkXyUH73WyVKvtZ2ye3aJue7etXve8tz2CfVZkOyP1srbXtrm9T4WqO05Zdv0HGb5DklZBJttkntaqMP1ol2rqdrbmlJpHa4lHbIbdzvkNbaScbsWsLNJznqhFwlUst+j4xibXaB5CDZC+bWSh++u5HkcEgHW2ul+r0e6eBrZYSnI4C35KN8C6ulpqpsBVvti+XzSS2rrYRpo+QjmbWgfN88UuOzFVLZyjL5r4DaCqpTi5etrpU6Tnwu3+JprZAxw9x6ySPjXCAdVMtr32CX/v3d01rRgaNjtU2qcFJ0P+GUvV5q3FAhbTmglLftMaprYWMgb+hJrD8PQvHQ4kPleaDJG3wMKE9D+FrMRYUqlf2YxVy3c4OHIALaNKZ2HHJNCH3qhsanbETZ/CxZm1a2wYZ8zZCKGrreWYa8VAP8++owm+KNi+xIphmL5HlFKHogBbWtnSg4VAsiBSiZQ3N0FH66fR3GZ25VtHMwy2l+r7B4osm4/e3wT8rAeo8bZfgqLQccgZRUwGO1wmggu7G15SCiAvtUUkHRFGhRQxFS7A3ofDhfvl+Th3Q+qCM5Gh7KR4N8RfsoQLsvC5YpOSghXVxDqxclmQY05TWgoKEKhgPNWEtZw7Wj7ApRhg2Op/JgIUXghGUbsSSVpvSoJVarMh2bPklY2hNAiTVIu7RG3ICaV+iuuoMwG9yYOL8CZeZyVI43wWbywGwlWUhOz5EEWJcXoWl8Azpus6Hh2XogKQkumn5EdjOq1jrh8ZhQsLIAZOuPzrdrULW1BebxYjLRgxoxlUkay47DdKSpTPd+B75huxMTrroY7r3Unr3b0LCyE4ZxGWhxZiBZ62PRl5+LDzFd2RPEAoSsCRTvFv3jhW1hXkD7lvXUQVQ83irbqInWDsfA7199r2rDRZ8agzGe447BTucmD0kEBCEbsqSsP8SFf4VbU1QSpc8sXucWk95wPOdK/QvefohIgqsJ1psqem4eJciEPhgm56FlgwMZebS6UL5kx+bfbcT3v30xBPUJuHQgEgMyhk8Q7CkQ7HDTdFqoPL79RBz3+lA4RZFRTCsnGEaod5mQv8GKlM0OFF0NLKYpVsdNJuCIcjlcO3CFkCQLyWqTRX1a0M7FUVz2dRWh/Wg+Khe58MgSCU/8phVVL9ai6P5C+HZSBq8w0icyalGIGdw+jP1KOtan3ohmVxas6RlE7sjOi9R3WEvE79F0+LsSZJuu7uN0X7INFU+R1Z0wzqe3ZhbRz/xx+Si6h8hvtxc1V2dg36GV8H79KlgWFsHS7URNVyf83g5UWDNCyOrF+DeqRgT7pnbUz7fAlJkFxzpawED9X5ZuQOXTlTjVPUpeNeqnNEOyGR3HSCdK08TDMfD7V9+rTMxUPMSDnv2Y6QcHxxiBaERAPMSHtB8z2UZIoxaEsHDlEETFrh4bSS9ig1m71C1ISzZpo5pgEU9x+utoa4V/nNAk2eDc3QEsVI3u5byUHByINBhnFJMrhgp07nOifk0a5j2QjTvbfiDnChiiE9miqVQ0amUR0dj6W59SJ9UTkEcru483iuW2MoBWFlYKcjG3FFYifX5ZNhu1o7F3O7paSCtlDEJGq0Q9piYEriUkViL/HiJfW9348ytOfHl1NZBZitIf2chEvwrlHTYULiHyJYKMvyCWBlgyrXCZ05HmLkdNQiHypxWg6dkMdLzejLSVZTBSexzvVeGJRi+sk0hTKUgSGeq7dlM5bbVk0t8Og78Twrwft07BmGY3ioTrDbkO6iOjFVWH3SQBBeJ07f9ZgDcmPo1lsy+htlNaIuUVwU9SPtSCguZc1GTlw7yhETceKcW8x9PQ2GxDaRYtXEi3EzFTWapy17D55Pevviu1nzP61BiMiYFRUspL8GOw67nJQwwBQcyefPJJiONQDAaD0HItRu0eoVFxofLqxcSx9JqvSO3S6JxhQhpuxlaUkssGkdb52xpyyZCBpk4/kmfQNOPGHFS97YL3SCuemrmQchCpCCrUf6AWKRYzmvZ5YZpsgeVK0vwEhdbdTlo1SMRlkQ1ND5Qq7jOIgNTkTYSNpvr8KgELLjOBZuE6nORWQnUh8f4fFFcSrgOkcRLBlIXq1CaUrmpCxVLSPlEQ7biRHF2Ea4ecoU3+7P0hSE1bM1pF2d1uOPaXoGplPvkpy8ein5XA7/HDs7sMSRclIO0hmp5cOxsJdL74FZdcVhLVed/1IzF7bTJpt1pRkFUKywRaTUplwZiMrMxOpN2vTMr+U04Jah9Jo9nHJJjNZiSZSQMp5Mq2wEzTn0lmZVr1ubbPFVKmSesmEkcaNhNNo8p/40xEZA247PJkGE1qmlHNTHgasnNhz8xDfipxsGwb7ri/iC5mwZZpRzGlDefA719976pfL31iLMbEQ55tzGKx57nNQw0B8RAXQTvKkaH0McmO+sesyJ1mlldA2rLPQvhEK1743UuwXUeEQ12VWLChBUVTxZs+D+5msqfKSpGnDPPnE+l6MYNsroR1lBIMqYWoX9mMHAuRDDnQism2PKJvBiIkdiy4JwMOrwOOH9WitiMfswNTpmSX9WEhjNin3hd0IA1YZV6Goj0KSiaDffialLJzVpYAt/thI02YHKgdP93+EuZm9m6HX1QRSkjUuMGUQl7LFiDjSpLxUBkqzSmomGpF2pXAt6wmGI6noOzlQrKbA1xEUvP9FXA8qGoQyZWFx5yFZ+pexKvGi9FM/tcaVm5DvQlwet20cpNmLueXoeB2M+oOSPguiWqYQP11m1VxaUFvzeSVtWQvZ4HtNtLCEUm0ZZPbiwl0oy6E126d1OWhCPlc6yAfaR1b2+E8Qsc20tLtdCLty6T1RBxcappvvwud42nak8jdcAv8/g3p0eCVAKHnQ3lVQ3BbBrJqJdJKr+BytPOBlCfyxhJ+3F5tdPQ+8njpjQmPF0KAVgHS/17hTMeL7wSVE7SK0P1WhVT0bEug3A9fKaJVgj2rQAMXxMkpIYMihO55FVSenF+WVcl3pvLp6gsT0coLbUdoVp182kWS8+Amm2TdcJBS2iXy1y+viCTbLS2H1P4spa12BOJiVaYVFdInPnUV5f52WoHqllej0utRqt2rtNNHq13FmSafXMB+daUo5StrVlaEagXr5FPrUErSckiSWH25YvtnPQl0drChRLJm22mlaIFk145zbdId9vuloiVq2pIiqSDbSqtle9qlFaKTT0sMc9TJF+a6ljQY5fH7V0NfObLGTCWq4tc325iFsHaOMgJRiID4dT2kbcw0TIVTUe38HI6heymarrai8rukudpahJLxzSgnL/Ylrx0MXxdNtQXsyYJlCH0znCdZg6sIPQ9tR+j1sHGhvZpXjxa1dY3kD+zYXySMuzwukN1yn4c0haT20oLBihaPRWZwIsk4SdGkldG9ZSJBbbuBphtF6JI/1Y8JtFryBDkxEbj11XlURzPVEZrFuqQeV3hHBZeI5DllcMzRJckR/eKJ3teHUwq/f/W9Gfr101+NoZgYGLxXZgx1ODd1SCAwderUiHK+/vrrva7t2bOnV1rMJZAtl3T0IO3vSHZiZKC/a3E6Mr41MBu2IYmVIEma4OKNpuc9ZGBvDKZlck6xNVIvZ8QDeRtSnoESSGO4KUeSVVHqaQLzUSDA71/9OIgTakt9Uk9sdKKET7t6fnn0XDm7s2gub9eud7B7zw5MmzoL06ffcHYNDLkrmtsrRGX5QjrsDKOM3xkCFpJ9IPjdcsu0kLv6jr75plgud37CQOQ7k5q4vDNBq3dexq83JmeSEs348fs3pCf1M5v6WDTPSQtJz6d8PMet7/vg2GDYHJzv/uXygntUfx7N/XvttddK4q+/MNB8opxobm/MyUe2a0fd5AlfM8YimzHfCQ95zHdLjtZtUvVKsaOBTd7R4Hw+7wXOXJ5AoXcYjO8Hv3/1/TAQ5W0IlRueUZ7jHp79yq1iBBiBKEXA76LNwlMCzlerXRIK4muQcOUCEtgK+8IsZM2wo31/muxkVpJ9g0VpW1isc0KA3796+JiYqXjwHLd+YHCMEWAEGIEvFAF6+5DjDDS734DxxVvRohIv27Pk0FZzbREkQOjm3UGX+HSII8DvX30HMjFT8WA/KvqBwTFGgBFgBC4EAsJWX3jT14Lb3QGv1yx72dfSDOQhfxS/rTQ4ht2R37/6Lh2hj8ZuTAyM8rIVEEcOjAAjwAgwAoOAQHwCnKtyaD9xxcu+8LQv/go2Kx77B0EirvICIMDvXz3I/BtExYPnuPUDg2OMACPACFxwBGjvTNtqBxofpd0KPqhCztYM5ZwE6eXe4oILxxV+UQjw+1ePLBMzFQ+e49YPDI4xAowAI3AhEBAObpPkmUw/vIddtCUS7UtJwX8hKuc6ogIBfv/qu4GnMlU8ZFVq+UqeytSPD44xAowAI/CFIWCgzcSXV1ai9IEGeQcCN21MnjaZdkPnEFMI8PtX392sMVPx0Oa440cO4c2R9X3LMUaAEWAEoheBbj86SLo7ky34zmvbkJzoQvFSJwrdylZI0Ss4S3YuCPS1m8ebW9/oVXQs7uYRJ5zs9UIiBhPefXcHdr77DmbMvAEzZ86KQQS4yYxA9CEw4zvfloXq7+GsPex3vvc/0dcIlig8AkTM9v2hAxPSlD0l339uKtI/fBqfVWXK+f0fPod5b6VjyxKyN+MwbBDQvtMDbVAsfqfjEwyRZzMHuonqsWO0aey4/rduiubybv5upkzI+sJDG0jDob2iLdHcHyyfNtp6H2Nt/PVGIHIKf397YxO94+ViWDOugpAvwXgI1UWgzcVnI0H1nBE38iR+3T2C4so7ip9XvftWpERv/yryRpJvoD+2tP7XWh+pPO26dhzK44WnMtVeFFOZv9n2Dm6cfQOEISIHRoARYAQYgQuEQHwyqiWHrjLDlEJ4JvX4N9Nd5AgjMIwRiKwuG8aNDtc0zcZMHDkwAowAI8AIDDIC8QYYEwdZBq6eERgEBFhjpoIutGTd3RJrywZhEHKVjAAjwAgwAowAI6AgwMRMHQmCmF13/cyAPQMPEEaAEWAEGAFGgBFgBC40AjyVqSIuT2WyH7MLPf64PkaAEWAEGAFGgBEIQoCJmQoG25gFjQo+ZQQYAUaAEWAEGIFBQYCJmQq7mMosKVnGNmaDMgy5Ukbgi0fghRdegNVqxfHj3i++Mq6BEWAEwiIQF9e/a62wN8ZQItuYqZ3NNmYxNOq5qTGFgCBkK1aswKFDh+R2/+IXL9CPsCUxhQE3lhFgBIYOAnFHj56O6Pl/dKKET7vOH7uN5vJ27XoHu/fswLSpszB9+g3npQejub2igSzfuXUz4/fF43fLLdPkSgbqjPLNN3cHhGpqehWlpY/g8OFDctoVV3wdS5cux/e/f28gT18n3L99odP/tWjF7+RJPyRJgiHhc3SdkHD69OnAnyT1nGvpIm+49J7ryj2GhNP0vuy/PHFfX2VqdV30pdPwfabkDa1Li2tHcY8oU4sHH7XyRsafxv9v73zAo6zufP+dEMyMhDKxeJt0tUu81DWsuyQBWhMKIWGrEq2ryfXeNdlWacB92qCWP3qvkiugoLstrD4W6rWSqrtN+qwtuTylCe4q4V8JfQpNsNbEfXSNV9FJH3BngMAMEDL393vnncy8yUwmiSGZzHwPD3nPed/znnN+n3Pe9/3OOec973lfIE4wbvBYeHz1h+8Pxg3GCR5LSbmECxdCeQ7FJk3j2LEjuP766zGSazp2qwvFiNf2FyzhYOVLHWzFfq9U4mDHgxmcHPLK//GbXlvbfmzauAHr1q3DX/91cdC0iNtEsFcNS6b6pb0Rm7KxM97bc/SSDzyi96s9e/bgySefxP79+40IX/rSl/Doo4+KIPsb48F18uRJOJ36sA09VIIPnfDtx5/04IrJiBnP7b6EqVOtD7zwdIJ+n+8SUlNDeUbL//TpS7jyytjxzl+4hEkpoXiaT6Q0z57tRVpaZMERLJtuL1y8hBSbNb1IaXq9vZg8eWB6/eP29PQK/8jxwuNeuNCLlJTY8S5dsgoGTaP/f7W/fzzdRzdxCfTXIPF+vxqN8nEo02yvOpTJdcwm7sXLkpPAmTNnUFxcjP6LRH/44Yf4zne+Y/wnJRJQAg6HQ8RgSsz/gflQKSKoY8f1+21DitfTYxOhPHrpXbiQIkI+BVrWwWzq7bXhiismxYzn9drkh8YkI63B0uy5ZIM9LRBP840Wt1tG3ZzOUDy9FukGJ0BhZvLhHLPBGwqPksBEINC/d2Ty5MnyEEyzPLCAFEyaNPhDLPCg0Ydn7HiXLqUYD9poD6bgw9IPGyanxn7gBR+0gz3s9FjwQRtMP1r+4Q/aweJekgdtWtiDNlr+Z8/aMG1a6EEbLc2LIkAc9oHx+qd7+rQNV10VO96Fi8CVjlRLXQbzDk/T7bbh6qtD6SmXSG4if0sx3J6h99D0Dmmdzsud3uc+9zmjZzfcBvqtBCjMTB76K5vfyrQ2DoZIYCIRmDp1qtFbptfy+vXrjaHMixcvYsqUKfje976Hhx56SH65OyfsR5/71wWFRX8igfDZs34Zao0sxiKfwb0kEF8EuFyGWR96M9c5ZrqlIwESmLgEtPdbr+O9e/eiqKgIHo/HEGrZ2dnG25lcLmPi1i1LPvEJ9O/VnvgWjb4FFGYmU72Zr+U6ZqPfwpgiCYwTgWgCbffuneNUImZLAiRAArEJcCjTZKQ3cX4rM3aDYQwSmGgEggLt2LFjePbZZ4e8XMZEs5PlJQESSAwC7DEz61GHPjbxW5mJ0appBQlEIJCbmwtdbJaOBEiABOKZAIWZWTuGMOMcs3huqywbCZAACZAACSQ8Ads57yWuvifVfODAfhw8sA8LFi7CwoVFCV/xNJAEJgKBBV/7ilHMoa4SfvDXv50IZrGMJJC0BHhNx676VIc9eqdZMr2OfcvNxYYgG4xHEOflXuclmE//bTLVh9pOe/u3gEA42dpfZAqR9/L6Hcgl2doL7R3YBnRPvN9PI5daFgPup1GSoX6jq7JolBJ0P+eYJWjF0iwSIAESIAESmEAEKMzMyuIcswnUallUEiABEiABEkhQAlwuw6xYfaWe38pM0FZOs5KCgH4rc8OGDTFtzcsrkmkLucZXAGJGZgQSIAESGGMCFGYmcK5jNsYtj9mRwCgTUGGmn2Iaqrvzzjuxbt066DIadCRAAiQQLwQozMya0KFMfiszXpoly0ECwyeg38q8//77Bz1RF5ltbT2Gjz76f9i5c6fx/6WXXsJ999036Hk8SAIkQAJjRYDCzCQdnGOWOgnQ3jM6EiCBiUVAhdlQesz0ra7U1FPGdf7mm29i6dKlxrCm9qDRkQAJkMB4E+Dkf7MGVIzxW5nj3RyZPwmMDQGn0wntPbv33nuNDFeuXDk2GTMXEiABEohBgD1mJiAVZvxWZozWwsMkkGAE9BNN2lv+wQcfGMOa7DVLsAqmOSQwAQnYTpzojbry/5R0P85220bNrHhO79ChfThydD/mzS3C/PmLRsXmeLZXDWT5Pls1k9/l53frrfOMTIa68v9rrx0ZdqFeeOFZ1NSsMq77nTub+85n/fahGJGH/EaEre+kROU3Fte0QpzQ/PyDOP1c01CciruhuHhOT97OUoHq120slwj2qo3xXB8sX/RWmEztb86cOX79H8sNNZ6m05+f2+02rn29/sMdr49wGiF/f36hI1Yf+Vl5BEPJzm+o12q0eMnAj0OZKq3F6VAm1zELsOBfEkgmAjrfbPbs2dAXAXTeGZfPSKbap60kEH8EKMzMOuEcs/hrnCwRCYwVARVn6jwez1hlyXxIgARIICIBvpVpYjGWy9j0hDEROCIp7iQBEkhYAjNmzDBs05cA6EiABEhgPAlQmJn0DWG2cQOF2Xi2RuZNAuNEgMJsnMAzWxIggQEEOJRpIuEcswFtgztIgARIgARIgATGmACFmQmcc8zGuOUxOxIgARIgARIggQEEOJRpIuEcswFtgztIgARIgARIgATGmAB7zEzgwTlm/FbmGLdAZkcCJEACJJB0BObOnZt0Ng/V4FSvr3fQuLGO68lT0gGvL+oHBCzpx2t6BYVFxrcydRurjIlgb7BSYtmaKPVLe4MEBm7jvT0PLHH0PSNtz7qGoTrdhqehfp8PsNvD8uwRf9hP2gH8enw4JedMSw+c5Ov2wW76w9MOS9HiHZCe5Wgo4OtW/+D3b40xRYox4P7czwaNp+4zlU/sFkthD2MzaHoC1pdqH/7zY0CFBMoe/DtUfp/Z3mCGYdtB7TXjsXxhwEzvmTNn0N3djfT0dEydOtUSoT/TZOCX6rBHH81UIIMdD9I7edKP6dNjf7opntO75eZiLFxYlDT2at3Fc32wfMGra+A2Ea634dTvQALR94z0fpWaGrh/6TaYhnF94E3Mz6hCnbcVOSJwul5fg6ybO9DyUR1yUgNCJDV1mnH/6/pNEzpnlqLg5Eu4MkeuL3817O/UGn6/v2rg9aYCQ4QJVCSphpOtz+fBxx96cfp0B1pfr8eyx11oPdOIPPnxa3E9bbjy6iq0X5RyhQkhz3EPnNcE1mQz4ku8v3TU4F+8jUb5dZ/vD9vgqM+B/6mSUJJdh/H3zx/C1GsypChilxRNYsLnLET1PQVG8SD21pZW4roXf4HiPxFeQSFmptL2wynId+8JpCu2eLvPwZF+pUXEhjIEOl6cglm+VpxYmhvh+eHBttIS+B5uwupiJzqOduBUby/Sev8d+QWVqGsWuzMktR47cnJzpHxdqH+mFp1S7kuX/JhZtAwVxZkSoQvb8rKworgR/n8sDc9+YH1YjoYCyXa9XW57I31ebf369diwYQPkyztQ/2DucpcvWt5j+byMrsqilS5B93OOWYJWLM0igREQ8PymHv/yW1lsVoRTlvwzlMk7DSLKtqD0bqD6G5UoyZIjWRl463wgA9fBbWg5Ln4VW3KC/u040iR/l2HZYzV49JGHsez+LehUIebrQLnDAdtkG2wOG2rfkX0f1MIxNQMz//w2bPxJE3wzytD+bm1IUL1TD5tN4uv/yflyQhtm6fkSzl9Vj7bXNyHj2ip0aPp9zo4vwCUSy+pKM1TVhDlnNm74r1nwHZGy/l8Psq4R26ZnIVtEXtvz+ch/viMssnp9qK9wwKH5m//zH5HdTy82y2fDlRlTYLuj3pq3li1YPnsp8hSSuuD+4DE4Ufn9GqwpyULNz1rQtrcJ+/bsRfPrrUb0ul1N4m/Gjt0tYp2e70LdIy3I+VoBPBv+N1pFsKlrWCWi7MsbsfqZ21D+Ypuxj3/ij4C+fLd27ePQLV3U3zLJh4ZzzJKvzmkxCUQj4LzGjqXXLsNX3ZtElrnQ9IM1mPXIFoleiuqnGlE6E2haZcNtx3fg+rRAKnYZ7wwN4zlkpwcN32rA2vo9KM92oOvUOaSlXAVDEqWqtClF68VGQERDiylISp9rxyv33BChB0mk3g0VcLul10eEn727DXdmVeMRVwsK7ZLP90uRf3M2Wt07LD1o2qsFlMAp+fW5PvHTt1OE40kAABVPSURBVEcSz8Qt//0efHC+Hi3FZSi7S7r8NJ6c1/GeCNP+yk5kZ8WrfpSeVPEqp8v/lmdKsNi7Ge7HCyW+9LadvwKZn5ceM8P50HC/Q8SRGezbNOHqB/sCwJI6eJsqDFHrvLEMflc7uqZLj9jBNvzN1nZcM8kUV8c74ep2w/MX1chW26Ss9iWVKCsuxO+E6+15KspsKN8r5WlbDaevVIRwPsp9Lah7wOwBDMuW3vEloILsqzct7OutHt/SjH/u2qTphIA2DH4rk02BBEjAIHBNGfY+vhGznqiTx3w+Ku6qhus7m+F8T4YBv2xO21heB1d9GVI9EebXLvGibddm1OTWwb0kA1XFO7Dx4BPISU8JADbFkdGvEzaBzeXqxKlTmXIvMrvhJLY9PRNOTzNqfnQYGRlmF5O7Gf8qPWZzf16Htre2YY3RG5SPlhdr0JK7AtVfzwzko6Jp8Q3ICrvTd0ovXhNEPA1wHjT9qAkNx5pgq9CDpTJU2miIpAFRdUdPB9ZcPQu1loOLkfF0cMe35Xzp8TOD7uNl2OOqQ4mOtEp52p4vR5WvBru+eRM+7xSm3c0o/1ZnIPbxBtiurUWLuxEF3R04jDw89O1cGcrMR+3PV6DwrgoUTNd0MtAl2jDTxNL1XgN23bEE1z2WgWWGCFyDytJmuFwuoQXkPViIcmc7Gr8ZLFUgO/4dXwLaMfLGnn34q8WLjGfx+JZm/HMPu1zHvzDjWQIq9vGkz7xJIP4IfPWBX6H1vd+g6pk6ZGVmoOWpcpQ/3QDkypyz56WnxgujJ8qYgy/F92kvUV9vlA+urgw07qqAfoazekk+Zj1UAH/tbdENTXWg7enbMLNP2ASilv24HTvuyUZJgXRbyUsEDhkC9bqcuEXk1aYHl2H1czvQ2pYtBXDDfcIHR5apUvT0Dzrwqz/2y1KFoAz7eR7OkwHDkDu1ZwvWZEmPVZv0WInoKp+8JnSwv0964jyeLGw+4cZmPSZJtkqP2RoJNa+UYVYpqu98L+zSo+ab7uzrScxwSkSzeAE96kSaikfdJyLL7jKHTEUYt9c3YVZGPrbXV6PzrU6kTrZjsjDa+txW+N47jMPvyTleN9q6nVj9dSDjGi/a9zbgC4t+gKqVflT9WI5LnRz+YSEKXRvhPVLaVw45QhdHBDhiZa0MCjOTBxW7tWEwRAJJT0B6qvJuytEZZvJ8F9Hjy0HdL/cgL2cWstJFkGRVovNIHXI/N0OGHh3ImluFkhkSuUfP8KB0udHtJH4ZTHzqfTytYkj84WLIOBj80+NF6fdb8YpOhu/6EW7bXYhGEU9BV/INEV+eLjTvrsOWijXSYyZu+VaU3OAUQeYWZSLiTeOEOY9H9v9hBWqP/jdUzw3k7OvSXqkVaPVUB3qvNH5XM269/SnxlKL5nTKUoAUNuZXYIU+I/rPLNLpPeqYycirVi9IleWjarf1R6qTH7PGAb/YtS5Dyr7ux5i0vKm4M7OubX2YG2wJvGQRChqg1VZvsyblnO97PbkPGTSIgi5ux9L6tmPSlq4CPzJPFtpxvbsPqb0jvoK8N7uMO5D+1Gm9c3YDOe86jQQSrdDGi4xEp25JmbHtG4rgzUfVEVWD400yGm/EnwBErax1QmJk8qNitDYMhEiABD+pXzZJ+qSqU/awWTcdFovxzB+relflNAqdNB8fmzULltrfx0+tnIbO4BK0/3IImERsbC+zY8gOdkybzwURraG+afUYmOk/KcJoOwZlO52Y5DC0iPVAfdUi6Oqlf4pvHg5uuvduQVbLCDEqPnQjE5Re8uCLlPDzSK2XvaUX5I1nS2yVvggZPkm1rgww03lGFFfMykOPyo2R6BzaKUKm6Ow/1uztRIj1x6jzSs3brK3/Aa/n/jtIc6bmTfat/qVZGdjrfze8PCM/O17fgut0yx+yEDBl+KwOdT3mxOteOtlc3o3V9vYgyLZH05KU3IH+qrV+CMsdMXxoIOpljFu58rlZ0nMxDgacTbX9Sipe+O8eYT6ZDoa1P5WNbl0zshwgzdS4vnNML8fc3LkZzx2LkFRQaPYz2lXLsGTvyHi6Ar9sRmONnnMA/8UKAI1bWmqAwM3lQsVsbBkMkkMwEfLJ8xHezCvFyrvZYuVH4wHaU37gJlUdL0PhqgYGmtrQc+b/cgWuDc8x8ndj2YAuqmstRW1KJrB/LSwJdNSKY8tHYXIrHSsoxeWG5CLOAdLKL5Fvz5BbpYWpAgWg+17Fm5N8Qefgw8y9E9L3lRt5Ml0xiXyPzzhxIu+BH2hUOkSUOmZ+VhbzwIUwtoQxHbnm6DQ3v/Q4F90HeIN2C1maZFI/tcP94lnQmbcLau7cbvUfOm6qxLleXR/pzNP2yCll3ZGLNElPw+ALzswyjw/74jrdh26p8rPk50PiRPzDn67k62L5cCd+jPtQ8nSZzyoJiUk+swp6PtqLQKbJTXmBokyHGamzDropcTJlmkxcaWlD5YFcoByl/TdkyVJ+pkn0OvPmTn2LHDBmX9XqN4dzOd8UmGcIMd7qO2vVfy8MnWQXId21CraMalfOq0PRcITp3Cd8nNlpfhAg/mf5xI8ARKyt6cyaqdWcyhlSYra1ZB93SkQAJJDcBz5FGuLcchf/IDpRJb4+OuDkXVKHwkUJZTkKHAmWHur45ZeKXn7n2JeXyZmAFKnOBgiWlKFuuQqsEpfKm4/dm6wmmkzlamkrhzBxUSO9XSbqIEOnJqphniqFgvOBW3kzMuzE0COqStxL/+HEXuo7r/050dQ0UT127pPcOW/GX02Ry/F2b0fhPdmwrWYOyenlL01mAxuW1WPEz60ClT5cEuaMWdR01yDR/tmeJsNkob6n2TQ4TX9euZXBcmw/7NzZLqAzZwWLLEh8tz6koc2HviV+gJDgrXwRTxavbUSLp2NNlzpl0IzqdMuRrlzlmaeKXuXP2zBLseDXwRqaa7TnagAbpQStJ76Mte716SLRZYGsEzD8ZYm1lng1l/ycbOT2HUVVSg5wZTnhlKQ3IciAlxV3I/7bMEaSLOwLBESvd0smtRBdri+Z0hd3BjoefN5R48ZzeoUP7cOTofsybW4T58xeFmxbRP9HtVaPiuT5YvojNrm9nsrW/PsNjeIbCRZPoH+/cuUDCutVjqQVP4mdf94v/HZyWQ55PxZ/2Bfzdm2+gTuZMnTzpxce7getk/7Vpcs7Hbnz4bjve3d2Bvb9vx9vHgN83ySKoV71vJNwi+z54Ezj9u3a0O3LwX6bcgK2vv40/lcVR5XS8tX0OGr75Bl5IDdyPP3X7ceGs5t/v/nzeiwvynuN1M3KRmeaH55wMDU4C0s5KwaXX6lOJr+nhPw/j5rJaPHvgHESXSTrTMMPhkjco1+Lt4hlGul9Z8QvcNnsWXr7hHG7PtuOj3/0I+bc+gJU//QQ3T08L5T3zu/i7mWpjO3bu9mGVpJda8CJOuOS1x9QOvCZT/n9eVwfPP/8tntkj+0/8Cg2fzEHx1bfjpb21uP3GoGqTE8Ocu1t07fmAfQPsFOFbt7wGj/3gP41ynD9xDrMfqEbF/5DhSRG1+sLA7/1NWPep1oWkIen88fPF+IdXfooXROgdXJWChv8V4PnWxy6ZlubH1CVPovKOL+KFI72yfAnvf2FVMcA7sD4GRBnV50deXuDLO7odSt5DiTOhn2/+Qdw576VBjoYOnTjRGwoM4ovn9GTFYb1D+HUbyyWCvWpjPNcHyxe9FSZT+5szZ45f/8dyQ42n6UTiF+n6N64Pb6txX2j1hkpQd7c85eVeIUNz/vaLgfTeb1jrz1tS5q9aXuUvC27vLvWX3V3lX70ysO++B1b5q5bk+VfXt4cSU9/F9+W7AHn+Fndgt5bP27bZjydarfE0JOWRlcz8qx/d6P+fDz/mX/vo2sD/laV+5G71B4v5fn2VP+/7gfMNe4084N/xrjXJ1udK/VUN74sRewybth92WSNo6GK7v8ywV2yWPN52hd3v360LsFiy2l/3b61+d7AAclr7r35oHKvrCNsZlnr7c5KelDFSfWh58rDa7xK+6pTH7MePBgJ+t39zbqAOtreZaQuXPGw27Nf03O+2S1lc/rVmuUVMB9JxufoY8f5n4uy3iVgf/eJokPwiQJFdo8HP7KweqIaTbY8OYXIds2SrddpLAjEI2PNkRQav5VuZFf/kRdlP5DwZjtPJ+yfFm33XRrTeNXhaUT/pkpqN7f7AivbBFOw3VsM9MzAXLbjP2Ep56qQ8Tll2on96NR6dYRVw2fJGoyVFIw/VSVaX90CjzDhTlw150EZe4DM1BzsumueqveG9eDPlJYCL8hJAhCfJjMXflWMrIh7THHOWu+HySYnDh4P1gLrpMqfOXxLwy1/l8do1V5hhWR7jiBfVsrq/scyG7hUuLW79NJNMt5P/ThkiVrdRyr1RPWb57JmRe+80Ct34EeAcMyv7CJeTNUKyhFSYceXhZKlt2kkCQydg17W3wp0KsvDw5fDL5HinTCWJ5FSURXIDyhkp0kj3DfakGOkxmV+mU9AsQi9a+YTHtPTe0FEJh76yENgd0f7ByhZKjb5xJhCcY5Yqw/L6LE52x2ZrtgAq9mS/FGg/CZAACZDAeBDgiJWVOoWZyYOK3dowGCIBEiABEiCBsSDAESsrZQozkwcVu7VhMEQCJEACJEACY0GAI1ZWyhRmJg8qdmvDYIgESIAESIAExoIAR6yslCnMTB5U7NaGwRAJJBMBvf7V6Q80OhIggbElwBErK28KM5MHFbu1YTBEAiRAAiRAAmNBgCNWVso2XSTOuis5QwcO7MfBA/uwYOEiLFxYlJwQaDUJxBmBBV/7ilGio0ePDlqyuXPnGscP/vq3g8aLdjAz8yqcPnUKrq5PMW1a6NNH0eJzPwmQwOgRMJ6/B/djwYIiPn8Fa6rDnhKVbv8FDKNF1HVopk+XT4PEcPGc3i03FxsNYjAeQfMSwV61JZ7rg+ULtraB22RrfwMJRN8zkutXe8tVlKnL/MJVfYnz+uhDYfEkW/ujvZbq7wuM5vVxuGU/Nm3cAPkCB/RZPJhLhvrgUKbZAjjHbLBLgcdIIHEJvPzyy4Zx9957b+IaSctIII4JcI6ZtXIozEwenGNmbRgMkUAyEDh27BheeeUVw9T169cng8m0kQTijgDnmFmrhMLM5EHFbm0YDJFAohPYuXMnli5dapipvWUzZsxIdJNpHwnEJQGOWFmrhcLM5EHFbm0YDJFAIhLQHrJf//oY/uM/3sSzzz5rmDh79uw+fyLaTJtIIN4JcMTKWkMUZiYPKnZrw2CIBCYagU8++QQ2m21YxdbJxhzCHBYyRiaBUSfAESsrUgozkwcVu7VhMEQCiUhAe8dycnLxZ382A3feeSdyc3MT0UzaRAITigBHrKzVRWFm8qBitzYMhkhgohH44he/CO01i+WG+rp9rHR4nARIYHQIcMTKypHCzORBxW5tGAyRQDwRCC4gG09lYllIgARGhwBHrKwcbSdO9EZd+X9Kuh9nu4c3Z8OavDUUz+kdOrQPR47ux7y5RZg/f5G14CMMxbO9ahLLN8KKNU8jv8vP79Zb5w3I5MyZM+ju7kZ6ejqmTp1qOf7aa0cs4c8SYP1+Fnq8v3w2esnFz3j+HtmHefMW8fmrDcc/iNPPNQ3Fqbgbiovn9GQSsApUv25juUSwV22M5/pg+aK3wmRvf9GuVbbnyG0m2dtLZCq8/0XjwvYSmcxY3l84lGn+rOEcMxMENyQQ5wT0WlUX3BoB/iEBEpiwBDjHzFp1FGYmD73Jf/WmhRjKt/asCBkiARIYSwJ6rVKUjSVx5kUCl5cA55hZ+VKYmTyo2K0NgyESiFcCeq3u378fRUVFFGjxWkksFwkMg4D+0Orp8fN6NpmlDINdQkcNKnbd0pEACcQvAb1GdVFYXqvxW0csGQkMh4AKs7U16yjMTGjsMTNBULEP5zJiXBIYPwJ6raoLbo0A/5AACUxYAvoj6409+/BXizlNQSuRwsxsynqT5xyzCXtds+BJRECvVYqyJKpwmprwBFSYbdq4AamT+INLK5vCzGzyVOwJf+3TwAQhoNcq55glSGXSDBIQAvpDi3PMQk0hJeRNbl9QseuWjgRIIH4J6DXKOWbxWz8sGQkMl4AKM84xC1Gz6aJpoWDy+g4c2I+DB/ZhwcJFWLiwKHlB0HISiHMCvFbjvIJYPBIYJgHjmj64HwsWFPH5q+wir3Eb2DuWK92Gl4MrD4fTCPlZHyEW4T62l3AaIT/bS4hFuI/tJZxGyM/2EmIR7mN7CacR8o9me4n2NY9QbiFfMtQH55iZyl6HR/hWyDB/5jA6CYwDAb1WOcdsHMAzSxK4TAQ4x8wKlnPMTB56s9e3QnRLRwIkEL8E9BrlHLP4rR+WjASGS4BzzKzE2GNm8qBitzYMhkggXgnotaouuDUC/EMCJDBhCeiPLY5YhaqPwsxkoTd5rmMWahj0kUC8EtBrlaIsXmuH5SKB4RNQYcZ1zELcKMxMFlTsoUZBHwnEMwG9VjnHLJ5riGUjgeER0B9aXMcsxCwl5E1uX1Cx65aOBEggfgnoNco5ZvFbPywZCQyXgAozrmMWosYeM5MFFXuoUdBHAvFMIDiMGdzGc1lZNhIggdgE9McW55iFOFGYmSz0Js85ZqGGQR8JxCsBvVYpyuK1dlguEhg+geCIFb+VGWBn08XaomGcku7H2W5btMPD3s/0ho3McgL5WXAMO0B+w0ZmOYH8LDiGHSC/YSOznEB+FhzDDsQzv0OH9uHIkX2YN28R5s9fNGzbIp0Qz/ZqeQcrn03X041klO7z+nrhsMeehnbypB/Tp8cWcEwvMmnyi8yF7SUyF7aXyFzYXiJzYXuJzIXtJTIXtpfIXMayvcRWXZHLyL0kQAIkQAIkQAIkQAKjTIDCbJSBMjkSIAESIAESIAESGCkBCrORkuN5JEACJEACJEACJDDKBCjMRhkokyMBEiABEiABEiCBkRKgMBspOZ5HAiRAAiRAAiRAAqNMgMJslIEyORIgARIgARIgARIYKQEKs5GS43kkQAIkQAIkQAIkMMoEKMxGGSiTIwESIAESIAESIIGRErCd816KusDsSBPleSRAAiRAAiRAAiRAAsMnwJX/w5iN5cq+YdmCKy2H0wj5WR8hFuE+tpdwGiE/20uIRbiP7SWcRsjP9hJiEe5jewmnEfKPZXvhUGaIO30kQAIkQAIkQAIkMK4EKMzGFT8zJwESIAESIAESIIEQAQqzEAv6SIAESIAESIAESGBcCVCYjSt+Zk4CJEACJEACJEACIQL/H0580LqV6mSDAAAAAElFTkSuQmCC;" vertex="1" parent="1">
          <mxGeometry x="83" y="200" width="520" height="382" as="geometry" />
        </mxCell>
        <mxCell id="fllPb2djwLRIhumXTyLn-7" value="EventCenter&lt;br&gt;运行环境" style="ellipse;whiteSpace=wrap;html=1;align=center;newEdgeStyle={&quot;edgeStyle&quot;:&quot;entityRelationEdgeStyle&quot;,&quot;startArrow&quot;:&quot;none&quot;,&quot;endArrow&quot;:&quot;none&quot;,&quot;segment&quot;:10,&quot;curved&quot;:1};treeFolding=1;treeMoving=1;fontSize=12;" vertex="1" parent="1">
          <mxGeometry x="30" y="710" width="110" height="50" as="geometry" />
        </mxCell>
        <mxCell id="fllPb2djwLRIhumXTyLn-8" value="&lt;span&gt;微信、抖音等各小程序平台&lt;/span&gt;" style="whiteSpace=wrap;html=1;shape=partialRectangle;top=0;left=0;bottom=1;right=0;points=[[0,1],[1,1]];fillColor=none;align=center;verticalAlign=bottom;routingCenterY=0.5;snapToPoint=1;recursiveResize=0;autosize=1;treeFolding=1;treeMoving=1;newEdgeStyle={&quot;edgeStyle&quot;:&quot;entityRelationEdgeStyle&quot;,&quot;startArrow&quot;:&quot;none&quot;,&quot;endArrow&quot;:&quot;none&quot;,&quot;segment&quot;:10,&quot;curved&quot;:1};fontSize=12;" vertex="1" parent="1">
          <mxGeometry x="195" y="630" width="180" height="20" as="geometry" />
        </mxCell>
        <mxCell id="fllPb2djwLRIhumXTyLn-9" value="" style="edgeStyle=entityRelationEdgeStyle;startArrow=none;endArrow=none;segment=10;curved=1;rounded=0;fontSize=12;exitX=1;exitY=0.5;exitDx=0;exitDy=0;" edge="1" target="fllPb2djwLRIhumXTyLn-8" parent="1" source="fllPb2djwLRIhumXTyLn-7">
          <mxGeometry relative="1" as="geometry">
            <mxPoint x="140" y="720" as="sourcePoint" />
          </mxGeometry>
        </mxCell>
        <mxCell id="fllPb2djwLRIhumXTyLn-10" value="H5" style="whiteSpace=wrap;html=1;shape=partialRectangle;top=0;left=0;bottom=1;right=0;points=[[0,1],[1,1]];fillColor=none;align=center;verticalAlign=bottom;routingCenterY=0.5;snapToPoint=1;recursiveResize=0;autosize=1;treeFolding=1;treeMoving=1;newEdgeStyle={&quot;edgeStyle&quot;:&quot;entityRelationEdgeStyle&quot;,&quot;startArrow&quot;:&quot;none&quot;,&quot;endArrow&quot;:&quot;none&quot;,&quot;segment&quot;:10,&quot;curved&quot;:1};fontSize=12;" vertex="1" parent="1">
          <mxGeometry x="195" y="790" width="50" height="20" as="geometry" />
        </mxCell>
        <mxCell id="fllPb2djwLRIhumXTyLn-11" value="" style="edgeStyle=entityRelationEdgeStyle;startArrow=none;endArrow=none;segment=10;curved=1;rounded=0;fontSize=12;exitX=1;exitY=0.5;exitDx=0;exitDy=0;" edge="1" target="fllPb2djwLRIhumXTyLn-10" parent="1" source="fllPb2djwLRIhumXTyLn-7">
          <mxGeometry relative="1" as="geometry">
            <mxPoint x="150" y="735" as="sourcePoint" />
          </mxGeometry>
        </mxCell>
        <mxCell id="fllPb2djwLRIhumXTyLn-12" value="实现EventCenter（Taro.eventCenter不支持sticky粘性事件）" style="whiteSpace=wrap;html=1;shape=partialRectangle;top=0;left=0;bottom=1;right=0;points=[[0,1],[1,1]];fillColor=none;align=center;verticalAlign=bottom;routingCenterY=0.5;snapToPoint=1;recursiveResize=0;autosize=1;treeFolding=1;treeMoving=1;newEdgeStyle={&quot;edgeStyle&quot;:&quot;entityRelationEdgeStyle&quot;,&quot;startArrow&quot;:&quot;none&quot;,&quot;endArrow&quot;:&quot;none&quot;,&quot;segment&quot;:10,&quot;curved&quot;:1};fontSize=12;" vertex="1" parent="1">
          <mxGeometry x="424" y="630" width="350" height="20" as="geometry" />
        </mxCell>
        <mxCell id="fllPb2djwLRIhumXTyLn-13" value="" style="edgeStyle=entityRelationEdgeStyle;startArrow=none;endArrow=none;segment=10;curved=1;rounded=0;fontSize=12;exitX=1;exitY=1;exitDx=0;exitDy=0;" edge="1" target="fllPb2djwLRIhumXTyLn-12" parent="1" source="fllPb2djwLRIhumXTyLn-8">
          <mxGeometry relative="1" as="geometry">
            <mxPoint x="310.0000000000002" y="680" as="sourcePoint" />
          </mxGeometry>
        </mxCell>
        <mxCell id="fllPb2djwLRIhumXTyLn-17" value="通过js api调用UES" style="whiteSpace=wrap;html=1;shape=partialRectangle;top=0;left=0;bottom=1;right=0;points=[[0,1],[1,1]];fillColor=none;align=center;verticalAlign=bottom;routingCenterY=0.5;snapToPoint=1;recursiveResize=0;autosize=1;treeFolding=1;treeMoving=1;newEdgeStyle={&quot;edgeStyle&quot;:&quot;entityRelationEdgeStyle&quot;,&quot;startArrow&quot;:&quot;none&quot;,&quot;endArrow&quot;:&quot;none&quot;,&quot;segment&quot;:10,&quot;curved&quot;:1};fontSize=12;" vertex="1" parent="1">
          <mxGeometry x="523" y="750" width="130" height="20" as="geometry" />
        </mxCell>
        <mxCell id="fllPb2djwLRIhumXTyLn-18" value="" style="edgeStyle=entityRelationEdgeStyle;startArrow=none;endArrow=none;segment=10;curved=1;rounded=0;fontSize=12;exitX=1;exitY=1;exitDx=0;exitDy=0;" edge="1" target="fllPb2djwLRIhumXTyLn-17" parent="1" source="fllPb2djwLRIhumXTyLn-30">
          <mxGeometry relative="1" as="geometry">
            <mxPoint x="530" y="800" as="sourcePoint" />
          </mxGeometry>
        </mxCell>
        <mxCell id="fllPb2djwLRIhumXTyLn-26" value="&lt;span&gt;外部H5（微信、手机端浏览器）&lt;/span&gt;" style="whiteSpace=wrap;html=1;shape=partialRectangle;top=0;left=0;bottom=1;right=0;points=[[0,1],[1,1]];fillColor=none;align=center;verticalAlign=bottom;routingCenterY=0.5;snapToPoint=1;recursiveResize=0;autosize=1;treeFolding=1;treeMoving=1;newEdgeStyle={&quot;edgeStyle&quot;:&quot;entityRelationEdgeStyle&quot;,&quot;startArrow&quot;:&quot;none&quot;,&quot;endArrow&quot;:&quot;none&quot;,&quot;segment&quot;:10,&quot;curved&quot;:1};fontSize=12;" vertex="1" parent="1">
          <mxGeometry x="323" y="820" width="200" height="20" as="geometry" />
        </mxCell>
        <mxCell id="fllPb2djwLRIhumXTyLn-27" value="" style="edgeStyle=entityRelationEdgeStyle;startArrow=none;endArrow=none;segment=10;curved=1;rounded=0;fontSize=12;exitX=1;exitY=1;exitDx=0;exitDy=0;" edge="1" target="fllPb2djwLRIhumXTyLn-26" parent="1" source="fllPb2djwLRIhumXTyLn-10">
          <mxGeometry relative="1" as="geometry">
            <mxPoint x="140" y="840" as="sourcePoint" />
          </mxGeometry>
        </mxCell>
        <mxCell id="fllPb2djwLRIhumXTyLn-30" value="App内H5" style="whiteSpace=wrap;html=1;shape=partialRectangle;top=0;left=0;bottom=1;right=0;points=[[0,1],[1,1]];fillColor=none;align=center;verticalAlign=bottom;routingCenterY=0.5;snapToPoint=1;recursiveResize=0;autosize=1;treeFolding=1;treeMoving=1;newEdgeStyle={&quot;edgeStyle&quot;:&quot;entityRelationEdgeStyle&quot;,&quot;startArrow&quot;:&quot;none&quot;,&quot;endArrow&quot;:&quot;none&quot;,&quot;segment&quot;:10,&quot;curved&quot;:1};fontSize=12;" vertex="1" parent="1">
          <mxGeometry x="323" y="750" width="80" height="20" as="geometry" />
        </mxCell>
        <mxCell id="fllPb2djwLRIhumXTyLn-31" value="" style="edgeStyle=entityRelationEdgeStyle;startArrow=none;endArrow=none;segment=10;curved=1;rounded=0;fontSize=12;exitX=1;exitY=1;exitDx=0;exitDy=0;" edge="1" target="fllPb2djwLRIhumXTyLn-30" parent="1" source="fllPb2djwLRIhumXTyLn-10">
          <mxGeometry relative="1" as="geometry">
            <mxPoint x="250" y="810" as="sourcePoint" />
          </mxGeometry>
        </mxCell>
        <mxCell id="fllPb2djwLRIhumXTyLn-35" value="外部H5（微信、手机端浏览器）的EventCenter实现流程" style="swimlane;childLayout=stackLayout;resizeParent=1;resizeParentMax=0;startSize=20;fontSize=12;" vertex="1" parent="1">
          <mxGeometry x="30" y="910" width="850" height="790" as="geometry" />
        </mxCell>
        <mxCell id="fllPb2djwLRIhumXTyLn-36" value="EventCenter" style="swimlane;startSize=20;fontSize=12;" vertex="1" parent="fllPb2djwLRIhumXTyLn-35">
          <mxGeometry y="20" width="390" height="770" as="geometry" />
        </mxCell>
        <mxCell id="fllPb2djwLRIhumXTyLn-49" style="edgeStyle=orthogonalEdgeStyle;rounded=0;orthogonalLoop=1;jettySize=auto;html=1;entryX=0;entryY=0.5;entryDx=0;entryDy=0;fontSize=10;" edge="1" parent="fllPb2djwLRIhumXTyLn-36" source="fllPb2djwLRIhumXTyLn-43" target="fllPb2djwLRIhumXTyLn-48">
          <mxGeometry relative="1" as="geometry" />
        </mxCell>
        <mxCell id="fllPb2djwLRIhumXTyLn-51" style="edgeStyle=orthogonalEdgeStyle;rounded=0;orthogonalLoop=1;jettySize=auto;html=1;entryX=0.5;entryY=0;entryDx=0;entryDy=0;fontSize=10;" edge="1" parent="fllPb2djwLRIhumXTyLn-36" source="fllPb2djwLRIhumXTyLn-43" target="fllPb2djwLRIhumXTyLn-50">
          <mxGeometry relative="1" as="geometry" />
        </mxCell>
        <mxCell id="fllPb2djwLRIhumXTyLn-43" value="粘性事件？" style="rhombus;whiteSpace=wrap;html=1;fontSize=10;" vertex="1" parent="fllPb2djwLRIhumXTyLn-36">
          <mxGeometry x="90" y="130" width="80" height="80" as="geometry" />
        </mxCell>
        <mxCell id="fllPb2djwLRIhumXTyLn-47" style="edgeStyle=orthogonalEdgeStyle;rounded=0;orthogonalLoop=1;jettySize=auto;html=1;fontSize=10;" edge="1" parent="fllPb2djwLRIhumXTyLn-36" source="fllPb2djwLRIhumXTyLn-45" target="fllPb2djwLRIhumXTyLn-43">
          <mxGeometry relative="1" as="geometry" />
        </mxCell>
        <mxCell id="fllPb2djwLRIhumXTyLn-45" value="把event存到内存，执行分发事件逻辑" style="rounded=0;whiteSpace=wrap;html=1;fontSize=10;" vertex="1" parent="fllPb2djwLRIhumXTyLn-36">
          <mxGeometry x="70" y="50" width="120" height="60" as="geometry" />
        </mxCell>
        <mxCell id="fllPb2djwLRIhumXTyLn-48" value="done" style="rounded=0;whiteSpace=wrap;html=1;fontSize=10;" vertex="1" parent="fllPb2djwLRIhumXTyLn-36">
          <mxGeometry x="190" y="150" width="60" height="40" as="geometry" />
        </mxCell>
        <mxCell id="fllPb2djwLRIhumXTyLn-50" value="把event转化成json字符串通过Storage存到localStorage" style="rounded=0;whiteSpace=wrap;html=1;fontSize=10;" vertex="1" parent="fllPb2djwLRIhumXTyLn-36">
          <mxGeometry x="70" y="230" width="120" height="60" as="geometry" />
        </mxCell>
        <mxCell id="fllPb2djwLRIhumXTyLn-52" value="N" style="text;html=1;strokeColor=none;fillColor=none;align=center;verticalAlign=middle;whiteSpace=wrap;rounded=0;fontSize=10;" vertex="1" parent="fllPb2djwLRIhumXTyLn-36">
          <mxGeometry x="150" y="140" width="60" height="30" as="geometry" />
        </mxCell>
        <mxCell id="fllPb2djwLRIhumXTyLn-53" value="Y" style="text;html=1;strokeColor=none;fillColor=none;align=center;verticalAlign=middle;whiteSpace=wrap;rounded=0;fontSize=10;" vertex="1" parent="fllPb2djwLRIhumXTyLn-36">
          <mxGeometry x="120" y="200" width="60" height="30" as="geometry" />
        </mxCell>
        <mxCell id="fllPb2djwLRIhumXTyLn-58" style="edgeStyle=orthogonalEdgeStyle;rounded=0;orthogonalLoop=1;jettySize=auto;html=1;entryX=0.5;entryY=0;entryDx=0;entryDy=0;fontSize=10;" edge="1" parent="fllPb2djwLRIhumXTyLn-36" source="fllPb2djwLRIhumXTyLn-55">
          <mxGeometry relative="1" as="geometry">
            <mxPoint x="130" y="490" as="targetPoint" />
          </mxGeometry>
        </mxCell>
        <mxCell id="fllPb2djwLRIhumXTyLn-63" style="edgeStyle=orthogonalEdgeStyle;rounded=0;orthogonalLoop=1;jettySize=auto;html=1;entryX=0;entryY=0.5;entryDx=0;entryDy=0;fontSize=10;" edge="1" parent="fllPb2djwLRIhumXTyLn-36" source="fllPb2djwLRIhumXTyLn-55" target="fllPb2djwLRIhumXTyLn-62">
          <mxGeometry relative="1" as="geometry" />
        </mxCell>
        <mxCell id="fllPb2djwLRIhumXTyLn-55" value="粘性事件？" style="rhombus;whiteSpace=wrap;html=1;fontSize=10;" vertex="1" parent="fllPb2djwLRIhumXTyLn-36">
          <mxGeometry x="90" y="390" width="80" height="80" as="geometry" />
        </mxCell>
        <mxCell id="fllPb2djwLRIhumXTyLn-66" style="edgeStyle=orthogonalEdgeStyle;rounded=0;orthogonalLoop=1;jettySize=auto;html=1;entryX=0;entryY=0.5;entryDx=0;entryDy=0;fontSize=10;" edge="1" parent="fllPb2djwLRIhumXTyLn-36" source="fllPb2djwLRIhumXTyLn-59" target="fllPb2djwLRIhumXTyLn-61">
          <mxGeometry relative="1" as="geometry" />
        </mxCell>
        <mxCell id="fllPb2djwLRIhumXTyLn-67" style="edgeStyle=orthogonalEdgeStyle;rounded=0;orthogonalLoop=1;jettySize=auto;html=1;entryX=0.5;entryY=0;entryDx=0;entryDy=0;fontSize=10;" edge="1" parent="fllPb2djwLRIhumXTyLn-36" source="fllPb2djwLRIhumXTyLn-59" target="fllPb2djwLRIhumXTyLn-60">
          <mxGeometry relative="1" as="geometry" />
        </mxCell>
        <mxCell id="fllPb2djwLRIhumXTyLn-59" value="内存中是否有该事件的数据？" style="rhombus;whiteSpace=wrap;html=1;fontSize=10;" vertex="1" parent="fllPb2djwLRIhumXTyLn-36">
          <mxGeometry x="40" y="490" width="180" height="140" as="geometry" />
        </mxCell>
        <mxCell id="fllPb2djwLRIhumXTyLn-60" value="从localStorage读取事件数据到内存，并分发事件" style="rounded=0;whiteSpace=wrap;html=1;fontSize=10;" vertex="1" parent="fllPb2djwLRIhumXTyLn-36">
          <mxGeometry x="70" y="660" width="120" height="60" as="geometry" />
        </mxCell>
        <mxCell id="fllPb2djwLRIhumXTyLn-61" value="&lt;span&gt;执行分发事件逻辑&lt;/span&gt;" style="rounded=0;whiteSpace=wrap;html=1;fontSize=10;" vertex="1" parent="fllPb2djwLRIhumXTyLn-36">
          <mxGeometry x="260" y="530" width="120" height="60" as="geometry" />
        </mxCell>
        <mxCell id="fllPb2djwLRIhumXTyLn-62" value="&lt;span&gt;执行分发事件逻辑&lt;/span&gt;" style="rounded=0;whiteSpace=wrap;html=1;fontSize=10;" vertex="1" parent="fllPb2djwLRIhumXTyLn-36">
          <mxGeometry x="260" y="400" width="120" height="60" as="geometry" />
        </mxCell>
        <mxCell id="fllPb2djwLRIhumXTyLn-64" value="N" style="text;html=1;strokeColor=none;fillColor=none;align=center;verticalAlign=middle;whiteSpace=wrap;rounded=0;fontSize=10;" vertex="1" parent="fllPb2djwLRIhumXTyLn-36">
          <mxGeometry x="180" y="400" width="60" height="30" as="geometry" />
        </mxCell>
        <mxCell id="fllPb2djwLRIhumXTyLn-65" value="Y" style="text;html=1;strokeColor=none;fillColor=none;align=center;verticalAlign=middle;whiteSpace=wrap;rounded=0;fontSize=10;" vertex="1" parent="fllPb2djwLRIhumXTyLn-36">
          <mxGeometry x="110" y="460" width="60" height="30" as="geometry" />
        </mxCell>
        <mxCell id="fllPb2djwLRIhumXTyLn-68" value="N" style="text;html=1;strokeColor=none;fillColor=none;align=center;verticalAlign=middle;whiteSpace=wrap;rounded=0;fontSize=10;" vertex="1" parent="fllPb2djwLRIhumXTyLn-36">
          <mxGeometry x="110" y="630" width="60" height="30" as="geometry" />
        </mxCell>
        <mxCell id="fllPb2djwLRIhumXTyLn-69" value="Y" style="text;html=1;strokeColor=none;fillColor=none;align=center;verticalAlign=middle;whiteSpace=wrap;rounded=0;fontSize=10;" vertex="1" parent="fllPb2djwLRIhumXTyLn-36">
          <mxGeometry x="200" y="530" width="60" height="30" as="geometry" />
        </mxCell>
        <mxCell id="fllPb2djwLRIhumXTyLn-37" value="A页面" style="swimlane;startSize=20;fontSize=12;" vertex="1" parent="fllPb2djwLRIhumXTyLn-35">
          <mxGeometry x="390" y="20" width="190" height="770" as="geometry" />
        </mxCell>
        <mxCell id="fllPb2djwLRIhumXTyLn-41" value="&lt;font style=&quot;font-size: 11px&quot;&gt;发送event-a&lt;br style=&quot;font-size: 11px&quot;&gt;{&lt;br style=&quot;font-size: 11px&quot;&gt;&lt;/font&gt;&lt;div style=&quot;font-size: 11px&quot;&gt;&lt;font style=&quot;font-size: 11px&quot;&gt;&lt;span style=&quot;white-space: pre ; font-size: 11px&quot;&gt;	&lt;/span&gt;event: &#39;a&#39;&amp;nbsp;,&lt;/font&gt;&lt;/div&gt;&lt;div style=&quot;font-size: 11px&quot;&gt;&lt;font style=&quot;font-size: 11px&quot;&gt;&lt;span style=&quot;white-space: pre ; font-size: 11px&quot;&gt;	&lt;/span&gt;sticky: true,&lt;br style=&quot;font-size: 11px&quot;&gt;&lt;/font&gt;&lt;/div&gt;&lt;div style=&quot;font-size: 11px&quot;&gt;&lt;font style=&quot;font-size: 11px&quot;&gt;&lt;span style=&quot;white-space: pre&quot;&gt;	&lt;/span&gt;data: 123&lt;br&gt;&lt;/font&gt;&lt;/div&gt;&lt;font style=&quot;font-size: 11px&quot;&gt;}&lt;/font&gt;" style="rounded=0;whiteSpace=wrap;html=1;fontSize=12;align=left;" vertex="1" parent="fllPb2djwLRIhumXTyLn-37">
          <mxGeometry x="32.5" y="30" width="127.5" height="100" as="geometry" />
        </mxCell>
        <mxCell id="fllPb2djwLRIhumXTyLn-38" value="B页面" style="swimlane;startSize=20;fontSize=12;" vertex="1" parent="fllPb2djwLRIhumXTyLn-35">
          <mxGeometry x="580" y="20" width="270" height="770" as="geometry" />
        </mxCell>
        <mxCell id="fllPb2djwLRIhumXTyLn-54" value="&lt;div&gt;&lt;/div&gt;监听event-a" style="rounded=0;whiteSpace=wrap;html=1;fontSize=10;align=center;" vertex="1" parent="fllPb2djwLRIhumXTyLn-38">
          <mxGeometry x="75" y="90" width="120" height="60" as="geometry" />
        </mxCell>
        <mxCell id="fllPb2djwLRIhumXTyLn-56" value="&lt;span style=&quot;text-align: left&quot;&gt;B页面为另外一个单页，与A是不同的上下文，即内存无法共享&lt;/span&gt;" style="text;html=1;strokeColor=none;fillColor=none;align=center;verticalAlign=middle;whiteSpace=wrap;rounded=0;fontSize=10;" vertex="1" parent="fllPb2djwLRIhumXTyLn-38">
          <mxGeometry x="67.5" y="30" width="135" height="50" as="geometry" />
        </mxCell>
        <mxCell id="fllPb2djwLRIhumXTyLn-71" value="执行事件处理函数" style="rounded=0;whiteSpace=wrap;html=1;fontSize=10;" vertex="1" parent="fllPb2djwLRIhumXTyLn-38">
          <mxGeometry x="75" y="200" width="120" height="60" as="geometry" />
        </mxCell>
        <mxCell id="fllPb2djwLRIhumXTyLn-46" style="edgeStyle=orthogonalEdgeStyle;rounded=0;orthogonalLoop=1;jettySize=auto;html=1;entryX=1;entryY=0.5;entryDx=0;entryDy=0;fontSize=10;" edge="1" parent="fllPb2djwLRIhumXTyLn-35" source="fllPb2djwLRIhumXTyLn-41" target="fllPb2djwLRIhumXTyLn-45">
          <mxGeometry relative="1" as="geometry" />
        </mxCell>
        <mxCell id="fllPb2djwLRIhumXTyLn-70" style="edgeStyle=orthogonalEdgeStyle;rounded=0;orthogonalLoop=1;jettySize=auto;html=1;entryX=0.5;entryY=0;entryDx=0;entryDy=0;fontSize=10;" edge="1" parent="fllPb2djwLRIhumXTyLn-35" source="fllPb2djwLRIhumXTyLn-54" target="fllPb2djwLRIhumXTyLn-55">
          <mxGeometry relative="1" as="geometry">
            <Array as="points">
              <mxPoint x="620" y="140" />
              <mxPoint x="620" y="350" />
              <mxPoint x="130" y="350" />
            </Array>
          </mxGeometry>
        </mxCell>
        <mxCell id="fllPb2djwLRIhumXTyLn-72" style="edgeStyle=orthogonalEdgeStyle;rounded=0;orthogonalLoop=1;jettySize=auto;html=1;entryX=0.5;entryY=1;entryDx=0;entryDy=0;fontSize=10;" edge="1" parent="fllPb2djwLRIhumXTyLn-35" source="fllPb2djwLRIhumXTyLn-60" target="fllPb2djwLRIhumXTyLn-71">
          <mxGeometry relative="1" as="geometry" />
        </mxCell>
        <mxCell id="fllPb2djwLRIhumXTyLn-39" value="与小程序实现EventCenter大体一致，需要对sticky粘性事件做特殊处理" style="whiteSpace=wrap;html=1;shape=partialRectangle;top=0;left=0;bottom=1;right=0;points=[[0,1],[1,1]];fillColor=none;align=center;verticalAlign=bottom;routingCenterY=0.5;snapToPoint=1;recursiveResize=0;autosize=1;treeFolding=1;treeMoving=1;newEdgeStyle={&quot;edgeStyle&quot;:&quot;entityRelationEdgeStyle&quot;,&quot;startArrow&quot;:&quot;none&quot;,&quot;endArrow&quot;:&quot;none&quot;,&quot;segment&quot;:10,&quot;curved&quot;:1};fontSize=12;" vertex="1" parent="1">
          <mxGeometry x="523" y="820" width="410" height="20" as="geometry" />
        </mxCell>
        <mxCell id="fllPb2djwLRIhumXTyLn-40" value="" style="edgeStyle=entityRelationEdgeStyle;startArrow=none;endArrow=none;segment=10;curved=1;rounded=0;fontSize=12;exitX=1;exitY=1;exitDx=0;exitDy=0;" edge="1" target="fllPb2djwLRIhumXTyLn-39" parent="1" source="fllPb2djwLRIhumXTyLn-26">
          <mxGeometry relative="1" as="geometry">
            <mxPoint x="530" y="857.67" as="sourcePoint" />
          </mxGeometry>
        </mxCell>
        <mxCell id="fllPb2djwLRIhumXTyLn-73" value="统一EventCenter api" style="swimlane;fontStyle=0;childLayout=stackLayout;horizontal=1;startSize=26;fillColor=none;horizontalStack=0;resizeParent=1;resizeParentMax=0;resizeLast=0;collapsible=1;marginBottom=0;fontSize=12;" vertex="1" parent="1">
          <mxGeometry x="770" y="50" width="300" height="130" as="geometry" />
        </mxCell>
        <mxCell id="fllPb2djwLRIhumXTyLn-74" value="on({ eventName, callback }): void" style="text;strokeColor=none;fillColor=none;align=left;verticalAlign=top;spacingLeft=4;spacingRight=4;overflow=hidden;rotatable=0;points=[[0,0.5],[1,0.5]];portConstraint=eastwest;fontSize=12;" vertex="1" parent="fllPb2djwLRIhumXTyLn-73">
          <mxGeometry y="26" width="300" height="26" as="geometry" />
        </mxCell>
        <mxCell id="fllPb2djwLRIhumXTyLn-75" value="emit({ eventName, data, sticky = false }): void" style="text;strokeColor=none;fillColor=none;align=left;verticalAlign=top;spacingLeft=4;spacingRight=4;overflow=hidden;rotatable=0;points=[[0,0.5],[1,0.5]];portConstraint=eastwest;fontSize=12;" vertex="1" parent="fllPb2djwLRIhumXTyLn-73">
          <mxGeometry y="52" width="300" height="26" as="geometry" />
        </mxCell>
        <mxCell id="fllPb2djwLRIhumXTyLn-76" value="off({ eventName, callback }): void" style="text;strokeColor=none;fillColor=none;align=left;verticalAlign=top;spacingLeft=4;spacingRight=4;overflow=hidden;rotatable=0;points=[[0,0.5],[1,0.5]];portConstraint=eastwest;fontSize=12;" vertex="1" parent="fllPb2djwLRIhumXTyLn-73">
          <mxGeometry y="78" width="300" height="26" as="geometry" />
        </mxCell>
        <mxCell id="fllPb2djwLRIhumXTyLn-77" value="removeStickyEvent({ eventName }): void" style="text;strokeColor=none;fillColor=none;align=left;verticalAlign=top;spacingLeft=4;spacingRight=4;overflow=hidden;rotatable=0;points=[[0,0.5],[1,0.5]];portConstraint=eastwest;fontSize=12;" vertex="1" parent="fllPb2djwLRIhumXTyLn-73">
          <mxGeometry y="104" width="300" height="26" as="geometry" />
        </mxCell>
      </root>
    </mxGraphModel>
  </diagram>
</mxfile>
